<svg xmlns="http://www.w3.org/2000/svg" xmlns:xlink="http://www.w3.org/1999/xlink" viewBox="0 0 20 20"><defs><style>.cls-1{opacity:0;}.cls-2{fill:#71777d;}</style><symbol id="Rating_Menu_4_Pressed" data-name="Rating_Menu_4_Pressed" viewBox="0 0 20 20"><g class="cls-1"><rect class="cls-2" width="20" height="20"/></g><path class="cls-2" d="M20,10a1,1,0,0,1-1,1H15.67a1,1,0,0,1-.85-.47l-1.67-2.7-.44,2.26,3,3a1.05,1.05,0,0,1,.29.71V18h0a1,1,0,0,1-2,0V14.21l-2.15-2.15-1.54,2.47a1.07,1.07,0,0,1-.34.33L6.16,17.15a1,1,0,0,1-1.37-.34,1,1,0,0,1,.34-1.38l3.61-2.16,1.92-3.09.51-2.65L7.69,11a1,1,0,0,1-1.42,0,1,1,0,0,1,0-1.41l4.52-4.53a1,1,0,0,1,1.08-.22L14,5.7a1,1,0,0,1,.48.4L16.22,9H19A1,1,0,0,1,20,10ZM14,0a2,2,0,1,0,2,2A2,2,0,0,0,14,0ZM1.77,8H5.65l-1,1H.78l1-1ZM6.33,7H2.46l1-1H7.32Zm2-2H4.46l1-1H9.32Z"/></symbol></defs><title>Rating_Menu_4_Pressed</title><g id="Слой_2" data-name="Слой 2"><g id="Слой_1-2" data-name="Слой 1"><use width="20" height="20" xlink:href="#Rating_Menu_4_Pressed"/></g></g></svg>