<svg xmlns="http://www.w3.org/2000/svg" xmlns:xlink="http://www.w3.org/1999/xlink" viewBox="0 0 20 20"><defs><style>.cls-1{opacity:0;}.cls-2{fill:#71777d;}</style><symbol id="Rating_Menu_1_Pressed" data-name="Rating_Menu_1_Pressed" viewBox="0 0 20 20"><g class="cls-1"><rect class="cls-2" width="20" height="20"/></g><path class="cls-2" d="M14.93,11.27a.86.86,0,0,0-.22,0c-.26.08-.52.16-.77.26a.26.26,0,0,0-.18.32,2.33,2.33,0,0,0,.18.7c.32.59.68,1.17,1,1.75.09.15.21.29.3.42l-.33.51a1.7,1.7,0,0,1-1.48.87A5.46,5.46,0,0,1,12.24,16a3.94,3.94,0,0,0-2.33.16,9.93,9.93,0,0,0-2.65,1.45c-.9.68-1.78,1.39-2.67,2.09L4.18,20c.12-.39.25-.74.36-1.1.46-1.55.87-3.12,1.2-4.71,0-.16.11-.17.23-.19a3.93,3.93,0,0,0,2-.69,2.26,2.26,0,0,0,.85-1.18.44.44,0,0,1,0-.1l-3.35.19c0,.44-.11.87-.17,1.29a.24.24,0,0,1-.06.17L3.64,15l-.05,0c.13-.54.24-1.08.39-1.61a13.91,13.91,0,0,1,1.61-3.9A6.25,6.25,0,0,1,7.87,7.22a4.74,4.74,0,0,1,6.5,2.37A6.09,6.09,0,0,1,14.93,11.27Zm2.41-2.38v0ZM4.9,5.26ZM8.76,4h0ZM19.84,16.25l-.2-.18a2.58,2.58,0,0,1-.17-.49,10.85,10.85,0,0,1-.11-2.67,17.94,17.94,0,0,0,.05-3.11c0-.25-.07-.51-.1-.77l-1.92.26-.05-.4V8.84l-.07-.52,1.85-.26A10,10,0,0,0,16,2.16L14.58,5l-.81-.46,1.46-3C13.51.3,9.76,0,9.76,0V4h0v.08L9.17,4H8.76V.07A11.33,11.33,0,0,0,6.1.56,9.41,9.41,0,0,0,3.51,2.23L5.27,5l-.37.28h0l-.36.27L2.8,2.84a16.13,16.13,0,0,0-2.8,3,6.85,6.85,0,0,1,2.56.85,5.83,5.83,0,0,1,2,1.86l.24-.17c.52-.41,1-.82,1.56-1.21a5.64,5.64,0,0,1,2-1A7.63,7.63,0,0,1,10,6a4.83,4.83,0,0,1,3.08.91,6.32,6.32,0,0,1,1.55,1.74,9.3,9.3,0,0,1,1.09,2.57c.09.33.14.68.26,1a16,16,0,0,0,2.49,4.21,2.78,2.78,0,0,0,.53.5.69.69,0,0,0,1-.32C20,16.4,20,16.32,19.84,16.25Z"/></symbol></defs><title>Rating_Menu_1_Pressed</title><g id="Слой_2" data-name="Слой 2"><g id="Слой_1-2" data-name="Слой 1"><use width="20" height="20" xlink:href="#Rating_Menu_1_Pressed"/></g></g></svg>