<svg xmlns="http://www.w3.org/2000/svg" xmlns:xlink="http://www.w3.org/1999/xlink" viewBox="0 0 20 20"><defs><style>.cls-1{opacity:0;fill:url(#Безымянный_градиент_13);}.cls-2{fill:url(#Безымянный_градиент_13-2);}</style><linearGradient id="Безымянный_градиент_13" y1="20" x2="20" gradientUnits="userSpaceOnUse"><stop offset="0" stop-color="#f80"/><stop offset="1" stop-color="#fab31e"/></linearGradient><linearGradient id="Безымянный_градиент_13-2" x1="3.86" y1="16.38" x2="16.62" y2="3.62" xlink:href="#Безымянный_градиент_13"/><symbol id="Rating_Menu_2" data-name="Rating_Menu_2" viewBox="0 0 20 20"><rect class="cls-1" width="20" height="20"/><path class="cls-2" d="M10.24,1a9,9,0,0,1,9,9v.31c-2.43-.06-5.16-3.47-6-4.83l0-.06-.05,0c-1.5-1.56-3-2.28-4.62-2.13A5.7,5.7,0,0,0,4.65,5.69l0,0a5.52,5.52,0,0,0-1.31,4.78c.71,2.87,4,4.4,4.1,4.47a10.13,10.13,0,0,1,4.69,3.94,9.26,9.26,0,0,1-1.92.2A9,9,0,0,1,10.24,1Zm1.83,5.35A4.4,4.4,0,0,0,8.63,4.64,4.29,4.29,0,0,0,5.82,6.46l0,0,0,0a4.22,4.22,0,0,0-1,3.6C5.26,12.31,8,13.62,8,13.63a11.33,11.33,0,0,1,5.5,4.79,9,9,0,0,0,5.55-6.72C15.64,11.5,12.49,6.93,12.07,6.31Z"/></symbol></defs><title>Rating_Menu_2</title><g id="Слой_2" data-name="Слой 2"><g id="Слой_1-2" data-name="Слой 1"><use width="20" height="20" xlink:href="#Rating_Menu_2"/></g></g></svg>