<svg xmlns="http://www.w3.org/2000/svg" xmlns:xlink="http://www.w3.org/1999/xlink" viewBox="0 0 20 20"><defs><style>.cls-1{opacity:0;}.cls-2{fill:url(#Безымянный_градиент_13);}.cls-3{fill:url(#Безымянный_градиент_13-2);}</style><linearGradient id="Безымянный_градиент_13" y1="20" x2="20" gradientUnits="userSpaceOnUse"><stop offset="0" stop-color="#f80"/><stop offset="1" stop-color="#fab31e"/></linearGradient><linearGradient id="Безымянный_градиент_13-2" x1="1.75" y1="17.75" x2="17.25" y2="2.25" xlink:href="#Безымянный_градиент_13"/><symbol id="Rating_Menu_3" data-name="Rating_Menu_3" viewBox="0 0 20 20"><g class="cls-1"><rect class="cls-2" width="20" height="20"/></g><path class="cls-3" d="M16,3V17H3V3H16m1-1H2V18H17ZM15,4H4V7H15ZM7,8H4v2H7Zm4,0H8v2h3Zm4,0H12v2h3ZM7,11H4v2H7Zm4,0H8v2h3Zm4,0H12v2h3ZM7,14H4v2H7Zm4,0H8v2h3Zm4,0H12v2h3Z"/></symbol></defs><title>Rating_Menu_3</title><g id="Слой_2" data-name="Слой 2"><g id="Слой_1-2" data-name="Слой 1"><use width="20" height="20" xlink:href="#Rating_Menu_3"/></g></g></svg>