<svg xmlns="http://www.w3.org/2000/svg" xmlns:xlink="http://www.w3.org/1999/xlink" viewBox="0 0 20 20"><defs><style>.cls-1{opacity:0;}.cls-2{fill:url(#Безымянный_градиент_13);}.cls-3{fill:url(#Безымянный_градиент_13-2);}</style><linearGradient id="Безымянный_градиент_13" y1="20" x2="20" gradientUnits="userSpaceOnUse"><stop offset="0" stop-color="#f80"/><stop offset="1" stop-color="#fab31e"/></linearGradient><linearGradient id="Безымянный_градиент_13-2" x1="3.28" y1="16.77" x2="16.79" y2="3.26" xlink:href="#Безымянный_градиент_13"/><symbol id="Rating_Menu_5" data-name="Rating_Menu_5" viewBox="0 0 20 20"><g class="cls-1"><rect class="cls-2" width="20" height="20"/></g><path class="cls-3" d="M6,12H4V11H6Zm9,0h2V11H15Zm-5,6h1V16H10ZM4.79,16l.71.7,1.41-1.41-.71-.71Zm8.36-.71,1.42,1.41.7-.7-1.41-1.42ZM4.79,7,6.2,8.38l.71-.71L5.5,6.26ZM11,5v6.5l4.89-3.89C14.89,6.62,13.52,5,11,5Zm0-3h.53a1,1,0,0,0,0-2h-3a1,1,0,0,0,0,2H10V3h1ZM17,6.58A8.5,8.5,0,1,1,1.53,11.5,8.44,8.44,0,0,1,3.11,6.58L1.53,5l2-2L5.11,4.58a8.45,8.45,0,0,1,9.84,0L16.53,3l2,2Zm.58,4.92A7.5,7.5,0,1,0,10,19,7.5,7.5,0,0,0,17.53,11.5Z"/></symbol></defs><title>Rating_Menu_5</title><g id="Слой_2" data-name="Слой 2"><g id="Слой_1-2" data-name="Слой 1"><use width="20" height="20" xlink:href="#Rating_Menu_5"/></g></g></svg>