<svg xmlns="http://www.w3.org/2000/svg" xmlns:xlink="http://www.w3.org/1999/xlink" viewBox="0 0 20 20"><defs><style>.cls-1{opacity:0;}.cls-2{fill:#71777d;}</style><symbol id="Rating_Menu_3_Pressed" data-name="Rating_Menu_3_Pressed" viewBox="0 0 20 20"><g class="cls-1"><rect class="cls-2" width="20" height="20"/></g><path class="cls-2" d="M16,3V17H3V3H16m1-1H2V18H17ZM15,4H4V7H15ZM7,8H4v2H7Zm4,0H8v2h3Zm4,0H12v2h3ZM7,11H4v2H7Zm4,0H8v2h3Zm4,0H12v2h3ZM7,14H4v2H7Zm4,0H8v2h3Zm4,0H12v2h3Z"/></symbol></defs><title>Rating_Menu_3_Pressed</title><g id="Слой_2" data-name="Слой 2"><g id="Слой_1-2" data-name="Слой 1"><use width="20" height="20" xlink:href="#Rating_Menu_3_Pressed"/></g></g></svg>