<svg xmlns="http://www.w3.org/2000/svg" xmlns:xlink="http://www.w3.org/1999/xlink" viewBox="0 0 20 20"><defs><style>.cls-1{opacity:0;}.cls-2{fill:#71777d;}</style><symbol id="Rating_Menu_6_Pressed" data-name="Rating_Menu_6_Pressed" viewBox="0 0 20 20"><g class="cls-1"><rect class="cls-2" width="20" height="20"/></g><path class="cls-2" d="M12.48,9.29A1.39,1.39,0,0,0,13.21,9l.41-.58.66-.94,1-1.4.83-1.34,0-.07c.23-.35.53-1,0-1.29s-.78-.28-1.1.05l-3.59,5.1A1.19,1.19,0,0,0,12.48,9.29Zm1.29.46a.93.93,0,0,0,0,.13c-.11.61.72.8,1.1.73a3.24,3.24,0,0,0,1.69-1.27c.34-.42,1.54-2,1.08-2.95-.25-.52-.87-.72-1.18-.4ZM10.85,0c-1.35-.24-2,1.39-2.58,2.37l2,.92C11,2.33,12.63.63,10.85,0Zm.27,3.63.42.22.34.15.45.21-.13.34c-.44,1.09-1.4,2.31-2.81,1.9-.21.67.41.71.85.9s.6.39,1.18-.31l.42-.54.1-.15-.1.15,1-1.4h0l1.25-1.77a4.09,4.09,0,0,0,.4-.73.88.88,0,0,0-.39-1.36,1.09,1.09,0,0,0-1.39.17l-1.39,2Zm3.5,7.64c-.93-.07-1.45-.19-1.49-1.29-.44.06-1.43.16-1.8-.6.11.56.53,3.74,0,3.77s-.6-1.91-.61-2.34A3.57,3.57,0,0,0,7.75,7a14.17,14.17,0,0,1,.92-1.25,2,2,0,0,0,2.63-1l-.45-.2L9.8,4,8.24,3.3l-.9-.4L7,2.84c-.46-.06-1.94,2.21-2.31,2.75A8,8,0,0,0,3.36,8.27C3.28,9.35,4.43,10.57,5,11.56a13.32,13.32,0,0,1,1.74,3.2,19.5,19.5,0,0,1,0,5.24h7.12a11.58,11.58,0,0,1,0-4,2.74,2.74,0,0,1,1.56-1.66,3,3,0,0,0,1.12-1.95,16.88,16.88,0,0,0,.49-2.47A3,3,0,0,1,14.62,11.29Z"/></symbol></defs><title>Rating_Menu_6_Pressed</title><g id="Слой_2" data-name="Слой 2"><g id="Слой_1-2" data-name="Слой 1"><use width="20" height="20" xlink:href="#Rating_Menu_6_Pressed"/></g></g></svg>