<svg xmlns="http://www.w3.org/2000/svg" xmlns:xlink="http://www.w3.org/1999/xlink" width="12.575" height="12.017" viewBox="0 0 12.575 12.017">
  <defs>
    <linearGradient id="linear-gradient" x1="0.15" y1="0.947" x2="0.85" y2="0.216" gradientUnits="objectBoundingBox">
      <stop offset="0" stop-color="#fc0"/>
      <stop offset="1" stop-color="#f80"/>
    </linearGradient>
  </defs>
  <path id="Path_25" data-name="Path 25" d="M1082.53,299.261l1.084,3.335a.583.583,0,0,0,.555.4h3.507a.584.584,0,0,1,.344,1.057l-2.837,2.061a.586.586,0,0,0-.213.654l1.084,3.335a.584.584,0,0,1-.9.653l-2.837-2.061a.584.584,0,0,0-.687,0l-2.837,2.061a.584.584,0,0,1-.9-.653l1.084-3.335a.586.586,0,0,0-.213-.654l-2.837-2.061a.584.584,0,0,1,.344-1.057h3.506a.584.584,0,0,0,.556-.4l1.084-3.335A.584.584,0,0,1,1082.53,299.261Z" transform="translate(-1075.687 -298.857)" fill="url(#linear-gradient)"/>
</svg>