<svg xmlns="http://www.w3.org/2000/svg" xmlns:xlink="http://www.w3.org/1999/xlink" viewBox="0 0 32 33"><defs><style>.cls-1{opacity:0;}.cls-2{fill:#424a52;}.cls-3{fill:#a0a4a8;}.cls-4{fill:#f3f4f4;}</style><symbol id="Filter_Tournaments" data-name="Filter_Tournaments" viewBox="0 0 32 33"><g class="cls-1"><rect class="cls-2" width="32" height="32"/></g><path class="cls-3" d="M21,8.59v6.66a1.21,1.21,0,0,1-.43.83l-.17.15-.13.18A8.67,8.67,0,0,1,17,19.12l-.67.23-.67-.23a8.63,8.63,0,0,1-3.26-2.71l-.13-.18-.17-.15a1.14,1.14,0,0,1-.43-.83V8.59H21m.09-2H11.56A1.87,1.87,0,0,0,9.69,7.92H7.83A.85.85,0,0,0,7,8.77V12.3a.89.89,0,0,0,.24.6L9.35,15l.31.32a3.14,3.14,0,0,0,1.11,2.25A10.72,10.72,0,0,0,15,21v2.91H13.65v1.33h-.73a1.35,1.35,0,0,0-.47-.09,1.33,1.33,0,0,0-1.22,1.43H21.41a1.33,1.33,0,0,0-1.23-1.43,1.44,1.44,0,0,0-.47.09H19V23.92H17.65V21a10.72,10.72,0,0,0,4.22-3.43A3.12,3.12,0,0,0,23,15.33L25.4,12.9a.86.86,0,0,0,.25-.6V8.77a.85.85,0,0,0-.85-.85H23a1.87,1.87,0,0,0-1.87-1.33ZM23,13.43V9.25h1.33V12.1l-1.07,1.06-.26.27Zm-13.34,0L8.32,12.1V9.25H9.65v4.18Z"/><polygon class="cls-3" points="14 32 14 26 11 26 11 22 20.88 22 20.88 26 18 26 18 32 14 32"/><path class="cls-4" d="M19.88,23v2H17v6H15V25H12V23h7.88m2-2H10v6h3v6h6V27h2.88V21Z"/></symbol></defs><title>1</title><g id="Слой_2" data-name="Слой 2"><g id="Слой_1-2" data-name="Слой 1"><use id="Filter_Tournaments-3" data-name="Filter_Tournaments" width="32" height="33" xlink:href="#Filter_Tournaments"/></g></g></svg>