<svg xmlns="http://www.w3.org/2000/svg" xmlns:xlink="http://www.w3.org/1999/xlink" viewBox="0 0 32 32"><defs><style>.cls-1{opacity:0;}.cls-2{fill:#424a52;}.cls-3{fill:#a0a4a8;}</style><symbol id="Menu_Game_Mobile" data-name="Menu_Game_Mobile" viewBox="0 0 32 32"><g class="cls-1"><rect class="cls-2" width="32" height="32"/></g><circle class="cls-3" cx="10.5" cy="10.5" r="1.5"/><circle class="cls-3" cx="16.5" cy="10.5" r="1.5"/><circle class="cls-3" cx="22.5" cy="10.5" r="1.5"/></symbol></defs><title>3</title><g id="Слой_2" data-name="Слой 2"><g id="Слой_1-2" data-name="Слой 1"><use id="Menu_Game_Mobile-3" data-name="Menu_Game_Mobile" width="32" height="32" xlink:href="#Menu_Game_Mobile"/><path class="cls-3" d="M9.68,27H7.82l.94-2.88Zm-2.9,3.32.55-1.72h2.85l.62,1.8,2.07-.33L10,22.05H7.74l-3,8.31Z"/><polygon class="cls-3" points="21.59 22.08 20.42 27.27 19.07 22.08 17.01 22.08 15.66 27.27 14.42 22 12.2 22.35 14.38 30.37 16.44 30.37 17.87 25.02 19.3 30.37 21.38 30.37 23.63 22.08 21.59 22.08"/><rect class="cls-3" x="25.11" y="22.08" width="2.05" height="8.28"/></g></g></svg>