<?xml version="1.0" standalone="no"?>
<!DOCTYPE svg PUBLIC "-//W3C//DTD SVG 1.1//EN" "http://www.w3.org/Graphics/SVG/1.1/DTD/svg11.dtd" >
<svg xmlns="http://www.w3.org/2000/svg">
<metadata>Generated by IcoMoon</metadata>
<defs>
<font id="icomoon" horiz-adv-x="1024">
<font-face units-per-em="1024" ascent="960" descent="-64" />
<missing-glyph horiz-adv-x="1024" />
<glyph unicode="&#x20;" horiz-adv-x="512" d="" />
<glyph unicode="&#xe900;" glyph-name="About_Menu_1" horiz-adv-x="1004" d="M608.437 852.781c1.303 9.713 4.53 18.47 9.295 26.195l-0.168-0.294c6.407 12.14 13.479 22.602 21.539 32.224l-0.243-0.299c8.518 10.842 21.904 25.299 39.548 43.369 27.988 30.118-69.97-67.464-28.597-30.72l-406.436-264.433h198.959l-99.784-397.553c-2.641-9.858-6.177-18.469-10.648-26.498l0.305 0.597c-5.394-10.609-10.449-19.283-15.921-27.664l0.71 1.161c-5.476-8.433-10.952-16.264-17.036-24.094-7.683-10.29-15.261-19.321-23.31-27.913l0.19 0.205c-16.421-19.628-33.129-37.314-50.842-53.963l-0.267-0.249 382.707 280.094 71.796 275.878h279.881l43.807 180.706h-385.141c-5.975 1.413-10.348 6.654-10.348 12.906 0 0.122 0.002 0.243 0.005 0.364v-0.018zM211.736 839.529l-4.259-15.661c-1.862-8.386-3.956-15.44-6.473-22.293l0.389 1.211q-4.867-12.649-10.952-27.106c-5.218-12.557-10.317-22.855-15.982-32.794l0.771 1.472c-6.341-12.318-12.807-22.767-19.986-32.674l0.516 0.75c-9.735-13.854-22.512-30.72-38.94-49.995s-31.639-37.948-48.067-56.019-30.422-34.936-43.807-49.393l-24.946-28.913 425.906 311.416zM261.628-64h237.291l60.844 234.918c5.375 17.179 10.745 31.153 16.85 44.732l-1.031-2.568c8.62 20.059 18.399 37.289 29.809 53.298l-0.604-0.893 16.428 21.685 20.078 24.696 21.295 24.696 26.163 29.515 56.585 60.235-441.117-317.44z" />
<glyph unicode="&#xe901;" glyph-name="About_Menu_2" horiz-adv-x="1020" d="M1009.664 550.4c-42.119 201.324-198.036 357.241-396.027 398.775l-3.333 0.585c-30.785 6.512-66.157 10.24-102.4 10.24s-71.615-3.728-105.754-10.823l3.354 0.583c-199.618-43.573-353.739-199.066-394.687-396.039l-0.577-3.321c-6.512-30.785-10.24-66.157-10.24-102.4s3.728-71.615 10.823-105.754l-0.583 3.354c41.889-199.868 195.904-354.912 391.879-397.716l3.385-0.62c30.785-6.512 66.157-10.24 102.4-10.24s71.615 3.728 105.754 10.823l-3.354-0.583c201.324 42.119 357.241 198.036 398.775 396.027l0.585 3.333c6.512 30.785 10.24 66.157 10.24 102.4s-3.728 71.615-10.823 105.754l0.583-3.354zM661.504 882.688c131.701-47.449 233.639-149.387 280.075-277.878l1.013-3.21h-230.912c-14.795 19.539-31.66 36.405-50.556 50.732l-0.644 0.468zM358.4 882.688v-229.888c-19.539-14.795-36.405-31.66-50.732-50.556l-0.468-0.644h-229.888c47.449 131.701 149.387 233.639 277.878 280.075l3.21 1.013zM358.4 12.288c-131.894 47.66-233.892 149.993-280.082 278.896l-1.006 3.216h229.888c14.795-19.539 31.66-36.405 50.556-50.732l0.644-0.468zM661.504 12.288v230.912c19.539 14.795 36.405 31.66 50.732 50.556l0.468 0.644h230.912c-47.66-131.894-149.993-233.892-278.896-280.082l-3.216-1.006zM610.304 268.288c-28.75-17.052-63.374-27.129-100.352-27.129s-71.602 10.077-101.277 27.635l0.925-0.506c-60.951 36.23-101.16 101.739-101.16 176.64s40.208 140.41 100.218 176.121l0.942 0.519c28.914 16.575 63.562 26.35 100.492 26.35 73.407 0 137.794-38.621 173.949-96.652l0.503-0.866c17.249-29.374 27.436-64.696 27.436-102.397 0-74.903-40.21-140.413-100.223-176.124l-0.942-0.519z" />
<glyph unicode="&#xe902;" glyph-name="About_Menu_3" d="M56.889 448h910.222v170.667h-910.222zM853.333 789.333c62.838 0 113.778-50.94 113.778-113.778v0-455.111c0-62.838-50.94-113.778-113.778-113.778v0h-682.667c-62.838 0-113.778 50.94-113.778 113.778v0 455.111c0 62.838 50.94 113.778 113.778 113.778v0h682.667zM853.333 846.222h-682.667c-94.257 0-170.667-76.41-170.667-170.667v0-455.111c0-94.257 76.41-170.667 170.667-170.667v0h682.667c94.257 0 170.667 76.41 170.667 170.667v0 455.111c0 94.257-76.41 170.667-170.667 170.667v0z" />
<glyph unicode="&#xe903;" glyph-name="About_Menu_4" d="M804.864 927.744v0c-17.367 19.938-42.799 32.468-71.157 32.468-11.197 0-21.938-1.953-31.9-5.538l0.657 0.206-433.152-151.040c-24.429-10.652-44.98-26.114-61.239-45.325l-0.201-0.243-3.072-3.072-126.976-171.008c-15.913-23.812-25.395-53.096-25.395-84.596 0-20.618 4.062-40.288 11.431-58.252l-0.372 1.024c7.68-18.432 25.6-51.2 51.2-96.768l15.36-29.696c-31.581-39.35-50.686-89.891-50.686-144.895 0-128.377 104.071-232.448 232.448-232.448 128.017 0 231.864 103.487 232.446 231.368v14.391l223.232 115.712c24.472 12.241 44.754 29.573 60.089 50.726l0.327 0.474v3.072c28.672 53.76 113.664 220.672 148.48 290.304 6.17 12.191 9.784 26.576 9.784 41.806 0 23.142-8.344 44.334-22.188 60.734l0.115-0.14zM925.184 668.672c-34.304-68.096-117.76-231.936-146.944-286.72-10.205-14.066-23.23-25.454-38.308-33.498l-0.604-0.294-376.32-193.536c-7.56-4.132-16.56-6.563-26.129-6.563-6.41 0-12.566 1.091-18.291 3.097l0.388-0.118c-15.419 5.575-27.692 16.684-34.656 30.87l-0.16 0.362c-5.731 10.242-9.105 22.473-9.105 35.493 0 7.989 1.271 15.681 3.621 22.885l-0.147-0.521c7.153 22.856 23.225 41.1 44.038 50.984l0.506 0.216 134.656 71.68c18.069 9.518 32.575 23.695 42.23 40.954l0.266 0.518 27.136 43.52c7.895 13.485 12.557 29.694 12.557 46.992 0 35.003-19.089 65.547-47.425 81.789l-0.46 0.243c-8.931 6.264-19.344 11.186-30.545 14.18l-0.687 0.156-21.504 3.072c-4.164 0.577-8.974 0.906-13.862 0.906-29.369 0-55.962-11.889-75.228-31.116l-43.006-43.006c-17.321-17.092-28.050-40.828-28.050-67.070 0-15.502 3.744-30.129 10.378-43.027l-0.247 0.529 5.12-10.24h-10.752c-43.692-4.135-83.062-19.835-115.839-43.969l0.639 0.449-7.168 13.312c-21.504 40.448-39.936 75.776-46.080 91.648-4.446 10.62-7.028 22.962-7.028 35.906 0 19.192 5.677 37.058 15.444 52.011l-0.224-0.365 125.44 168.96c10.465 11.857 22.626 21.898 36.171 29.833l0.693 0.375 433.664 153.6c3.808 1.389 8.205 2.192 12.789 2.192 11.662 0 22.11-5.199 29.152-13.405l0.043-0.051 160.256-179.712c5.239-6.692 8.402-15.229 8.402-24.505 0-6.968-1.785-13.52-4.922-19.222l0.104 0.207zM343.040 481.28l43.008 43.008c9.081 9.012 21.528 14.644 35.289 14.848h7.207l21.504-3.072c19.116-2.674 33.667-18.916 33.667-38.557 0-1.931-0.141-3.83-0.412-5.686l0.025 0.211c-0.563-5.346-2.204-10.208-4.701-14.51l0.093 0.174-27.136-47.616c-4.934-8.292-11.889-14.918-20.202-19.322l-0.278-0.134-43.52-23.040c-9.071 3.617-19.881 6.803-31.041 9.015l-1.215 0.201-19.456 39.936c-2.678 5.062-4.25 11.065-4.25 17.436 0 10.621 4.37 20.222 11.411 27.101l0.007 0.007z" />
<glyph unicode="&#xe904;" glyph-name="About_Menu_5" horiz-adv-x="1022" d="M984.96 216.32l-209.28 108.8c-9.293 4.96-20.325 7.873-32.037 7.873-21.997 0-41.594-10.275-54.253-26.288l-0.111-0.145-76.8-98.56c-75.769 39.572-140.734 87.792-197.068 144.587l-0.052 0.053c-58.030 56.931-106.78 123.051-143.949 196.055l-1.971 4.265 97.92 75.52c15.374 12.77 25.091 31.891 25.091 53.282 0 12.143-3.131 23.555-8.631 33.472l0.18-0.354-105.6 208c-11.76 22.334-34.812 37.301-61.361 37.301-14.348 0-27.675-4.372-38.722-11.856l0.243 0.155-132.48-88.96c-28.022-18.995-46.195-50.689-46.195-86.626 0-1.721 0.042-3.433 0.124-5.133l-0.009 0.24c2.256-44.148 8.201-85.595 17.577-125.721l-0.937 4.761c50.608-170.884 141.293-316.817 261.439-432.333l0.321-0.307c115.823-120.467 261.756-211.152 425.719-259.991l6.921-1.769c35.092-8.112 76.517-14.042 118.864-16.541l2.096-0.099c1.758-0.105 3.814-0.164 5.884-0.164 36.701 0 69.029 18.722 87.954 47.137l0.242 0.387 86.4 134.4c6.65 10.431 10.599 23.145 10.599 36.782 0 26.871-15.334 50.161-37.728 61.597l-0.391 0.181z" />
<glyph unicode="&#xe905;" glyph-name="Arrow_Grey" d="M292.234-41.157l500.185 500.972-500.185 500.185-55.926-55.926 445.046-444.258-445.046-445.046 55.926-55.926z" />
<glyph unicode="&#xe906;" glyph-name="Arrow_Right" d="M298.767-73.638l515.614 515.614-518.626 518.024-84.932-84.932 433.092-433.092-430.682-430.682 85.534-84.932z" />
<glyph unicode="&#xe907;" glyph-name="Block" horiz-adv-x="704" d="M144 561.6v110.4c-0.001 0.293-0.002 0.641-0.002 0.988 0 54.739 18.931 105.055 50.603 144.761l-0.361-0.469c30.924 39.365 75.71 66.625 126.893 74.421l1.107 0.139c8.94 1.376 19.253 2.162 29.75 2.162 57.677 0 109.812-23.731 147.172-61.963l0.038-0.039c37.622-39.011 60.801-92.172 60.801-150.748 0-0.215 0-0.43-0.001-0.645v0.033c0-17.673 14.327-32 32-32s32 14.327 32 32v0c0.012 0.96 0.019 2.095 0.019 3.231 0 151.063-121.292 273.797-271.8 276.126l-0.219 0.003c-14.248-0.028-28.226-1.074-41.897-3.069l1.577 0.189c-68.101-10.895-126.341-46.591-166.292-97.356l-0.428-0.564c-40.482-50.666-64.961-115.662-64.961-186.376 0-0.29 0-0.579 0.001-0.869v0.045-110.72h-80v-263.36c-0.021-1.438-0.033-3.136-0.033-4.836 0-195.443 157.001-354.217 351.763-357.081l0.269-0.003c195.034 2.864 352.037 161.639 352.037 357.084 0 1.813-0.014 3.623-0.040 5.429l0.003-0.273v263.36zM640 298.24c0.016-1.152 0.026-2.512 0.026-3.874 0-159.966-128.421-289.938-287.79-292.443l-0.235-0.003c-159.605 2.508-288.026 132.48-288.026 292.446 0 1.362 0.009 2.722 0.028 4.080l-0.002-0.206v197.76h576zM311.68 957.12v0 0 0zM320 241.6v-75.2c0-17.673 14.327-32 32-32s32 14.327 32 32v0 75.2c19.265 11.272 32 31.861 32 55.426 0 35.346-28.654 64-64 64s-64-28.654-64-64c0-23.564 12.735-44.154 31.698-55.262l0.302-0.164z" />
<glyph unicode="&#xe908;" glyph-name="Bookmarks" d="M804.571 886.857c40.396 0 73.143-32.747 73.143-73.143v0-731.429c0-24.869-8.777-38.034-21.943-38.034-12.166 1.698-22.646 7.857-29.923 16.74l-0.066 0.083-261.851 261.851c-13.257 13.363-31.628 21.636-51.931 21.636s-38.674-8.272-51.927-21.631l-261.856-261.856c-7.343-8.966-17.823-15.124-29.742-16.795l-0.247-0.028c-13.166 0-21.943 13.166-21.943 38.034v731.429c0 40.396 32.747 73.143 73.143 73.143v0h585.143zM804.571 960h-585.143c-80.791 0-146.286-65.494-146.286-146.286v0-731.429c-0.445-3.534-0.699-7.623-0.699-11.771 0-53.641 42.457-97.365 95.6-99.4l0.185-0.006c32.355 0.961 61.152 15.422 81.086 37.917l0.102 0.118 262.583 262.583 262.583-262.583c20.037-22.612 48.834-37.074 81.023-38.030l0.166-0.004c53.327 2.041 95.785 45.765 95.785 99.406 0 4.149-0.254 8.238-0.747 12.253l0.048-0.482v731.429c0 80.791-65.494 146.286-146.286 146.286v0z" />
<glyph unicode="&#xe909;" glyph-name="Bookmarks_Menu" d="M844.8 908.8c28.277 0 51.2-22.923 51.2-51.2v0-819.2c0-17.408-6.144-26.624-15.36-26.624-8.516 1.189-15.852 5.5-20.946 11.718l-0.046 0.058-311.296 311.296c-9.28 9.354-22.14 15.145-36.352 15.145s-27.072-5.791-36.349-15.142l-311.299-311.299c-5.14-6.276-12.476-10.587-20.819-11.756l-0.173-0.020c-9.216 0-15.36 9.216-15.36 26.624v819.2c0 28.277 22.923 51.2 51.2 51.2v0h665.6zM844.8 960h-665.6c-56.554 0-102.4-45.846-102.4-102.4v0-819.2c-0.311-2.474-0.489-5.336-0.489-8.24 0-37.548 29.72-68.155 66.92-69.58l0.13-0.004c22.648 0.673 42.806 10.795 56.76 26.542l0.072 0.082 311.808 311.808 311.808-311.808c14.026-15.829 34.184-25.951 56.716-26.621l0.116-0.003c37.329 1.429 67.049 32.036 67.049 69.584 0 2.904-0.178 5.766-0.523 8.577l0.034-0.337v819.2c0 56.554-45.846 102.4-102.4 102.4v0zM256 755.2h512c14.138 0 25.6 11.462 25.6 25.6s-11.462 25.6-25.6 25.6v0h-512c-14.138 0-25.6-11.462-25.6-25.6s11.462-25.6 25.6-25.6v0z" />
<glyph unicode="&#xe90a;" glyph-name="Bookmarks_Pressed" d="M938.667 21.333c0-46.933-27.307-58.027-60.587-24.747l-305.493 305.493c-15.467 15.59-36.9 25.241-60.587 25.241s-45.12-9.651-60.581-25.236l-305.499-305.499c-33.28-33.28-60.587-22.187-60.587 24.747v853.333c0 47.128 38.205 85.333 85.333 85.333v0h682.667c47.128 0 85.333-38.205 85.333-85.333v0z" />
<glyph unicode="&#xe90b;" glyph-name="Chart_Mobile" d="M245.12 474.24l-79.36-79.36c18.039-12.008 32.55-27.952 42.544-46.672l0.336-0.688 83.84 83.84c-19.408 10.33-35.352 24.841-47.067 42.412l-0.293 0.468zM457.6 471.68c-12.602-17.534-28.929-31.607-47.887-41.252l-0.753-0.348 85.12-85.12c9.992 19.711 24.066 36.037 41.206 48.37l0.394 0.27zM821.12 538.24l-143.36-143.36c18.039-12.008 32.55-27.952 42.544-46.672l0.336-0.688 147.84 147.84c-19.408 10.33-35.352 24.841-47.067 42.412l-0.293 0.468zM928 704c-53.019 0-96-42.981-96-96v0c0.003-16.943 4.514-32.833 12.401-46.533l-0.241 0.453c10.825-19.24 27.394-34.158 47.359-42.638l0.641-0.242c10.557-4.453 22.831-7.040 35.709-7.040 0.046 0 0.092 0 0.139 0h-0.007c53.019 0 96 42.981 96 96s-42.981 96-96 96v0zM654.080 371.84c-13.63 8.218-30.087 13.080-47.68 13.080s-34.050-4.862-48.102-13.316l0.422 0.235c-19.088-11.987-33.494-29.915-40.757-51.155l-0.203-0.685c-3.333-9.492-5.415-20.446-5.756-31.838l-0.004-0.162c0-53.019 42.981-96 96-96s96 42.981 96 96v0c0 0.039 0 0.085 0 0.131 0 12.878-2.587 25.151-7.271 36.329l0.231-0.62c-8.722 20.606-23.64 37.175-42.39 47.746l-0.49 0.254zM433.92 494.72c8.798 14.008 14.034 31.028 14.080 49.268v0.012c0 53.019-42.981 96-96 96s-96-42.981-96-96v0c0.003-16.943 4.514-32.833 12.401-46.533l-0.241 0.453c10.825-19.24 27.394-34.158 47.359-42.638l0.641-0.242c10.557-4.453 22.831-7.040 35.709-7.040 0.046 0 0.092 0 0.139 0h-0.007c11.554 0.345 22.508 2.427 32.768 5.992l-0.768-0.232c21.16 7.842 38.385 22.171 49.679 40.538l0.241 0.422zM142.080 371.84c-13.247 7.646-29.137 12.157-46.079 12.16h-0.001c-53.019 0-96-42.981-96-96s42.981-96 96-96c53.019 0 96 42.981 96 96v0c0 0.039 0 0.085 0 0.131 0 12.878-2.587 25.151-7.271 36.329l0.231-0.62c-8.722 20.606-23.64 37.175-42.39 47.746l-0.49 0.254z" />
<glyph unicode="&#xe90c;" glyph-name="Checkbox_Active" d="M0 466.773l384.853-384 628.907 628.907-121.173 120.32-507.733-507.733-264.533 263.68-120.32-121.173z" />
<glyph unicode="&#xe90d;" glyph-name="Close_Modal_Dark" d="M996.388 916.378l-41.056 43.622-442.368-470.016-441.79 470.016-41.056-43.622 442.368-469.402-442.368-470.016 41.056-43.622 441.79 470.016 442.368-470.016 41.056 43.622-442.368 470.016 442.368 469.402z" />
<glyph unicode="&#xe90e;" glyph-name="Currency_Grey" d="M633.905 838.095c-43.483-0.144-85.212-7.451-124.134-20.802l2.717 0.81c-36.788 12.674-79.18 19.992-123.281 19.992-215.444 0-390.095-174.652-390.095-390.095s174.652-390.095 390.095-390.095c44.101 0 86.492 7.318 126.027 20.806l-2.746-0.814c36.784-12.671 79.172-19.988 123.268-19.988 215.444 0 390.095 174.652 390.095 390.095s-174.652 390.095-390.095 390.095c-0.651 0-1.301-0.002-1.951-0.005h0.1zM48.762 448c0 188.513 152.82 341.333 341.333 341.333s341.333-152.82 341.333-341.333c0-188.513-152.82-341.333-341.333-341.333v0c-188.513 0-341.333 152.82-341.333 341.333v0zM633.905 110.080c-15.606 0.141-30.8 1.377-45.658 3.635l1.773-0.222c25.079 14.733 46.791 30.857 66.602 49.021l-0.286-0.259c147.332 12.569 262.157 135.26 262.157 284.77s-114.825 272.2-261.099 284.697l-1.058 0.073c-19.525 17.905-41.237 34.029-64.518 47.779l-1.798 0.983c13.086 2.037 28.28 3.272 43.736 3.412l0.15 0.001c186.628 0 337.92-151.292 337.92-337.92s-151.292-337.92-337.92-337.92v0zM420.815 448h-79.482v-146.286h75.093c0.78-0.029 1.695-0.045 2.615-0.045 32.208 0 59.741 20.017 70.837 48.29l0.179 0.517c2.167 7.199 3.414 15.471 3.414 24.035 0 0.122 0 0.243-0.001 0.365v-0.019c0 0 0 0.001 0 0.002 0 40.224-32.47 72.865-72.629 73.141h-0.026zM390.095 740.571c-161.583 0-292.571-130.989-292.571-292.571s130.989-292.571 292.571-292.571c161.583 0 292.571 130.989 292.571 292.571v0c0 161.583-130.989 292.571-292.571 292.571v0zM536.381 335.848c-17.577-48.723-63.415-82.925-117.242-82.925-0.954 0-1.905 0.011-2.853 0.032l0.141-0.003h-123.855v390.095h128.244c53.269-0.771 96.156-44.134 96.156-97.514 0-27.32-11.234-52.017-29.334-69.722l-0.018-0.017c32.535-22.013 53.639-58.781 53.639-100.479 0-0.161 0-0.322-0.001-0.484v0.025c0.016-0.781 0.025-1.701 0.025-2.624 0-12.947-1.789-25.476-5.134-37.354l0.233 0.968zM420.815 496.762c26.93 0 48.762 21.831 48.762 48.762s-21.831 48.762-48.762 48.762v0h-79.482v-97.524h78.994z" />
<glyph unicode="&#xe90f;" glyph-name="Filter_Players" d="M64 282.88c14.523 132.94 126.18 235.467 261.783 235.467 72.73 0 138.571-29.494 186.216-77.173l0.001-0.001c9.634-9.644 18.462-20.097 26.373-31.247l0.507-0.753c18.88-0.068 37.345-1.617 55.351-4.537l-2.017 0.27c-53.61 92.765-152.328 154.186-265.391 154.186-168.175 0-304.611-135.893-305.489-303.862v-0.084c0-8.247 6.686-14.933 14.933-14.933v0h293.12v42.667zM333.227 607.147c97.556 0 176.64 79.084 176.64 176.64s-79.084 176.64-176.64 176.64c-97.556 0-176.64-79.084-176.64-176.64v0c0-97.556 79.084-176.64 176.64-176.64v0zM742.4 507.733c-0.235 0.001-0.513 0.001-0.791 0.001-46.949 0-90.859-13.007-128.326-35.613l1.117 0.625 21.76-36.693c30.494 18.446 67.333 29.36 106.721 29.36 113.55 0 205.914-90.71 208.581-203.619l0.005-0.248h8.533v-6.4h-6.4c0.112 1.024 0.176 2.211 0.176 3.413s-0.064 2.39-0.188 3.559l0.013-0.146h-187.307c3.424-12.35 5.995-26.891 7.198-41.818l0.055-0.848h186.453c0.001 0 0.002 0 0.003 0 19.88 0 36.023 15.995 36.264 35.817v0.023c0 0.001 0 0.002 0 0.003 0 139.5-113.087 252.587-252.587 252.587-0.45 0-0.9-0.001-1.35-0.004h0.070zM960 255.147h-6.4c0 3.535 2.865 6.4 6.4 6.4v0h-8.533c0.112-1.024 0.176-2.211 0.176-3.413s-0.064-2.39-0.188-3.559l0.013 0.146zM952.32 255.147h7.68v6.4c-0.385 0.082-0.828 0.13-1.281 0.13-3.535 0-6.4-2.865-6.4-6.4 0-0.046 0-0.091 0.001-0.136v0.007zM746.667 537.6c74.566 0.484 134.827 61.043 134.827 135.677 0 74.934-60.746 135.68-135.68 135.68s-135.679-60.745-135.68-135.677v0c0.242-74.986 61.086-135.681 136.106-135.681 0.15 0 0.3 0 0.451 0.001h-0.023zM649.813 292.267c-6.216 5.003-13.209 9.542-20.647 13.336l-0.686 0.318c-13.603 6.679-29.385 11.744-45.977 14.381l-0.956 0.125c-12.747 2.309-27.493 3.7-42.539 3.839l-0.128 0.001h-124.16v-384h95.147v128h23.467c2.711-0.15 5.883-0.236 9.076-0.236 39.17 0 75.325 12.905 104.447 34.696l-0.456-0.326c26.244 21.911 42.821 54.639 42.821 91.239 0 2.125-0.056 4.237-0.166 6.334l0.012-0.293c0.129 2.022 0.203 4.384 0.203 6.764 0 34.261-15.239 64.964-39.308 85.699l-0.147 0.124zM533.333 139.52h-22.187v113.067h22.187c0.44 0.009 0.959 0.015 1.478 0.015 15.34 0 29.599-4.626 41.459-12.558l-0.271 0.17c11.798-9.138 19.319-23.306 19.319-39.232 0-1.209-0.043-2.407-0.129-3.594l0.009 0.159c1.707-38.827-19.2-58.027-61.867-58.027z" />
<glyph unicode="&#xe910;" glyph-name="Filter_Tournaments" d="M333.653 259.84v-85.333h127.573v-256h85.333v256h128v85.333h-340.907zM448 344.747v-42.667h113.92v42.667h-113.92zM866.987 903.253h-77.653c-10.013 33.165-40.292 56.901-76.116 56.901-1.742 0-3.471-0.056-5.184-0.167l0.234 0.012h-406.613c-1.070 0.052-2.324 0.081-3.585 0.081-35.716 0-65.892-23.722-75.631-56.269l-0.144-0.559h-79.36c-20.030 0-36.267-16.237-36.267-36.267v0-150.613c0.075-9.996 4.135-19.029 10.668-25.602l103.678-103.678c1.642-38.665 19.431-72.874 46.752-96.275l0.182-0.152c46.503-62.5 107.081-111.997 177.206-144.317l2.847-1.177h114.773c72.523 33.567 132.678 83.053 177.896 144.249l0.878 1.244c27.825 23.425 45.916 57.643 47.775 96.119l0.012 0.307 103.68 103.68c6.531 6.571 10.592 15.604 10.667 25.586v150.627c0 0.001 0 0.002 0 0.003 0 20.030-16.237 36.267-36.267 36.267-0.15 0-0.3-0.001-0.449-0.003h0.023zM220.587 669.867v0 0l-57.173 55.040v121.173h57.173zM704 846.080v-256c-0.946-14.125-7.685-26.511-17.838-34.92l-0.082-0.066-7.253-6.4-5.547-7.68c-36.13-49.348-83.186-88.611-137.752-114.682l-2.195-0.944-29.013-10.24-28.587 10.24c-56.18 27.31-102.764 66.515-137.944 114.592l-0.722 1.035-5.547 7.68-7.253 6.4c-10.235 8.475-16.974 20.861-17.912 34.836l-0.008 0.151v284.587h397.653zM846.080 724.907l-56.747-56.747v177.92h56.747z" />
<glyph unicode="&#xe911;" glyph-name="Gradient_Arrow" d="M0 652.012l528.542-528.542 527.754 528.542-111.065 111.065-416.689-416.689-417.477 416.689-111.065-111.852v0.788z" />
<glyph unicode="&#xe912;" glyph-name="Info_Game_Mobile" d="M179.2 806.4h409.6v-51.2h-409.6v51.2zM179.2 704h409.6v-51.2h-409.6v51.2zM179.2 601.6h409.6v-51.2h-409.6v51.2zM179.2 499.2h307.2v-51.2h-307.2v51.2zM179.2 396.8h204.8v-51.2h-204.8v51.2zM742.4 499.2v358.4c0 56.554-45.846 102.4-102.4 102.4v0h-512c-56.554 0-102.4-45.846-102.4-102.4v0-563.2c0-56.554 45.846-102.4 102.4-102.4v0h307.2c14.173-143.52 134.258-254.714 280.314-254.714 155.523 0 281.6 126.077 281.6 281.6 0 146.056-111.194 266.141-253.546 280.22l-1.167 0.093zM716.8-12.8c-117.841 0.357-214.793 89.323-227.743 203.749l-0.097 1.051c-1.257 7.387-2.173 16.206-2.546 25.166l-0.014 0.434c0.387 9.393 1.303 18.212 2.732 26.859l-0.172-1.259c12.148 106.449 95.791 190.091 201.186 202.142l1.054 0.098c7.387 1.257 16.206 2.173 25.166 2.546l0.434 0.014c9.393-0.387 18.212-1.303 26.859-2.732l-1.259 0.172c121.814-6.975 217.955-107.46 217.955-230.4 0-127.443-103.313-230.755-230.755-230.755-4.503 0-8.975 0.129-13.414 0.383l0.614-0.028zM76.8 294.4v563.2c0 28.277 22.923 51.2 51.2 51.2v0h512c28.277 0 51.2-22.923 51.2-51.2v0-358.4c-136.449-11.635-244.365-119.551-255.929-254.963l-0.071-1.037h-307.2c-28.277 0-51.2 22.923-51.2 51.2v0zM716.8 243.2h-25.6v-153.6h51.2v153.6h-25.6zM691.2 345.6v-51.2h51.2v51.2h-51.2z" />
<glyph unicode="&#xe913;" glyph-name="Menu_1" horiz-adv-x="1019" d="M509.453 960c281.363 0 509.453-228.090 509.453-509.453v0c0-6.227 0-11.887 0-18.114-136.986 3.962-292.086 196.988-339.635 273.406v3.396h-2.83c-84.909 88.305-173.214 129.061-261.519 120.57-92.629-13.602-171.231-64.67-221.187-137.033l-0.708-1.085c-48.664-55.063-78.375-127.868-78.375-207.611 0-21.477 2.155-42.451 6.261-62.717l-0.341 2.016c40.19-161.893 226.423-248.5 232.084-252.462 110.942-47.042 201.548-123.984 264.105-220.754l1.377-2.273c-32.302-7.557-69.392-11.889-107.493-11.889-0.418 0-0.837 0.001-1.255 0.002h0.065c-282.77 0-512 229.23-512 512s229.23 512 512 512v0zM613.041 657.159c-45.998 57.525-116.045 94.158-194.661 94.532h-0.063c-66.445-12.718-122.425-50.183-159.099-102.23l-0.53-0.793c-40.448-42.863-65.31-100.815-65.31-164.574 0-14.654 1.313-29.002 3.829-42.932l-0.219 1.461c30.567-125.099 187.365-199.819 187.365-199.819 132.501-55.583 239.613-149.916 309.692-268.703l1.64-3.006c161.848 64.993 280.835 206.087 313.655 377.77l0.507 3.187c-194.724 10.755-373.599 268.312-396.807 305.106z" />
<glyph unicode="&#xe914;" glyph-name="Menu_2" horiz-adv-x="1025" d="M249.796-53.749l73.914 73.374c6.904 6.904 11.174 16.441 11.174 26.976 0 21.069-17.080 38.149-38.149 38.149-10.535 0-20.072-4.27-26.976-11.174v0l-71.756-75.532c-7.135-6.795-11.573-16.367-11.573-26.976s4.437-20.181 11.557-26.961l0.015-0.014c6.624-5.625 15.274-9.046 24.723-9.046 10.57 0 20.14 4.281 27.071 11.205v0zM229.294 112.421c6.904 6.904 11.174 16.441 11.174 26.976 0 21.069-17.080 38.149-38.149 38.149-10.535 0-20.072-4.27-26.976-11.174v0l-114.377-118.693c-6.904-6.904-11.174-16.441-11.174-26.976 0-21.069 17.080-38.149 38.149-38.149 10.535 0 20.072 4.27 26.976 11.174v0zM135.418 204.679c6.904 6.904 11.174 16.441 11.174 26.976 0 21.069-17.080 38.149-38.149 38.149-10.535 0-20.072-4.27-26.976-11.174v0l-71.216-73.914c-6.866-6.921-11.11-16.453-11.11-26.976s4.243-20.055 11.112-26.978l-0.002 0.002c6.795-7.135 16.367-11.573 26.976-11.573s20.181 4.437 26.961 11.557l0.014 0.015zM395.465 119.975l32.371 32.371c33.054-45.705 61.424-98.066 82.614-153.958l1.55-4.659c5.49-13.021 18.149-21.994 32.903-21.994 7.918 0 15.233 2.584 21.146 6.956l-0.097-0.068 135.418 112.219c39.488 33.278 64.402 82.763 64.402 138.067 0 21.683-3.83 42.472-10.85 61.727l0.399-1.253-8.632 18.344 156.459 156.459c62.365 62.15 103.366 145.704 111.049 238.707l0.092 1.377 10.79 180.198c0.144 1.683 0.226 3.642 0.226 5.621 0 38.736-31.401 70.137-70.137 70.137-1.978 0-3.938-0.082-5.874-0.243l0.254 0.017-180.198-14.027c-94.466-7.37-178.134-48.463-240.048-111.104l-156.495-156.495-19.423 6.474c-18.049 6.681-38.896 10.546-60.647 10.546-55.271 0-104.712-24.959-137.669-64.22l-0.226-0.277-112.219-129.484c-4.696-5.847-7.537-13.358-7.537-21.533 0-14.804 9.316-27.431 22.405-32.34l0.238-0.078c60.379-22.488 112.618-51.44 159.655-86.923l-1.577 1.14-32.371-32.371c-5.532-5.719-8.942-13.521-8.942-22.12s3.409-16.401 8.95-22.129l-0.008 0.009 167.25-165.092c5.748-5.69 13.659-9.206 22.39-9.206s16.642 3.515 22.393 9.208l-0.003-0.003zM599.941 534.862c-18.998 18.95-30.752 45.156-30.752 74.106 0 57.805 46.861 104.666 104.666 104.666s104.666-46.861 104.666-104.666c0-28.951-11.754-55.156-30.75-74.104l-0.002-0.002c-18.871-19.014-45.018-30.784-73.914-30.784s-55.042 11.77-73.907 30.778l-0.006 0.007z" />
<glyph unicode="&#xe915;" glyph-name="Menu_3" d="M287.744-64h-230.4c-17.532 0-31.744 14.212-31.744 31.744v0 242.176c-0.003 0.153-0.004 0.335-0.004 0.516 0 17.919 14.383 32.478 32.233 32.764h223.771v-273.92c0.558-12.074 2.764-23.442 6.4-34.149l-0.256 0.869zM691.2 364.032v-396.288c0-17.532-14.212-31.744-31.744-31.744v0h-294.912c-17.532 0-31.744 14.212-31.744 31.744v396.288c-0.025 0.469-0.040 1.019-0.040 1.572 0 16.723 13.143 30.376 29.662 31.193l0.073 0.003h299.008c16.593-0.821 29.736-14.474 29.736-31.196 0-0.553-0.014-1.102-0.043-1.648l0.003 0.076zM998.4 160.256v-192.512c0-17.532-14.212-31.744-31.744-31.744v0h-230.912c3.752 9.52 6.15 20.535 6.649 32.043l0.007 0.213v223.744h223.744c0.152 0.003 0.332 0.004 0.512 0.004 17.532 0 31.744-14.212 31.744-31.744 0-0.001 0-0.003 0-0.004v0zM745.472 744.448l-102.4-98.304 24.576-141.312c0.456-1.932 0.717-4.151 0.717-6.431 0-10.089-5.119-18.981-12.901-24.223l-0.104-0.066c-5.94-3.239-13.010-5.144-20.524-5.144-4.74 0-9.304 0.758-13.575 2.159l0.308-0.087-124.416 67.584-125.952-64.512c-3.781-2.7-8.497-4.316-13.59-4.316-6.744 0-12.826 2.835-17.119 7.377l-0.010 0.011c-7.886 5.308-13.005 14.201-13.005 24.289 0 2.28 0.261 4.499 0.756 6.628l-0.039-0.197 24.576 141.312-102.4 95.232c-4.673 5.749-7.503 13.16-7.503 21.232 0 3.381 0.497 6.647 1.421 9.727l-0.062-0.239c3.213 11.353 12.719 19.828 24.418 21.486l0.158 0.018 141.312 21.504 59.392 125.952c5.742 9.436 15.97 15.642 27.648 15.642s21.906-6.206 27.567-15.499l0.081-0.142 64-125.952 140.8-21.504c11.857-1.676 21.363-10.151 24.525-21.295l0.051-0.209c0.499-2.176 0.785-4.675 0.785-7.241 0-9.127-3.618-17.408-9.498-23.488l0.009 0.009z" />
<glyph unicode="&#xe916;" glyph-name="Menu_4" horiz-adv-x="1020" d="M1009.664 550.4c-42.119 201.324-198.036 357.241-396.027 398.775l-3.333 0.585c-30.785 6.512-66.157 10.24-102.4 10.24s-71.615-3.728-105.754-10.823l3.354 0.583c-199.618-43.573-353.739-199.066-394.687-396.039l-0.577-3.321c-6.512-30.785-10.24-66.157-10.24-102.4s3.728-71.615 10.823-105.754l-0.583 3.354c41.889-199.868 195.904-354.912 391.879-397.716l3.385-0.62c30.785-6.512 66.157-10.24 102.4-10.24s71.615 3.728 105.754 10.823l-3.354-0.583c201.324 42.119 357.241 198.036 398.775 396.027l0.585 3.333c6.512 30.785 10.24 66.157 10.24 102.4s-3.728 71.615-10.823 105.754l0.583-3.354zM661.504 882.688c131.701-47.449 233.639-149.387 280.075-277.878l1.013-3.21h-230.912c-14.795 19.539-31.66 36.405-50.556 50.732l-0.644 0.468zM358.4 882.688v-229.888c-19.539-14.795-36.405-31.66-50.732-50.556l-0.468-0.644h-229.888c47.449 131.701 149.387 233.639 277.878 280.075l3.21 1.013zM358.4 12.288c-131.894 47.66-233.892 149.993-280.082 278.896l-1.006 3.216h229.888c14.795-19.539 31.66-36.405 50.556-50.732l0.644-0.468zM661.504 12.288v230.912c19.539 14.795 36.405 31.66 50.732 50.556l0.468 0.644h230.912c-47.66-131.894-149.993-233.892-278.896-280.082l-3.216-1.006zM610.304 268.288c-28.75-17.052-63.374-27.129-100.352-27.129s-71.602 10.077-101.277 27.635l0.925-0.506c-60.951 36.23-101.16 101.739-101.16 176.64s40.208 140.41 100.218 176.121l0.942 0.519c28.75 17.052 63.374 27.129 100.352 27.129s71.602-10.077 101.277-27.635l-0.925 0.506c60.775-35.516 100.956-100.443 100.956-174.755 0-37.279-10.112-72.196-27.743-102.158l0.514 0.945c-17.926-31.002-42.88-56.12-72.786-73.727l-0.942-0.513z" />
<glyph unicode="&#xe917;" glyph-name="Menu_5" d="M512 762.368c0.61-0.014 1.328-0.021 2.048-0.021 54.575 0 98.816 44.241 98.816 98.816s-44.241 98.816-98.816 98.816c-54.567 0-98.804-44.229-98.816-98.794v-0.001c-0.001-0.156-0.001-0.34-0.001-0.524 0-53.752 43.142-97.428 96.688-98.291l0.081-0.001zM654.336 727.552h-282.112c-26.926-1.665-48.133-23.91-48.133-51.108 0-2.561 0.188-5.078 0.551-7.539l-0.034 0.279 19.456-301.056c1.637-24.909 21.998-44.557 47.055-45.055l0.049-0.001h4.096l28.672-353.792c1.631-18.713 17.225-33.286 36.222-33.286 0.226 0 0.451 0.002 0.675 0.006h108.51c18.617 0.473 33.726 14.872 35.318 33.143l0.010 0.137 28.672 353.792h3.584c24.759 1.611 44.626 20.598 47.591 44.809l0.025 0.247 19.456 301.056c0.329 2.181 0.517 4.699 0.517 7.26 0 27.198-21.207 49.443-47.988 51.101l-0.146 0.007zM887.296 687.616h-147.456c0.365-3.149 0.574-6.798 0.574-10.496s-0.209-7.347-0.614-10.936l0.040 0.44-19.456-300.544c-1.66-22.115-11.55-41.644-26.579-55.766l-0.045-0.042 16.384-204.8c1.318-14.106 12.869-25.125 27.090-25.599l0.046-0.001h84.48c14.247 0.254 25.799 11.45 26.621 25.527l0.003 0.073 22.528 271.36h2.56c19.279 0.228 34.985 15.221 36.345 34.185l0.007 0.119 14.848 230.4c0.377 2.048 0.593 4.405 0.593 6.812 0 20.54-15.708 37.411-35.766 39.257l-0.155 0.011zM780.288 714.24c41.85 0 75.776 33.926 75.776 75.776s-33.926 75.776-75.776 75.776c-41.85 0-75.776-33.926-75.776-75.776v0c0-41.85 33.926-75.776 75.776-75.776v0zM287.744 666.624c-0.365 3.149-0.574 6.798-0.574 10.496s0.209 7.347 0.614 10.936l-0.040-0.44h-148.992c-20.601-1.433-36.769-18.495-36.769-39.335 0-2.019 0.152-4.002 0.444-5.939l-0.027 0.218 14.848-230.4c1.606-18.973 17.171-33.828 36.305-34.303l0.047-0.001h3.072l22.016-271.36c1.086-14.214 12.772-25.366 27.113-25.6h84.503c14.147 0.501 25.558 11.557 26.618 25.507l0.006 0.093 16.384 204.8c-14.909 13.824-24.648 33.043-26.098 54.534l-0.014 0.25zM247.808 714.24c41.85 0 75.776 33.926 75.776 75.776s-33.926 75.776-75.776 75.776c-41.85 0-75.776-33.926-75.776-75.776v0c0-41.85 33.926-75.776 75.776-75.776v0z" />
<glyph unicode="&#xe918;" glyph-name="Menu_6" d="M737.28 809.412c91.68-0.341 165.909-74.57 166.249-166.217v-0.032c0-219.859-284.311-460.198-391.529-526.456-107.219 66.259-391.529 306.598-391.529 526.456 0.188 91.675 74.548 165.919 166.249 165.919 52.881 0 99.996-24.69 130.445-63.171l0.265-0.348 94.569-116.856 94.569 120.471c30.714 36.923 76.672 60.256 128.079 60.256 0.925 0 1.849-0.008 2.77-0.023l-0.139 0.002zM737.28 929.882c-91.158-0.070-172.352-42.67-224.821-109.027l-0.459-0.602c-52.974 66.856-134.164 109.358-225.28 109.358-158.256 0-286.566-128.215-286.72-286.436v-0.014c0-336.715 458.993-658.372 512-658.372s512 321.656 512 658.372c-0.342 158.213-128.507 286.378-286.687 286.72h-0.033z" />
<glyph unicode="&#xe919;" glyph-name="Menu_Game_Mobile" horiz-adv-x="1032" d="M357.617 890.873c0-38.178-30.949-69.127-69.127-69.127s-69.127 30.949-69.127 69.127c0 38.178 30.949 69.127 69.127 69.127s69.127-30.949 69.127-69.127zM634.124 890.873c0-38.178-30.949-69.127-69.127-69.127s-69.127 30.949-69.127 69.127c0 38.178 30.949 69.127 69.127 69.127s69.127-30.949 69.127-69.127zM910.632 890.873c0-38.178-30.949-69.127-69.127-69.127s-69.127 30.949-69.127 69.127c0 38.178 30.949 69.127 69.127 69.127s69.127-30.949 69.127-69.127zM226.736 92.688h-85.717l43.32 133.185zM92.169-60.313l25.347 79.266h132.263l26.729-82.952 95.395 15.208-130.88 371.442h-102.769l-138.254-382.963zM775.604 321.267l-53.919-239.179-62.214 239.179h-94.934l-62.214-239.179-57.145 242.866-102.308-15.669 100.464-370.059h94.934l65.901 246.553 65.901-246.553h95.856l103.69 382.041h-94.013zM937.822 321.267h94.473v-381.581h-94.473v381.581z" />
<glyph unicode="&#xe91a;" glyph-name="Menu_Mobile" d="M0 960h227.556v-227.556h-227.556v227.556zM398.222 960h227.556v-227.556h-227.556v227.556zM0 561.778h227.556v-227.556h-227.556v227.556zM398.222 561.778h227.556v-227.556h-227.556v227.556zM796.444 960h227.556v-227.556h-227.556v227.556zM796.444 561.778h227.556v-227.556h-227.556v227.556zM0 163.556h227.556v-227.556h-227.556v227.556zM398.222 163.556h227.556v-227.556h-227.556v227.556zM796.444 163.556h227.556v-227.556h-227.556v227.556z" />
<glyph unicode="&#xe91b;" glyph-name="Notification" d="M384 44.451c9.431-61.149 61.683-107.421 124.742-107.421s115.311 46.273 124.652 106.716l0.090 0.706h-249.484zM894.138 215.273c-5.358 3.827-10.069 7.799-14.442 12.114l0.013-0.013h-740.073c-4.811-4.079-10.124-8.060-15.669-11.717l-0.622-0.385c-18.339-12.157-30.265-32.709-30.265-56.046 0-0.424 0.004-0.847 0.012-1.269l-0.001 0.063c-0.001-0.139-0.002-0.303-0.002-0.467 0-36.503 29.592-66.095 66.095-66.095 0.164 0 0.328 0.001 0.492 0.002h698.157c0.14-0.001 0.306-0.002 0.472-0.002 36.246 0 65.629 29.383 65.629 65.629 0 0.328-0.002 0.655-0.007 0.982l0.001-0.050c0.015 0.523 0.023 1.138 0.023 1.755 0 23.073-11.74 43.403-29.571 55.344l-0.241 0.152zM508.276 803.607c18.070-0.475 35.359-2.655 52.062-6.388l-1.793 0.337 13.033-2.793 27.462-10.705c93.618-34.698 159.13-123.232 159.13-227.068 0-7.235-0.318-14.396-0.941-21.469l0.065 0.916c-0.146-5.875-0.229-12.796-0.229-19.735 0-69.79 8.398-137.618 24.238-202.53l-1.202 5.829h-542.255c14.33 59.312 22.548 127.406 22.548 197.42 0 6.687-0.075 13.356-0.224 20.007l0.018-0.991c-0.531 6.013-0.834 13.008-0.834 20.074 0 104.080 65.694 192.816 157.879 227.004l1.675 0.544 27.462 10.705 12.567 2.793c14.6 3.335 31.559 5.512 48.933 6.041l0.406 0.010zM509.207 960v0c-0.415 0.006-0.905 0.009-1.396 0.009-59.896 0-108.451-48.555-108.451-108.451 0-0.003 0-0.006 0-0.010v0.001c-0.251-3.619-0.394-7.844-0.394-12.102s0.143-8.482 0.424-12.669l-0.031 0.567c-110.156-42.15-186.958-146.993-186.958-269.774 0-7.438 0.282-14.809 0.835-22.105l-0.059 0.97c0.673-10.772 1.057-23.362 1.057-36.041 0-81.724-15.944-159.724-44.891-231.059l1.477 4.118h674.909c-27.47 67.217-43.414 145.217-43.414 226.941 0 12.679 0.384 25.269 1.14 37.758l-0.083-1.717c0.51 6.42 0.801 13.9 0.801 21.449 0 122.705-76.831 227.466-185.010 268.798l-1.973 0.662c0.361 3.628 0.567 7.841 0.567 12.102s-0.206 8.474-0.609 12.63l0.041-0.528c0.001 0.138 0.001 0.302 0.001 0.465 0 59.639-48.347 107.985-107.985 107.985 0 0-0.001 0-0.001 0v0zM448.698 843.171v9.309c0 33.675 27.299 60.975 60.975 60.975s60.975-27.299 60.975-60.975v0-9.309c-17.743 4.052-38.252 6.574-59.28 6.977l-0.298 0.005c-22.224-0.245-43.721-2.775-64.443-7.367l2.072 0.386zM437.062 700.742c-41.449-25.079-71.905-64.784-84.418-111.805l-0.294-1.3c-1.43-11.607-11.23-20.506-23.108-20.506-0.385 0-0.769 0.009-1.15 0.028l0.054-0.002h-2.327c-11.563 0.336-20.808 9.79-20.808 21.402 0 1.319 0.119 2.61 0.348 3.863l-0.020-0.131c14.423 63.823 53.514 116.606 106.49 148.829l1.030 0.582c3.461 2.079 7.638 3.308 12.102 3.308 13.138 0 23.788-10.65 23.788-23.788 0-8.674-4.643-16.264-11.578-20.42l-0.108-0.060z" />
<glyph unicode="&#xe91c;" glyph-name="Profile_Menu_1" d="M458.105 852.211c89.296 0 161.684-72.388 161.684-161.684s-72.388-161.684-161.684-161.684c-89.296 0-161.684 72.388-161.684 161.684v0c0 89.296 72.388 161.684 161.684 161.684v0zM458.105 960c-148.826 0-269.474-120.647-269.474-269.474s120.647-269.474 269.474-269.474c148.826 0 269.474 120.647 269.474 269.474v0c0 148.826-120.647 269.474-269.474 269.474v0zM636.497 259.368h37.187v49.583c-61.841 36.316-136.205 57.764-215.579 57.764-237.967 0-430.906-192.784-431.158-430.692v-0.024h107.789c0 178.591 144.777 323.368 323.368 323.368v0h178.392zM997.053 205.474h-161.684v161.684h-107.789v-161.684h-161.684v-107.789h161.684v-161.684h107.789v161.684h161.684v107.789z" />
<glyph unicode="&#xe91d;" glyph-name="Profile_Menu_2" d="M343.552 960l-72.704-72.192 168.96-168.96h-439.808v-102.4h439.808l-168.96-168.448 72.704-72.192 291.84 291.84-291.84 292.352zM1024 279.552h-439.808l168.96 168.448-72.704 72.192-291.84-291.84 291.84-292.352 72.704 72.192-168.96 168.96h439.808v102.4z" />
<glyph unicode="&#xe91e;" glyph-name="Profile_Menu_3" d="M512 857.6c226.216 0 409.6-183.384 409.6-409.6s-183.384-409.6-409.6-409.6c-226.216 0-409.6 183.384-409.6 409.6v0c0 226.216 183.384 409.6 409.6 409.6v0zM512 960c-282.77 0-512-229.23-512-512s229.23-512 512-512c282.77 0 512 229.23 512 512v0c0 282.77-229.23 512-512 512v0zM644.608 488.96c26.532 25.48 43.016 61.25 43.016 100.871 0 0.538-0.003 1.075-0.009 1.611l0.001-0.082c0.001 0.152 0.001 0.333 0.001 0.513 0 78.327-63.497 141.824-141.824 141.824-0.18 0-0.361 0-0.541-0.001h-186.852v-570.368h180.736c2.009-0.080 4.368-0.125 6.738-0.125 78.491 0 145.328 49.893 170.528 119.695l0.398 1.263c5.787 17.113 9.155 36.825 9.216 57.315v0.029c-1.061 61.542-32.895 115.425-80.737 147.039l-0.671 0.417zM545.28 661.504c39.305 0 71.168-31.863 71.168-71.168s-31.863-71.168-71.168-71.168h-115.2v142.336zM647.68 303.104c-15.988-41.974-55.9-71.255-102.651-71.255-1.532 0-3.057 0.031-4.574 0.094l0.217-0.007h-111.104v216.064h115.712c58.816 0 106.496-47.68 106.496-106.496v0c0.002-0.269 0.004-0.586 0.004-0.904 0-12.495-2.063-24.509-5.866-35.719l0.231 0.783z" />
<glyph unicode="&#xe91f;" glyph-name="Profile_Menu_4" d="M737.28 809.412c91.68-0.341 165.909-74.57 166.249-166.217v-0.032c0-219.859-284.311-460.198-391.529-526.456-107.219 66.259-391.529 306.598-391.529 526.456 0.188 91.675 74.548 165.919 166.249 165.919 52.881 0 99.996-24.69 130.445-63.171l0.265-0.348 94.569-116.856 94.569 120.471c30.714 36.923 76.672 60.256 128.079 60.256 0.925 0 1.849-0.008 2.77-0.023l-0.139 0.002zM737.28 929.882c-91.158-0.070-172.352-42.67-224.821-109.027l-0.459-0.602c-52.974 66.856-134.164 109.358-225.28 109.358-158.256 0-286.566-128.215-286.72-286.436v-0.014c0-336.715 458.993-658.372 512-658.372s512 321.656 512 658.372c-0.342 158.213-128.507 286.378-286.687 286.72h-0.033z" />
<glyph unicode="&#xe920;" glyph-name="Profile_Menu_5" d="M501.248 550.4c-56.554 0-102.4-45.846-102.4-102.4s45.846-102.4 102.4-102.4c56.554 0 102.4 45.846 102.4 102.4v0c0 56.554-45.846 102.4-102.4 102.4v0zM972.8 420.352l-46.592 27.648 51.2 28.672c28.147 17.5 46.606 48.257 46.606 83.326 0 0.586-0.005 1.17-0.015 1.753l0.001-0.088c0.002 0.21 0.002 0.459 0.002 0.707 0 18.565-4.94 35.976-13.578 50.99l0.264-0.497-107.52 185.344c-17.585 30.084-49.344 50.208-85.878 51.197l-0.138 0.003c-0.21 0.002-0.459 0.002-0.707 0.002-18.565 0-35.976-4.94-50.99-13.578l0.497 0.264-49.152-29.696v54.784c0 0.004 0 0.008 0 0.012 0 54.035-43.37 97.939-97.199 98.803l-0.081 0.001h-215.040c-53.969-1.148-97.28-45.17-97.28-99.307 0-0.007 0-0.015 0-0.022v0.001-54.272l-51.2 26.624c-14.299 8.062-31.393 12.813-49.597 12.813-0.564 0-1.126-0.005-1.688-0.014l0.085 0.001c-0.011 0-0.024 0-0.037 0-36.934 0-69.086-20.475-85.724-50.694l-0.255-0.506-105.472-183.808c-8.383-13.987-13.34-30.859-13.34-48.889 0-0.813 0.010-1.623 0.030-2.431l-0.002 0.12c1.103-36.058 21.26-67.169 50.701-83.71l0.499-0.258 48.128-27.648-48.128-27.136c-30.084-17.585-50.208-49.344-51.197-85.878l-0.003-0.138c-0.002-0.21-0.002-0.459-0.002-0.707 0-18.565 4.94-35.976 13.578-50.99l-0.264 0.497 107.52-185.344c17.585-30.084 49.344-50.208 85.878-51.197l0.138-0.003c0.688-0.018 1.499-0.028 2.311-0.028 18.030 0 34.902 4.957 49.328 13.583l-0.439-0.243 49.152 29.184v-55.296c0-0.032 0-0.070 0-0.108 0-52.671 41.424-95.667 93.47-98.187l0.226-0.009h219.136c53.687 1.147 96.769 44.94 96.769 98.795 0 0.187-0.001 0.375-0.002 0.562v-0.029 54.272l51.2-27.648c14.299-8.062 31.393-12.813 49.597-12.813 0.564 0 1.126 0.005 1.688 0.014l-0.085-0.001c36.885 0.22 68.956 20.615 85.759 50.699l0.257 0.501 108.032 186.88c7.655 13.415 12.202 29.463 12.288 46.567v0.025c-0.465 37.342-21.465 69.673-52.209 86.268l-0.527 0.26zM816.128 150.528l-121.344 69.632-26.624-16.896c-7.68-4.608-15.36-9.728-23.552-13.824l-28.16-14.336v-136.704h-206.848v139.776l-30.208 13.824c-8.192 4.096-15.872 8.704-23.552 13.312l-26.624 17.408-121.344-69.632-105.472 180.224 122.88 69.632v45.056c-0.122 2.065-0.191 4.481-0.191 6.912s0.069 4.847 0.207 7.244l-0.015-0.332v31.232l-122.88 69.632 102.4 179.712 124.416-69.632 29.184 16.896c6.061 4.73 12.912 9.459 20.030 13.792l0.962 0.544 30.208 13.824v139.776h204.8v-139.776l28.16-14.336c9.216-4.682 16.923-9.274 24.304-14.308l-0.752 0.484 26.624-16.896 121.344 70.144 102.4-179.712-117.76-69.632v-31.232c0.118-2.141 0.185-4.647 0.185-7.168s-0.067-5.027-0.199-7.515l0.015 0.347c0.114-2.064 0.178-4.481 0.178-6.912s-0.065-4.847-0.192-7.247l0.014 0.335v-31.232l122.88-69.632z" />
<glyph unicode="&#xe921;" glyph-name="Profile_Menu_6" d="M107.789 825.263h538.947v107.789h-646.737v-970.105h646.737v107.789h-538.947v754.526zM738.897 755.739l-76.531-76.531 177.853-177.314h-516.851v-107.789h516.851l-177.853-177.314 76.531-76.531 307.2 307.739-307.2 307.739z" />
<glyph unicode="&#xe922;" glyph-name="Profile_No-photo" horiz-adv-x="1025" d="M329.813 527.787c0-0.127 0-0.277 0-0.427 0-100.619 81.568-182.187 182.187-182.187s182.187 81.568 182.187 182.187c0 100.619-81.567 182.186-182.186 182.187v0c0 0 0 0 0 0-100.469 0-181.943-81.325-182.186-181.737v-0.023zM637.013 527.787c0-69.043-55.97-125.013-125.013-125.013s-125.013 55.97-125.013 125.013c0 69.043 55.97 125.013 125.013 125.013v0c68.946-0.242 124.772-56.068 125.013-124.99v-0.023zM952.747 709.973c-5.237 7.405-13.766 12.18-23.41 12.18-15.788 0-28.587-12.799-28.587-28.587 0-4.591 1.082-8.928 3.005-12.772l-0.075 0.165c40.272-66.515 64.104-146.882 64.104-232.815 0-99.878-32.193-192.236-86.77-267.265l0.906 1.307c-20.040-28.355-42.079-53.103-66.585-75.164l-0.402-0.356c-43.882 124.545-160.539 212.205-297.67 212.205-139.345 0-257.55-90.514-299.026-215.954l-0.637-2.225c-106.714 84.078-174.603 213.311-174.603 358.4 0 251.365 203.772 455.137 455.137 455.137 106.276 0 204.044-36.425 281.502-97.473l-0.968 0.736c1.664-1.755 3.646-3.19 5.855-4.217l0.118-0.049c3.946-2.236 8.666-3.554 13.694-3.554 10.597 0 19.827 5.853 24.633 14.503l0.073 0.144c2.076 3.862 3.296 8.451 3.296 13.325 0 11.075-6.298 20.68-15.509 25.427l-0.16 0.075c-83.043 60.537-187.111 96.852-299.661 96.852-282.77 0-512-229.23-512-512s229.23-512 512-512c0.349 0 0.699 0 1.048 0.001h-0.054c0.251 0 0.548-0.001 0.845-0.001 282.77 0 512 229.23 512 512 0 96.692-26.803 187.123-73.384 264.27l1.286-2.296zM266.667 64c27.27 115.557 129.525 200.237 251.557 200.237 119.406 0 219.877-81.075 249.365-191.179l0.411-1.804c-71.699-49.507-160.471-79.078-256.149-79.078-91.056 0-175.856 26.783-246.953 72.9l1.769-1.075zM874.667 727.467v0 0 0zM853.333 736.853c5.313-5.771 12.901-9.376 21.331-9.387h0.002c7.235 0.024 13.824 2.774 18.797 7.275l-0.024-0.021c5.887 5.259 9.575 12.873 9.575 21.349 0 7.194-2.657 13.767-7.044 18.792l0.029-0.034c-5.547 5.973-10.667 11.947-16.64 17.493v0c-5.275 6.144-13.050 10.011-21.729 10.011-15.788 0-28.587-12.799-28.587-28.587 0-8.573 3.773-16.264 9.75-21.503l0.033-0.028c4.693-5.547 9.813-9.813 14.507-15.36z" />
<glyph unicode="&#xe923;" glyph-name="Question_Circle" d="M529.92 30.72h-119.040v-151.040h119.040zM714.24 889.6c-54.704 44.104-125.056 70.795-201.642 70.795-5.613 0-11.193-0.143-16.736-0.427l0.777 0.032c-0.051 0-0.111 0-0.172 0-115.339 0-221.447-39.521-305.521-105.76l1.053 0.8 14.080-102.4c76.397 66.395 175.642 108.299 284.551 112.612l0.889 0.028c3.347 0.183 7.265 0.287 11.206 0.287 51.021 0 97.965-17.457 135.184-46.724l-0.471 0.357c33.187-29.017 54.034-71.434 54.034-118.72 0-3.265-0.099-6.506-0.295-9.721l0.021 0.441c-0.040-49.431-19.005-94.425-50.041-128.133l0.121 0.133c-51.295-46.835-110.987-85.598-176.371-113.633l-4.109-1.567-43.52-19.2 19.2-256 67.84 19.2 12.8 185.6c48.64 25.6 88.32 47.36 119.040 67.84 32.236 20.73 60.291 43.090 85.888 67.964l-0.128-0.124c24.536 23.839 44.409 52.325 58.22 84.058l0.66 1.702c11.359 30.436 17.932 65.602 17.932 102.304 0 0.934-0.004 1.867-0.013 2.798l0.001-0.143c0.024 1.267 0.038 2.762 0.038 4.259 0 72.624-32.693 137.612-84.165 181.050l-0.354 0.291z" />
<glyph unicode="&#xe924;" glyph-name="Rating_Grey" d="M946.176 891.733h-92.843c-12.116 39.849-48.537 68.349-91.614 68.349-1.393 0-2.778-0.030-4.156-0.089l0.197 0.007h-489.472c-1.787 0.119-3.874 0.187-5.976 0.187-43.116 0-79.563-28.55-91.468-67.777l-0.177-0.677h-92.843c-24.13 0-43.691-19.561-43.691-43.691v0-180.224c0.099-12.025 5.040-22.876 12.967-30.716l0.004-0.004 123.563-124.245c2.007-46.563 23.483-87.742 56.438-115.867l0.224-0.186c55.743-75.24 128.596-134.739 212.997-173.365l3.408-1.397v-149.504h-68.267v-68.267h-37.547c-5.538 1.618-11.9 2.549-18.48 2.549-37.703 0-68.267-30.564-68.267-68.267 0-0.896 0.017-1.789 0.052-2.677l-0.004 0.128h521.557c0.030 0.76 0.048 1.652 0.048 2.549 0 37.703-30.564 68.267-68.267 68.267-6.579 0-12.941-0.931-18.962-2.668l0.482 0.119h-37.547v68.267h-68.267v149.504c87.54 40.116 160.155 99.598 214.675 173.28l1.048 1.483c33.437 28.209 55.155 69.395 57.331 115.693l0.013 0.361 124.245 124.245c7.603 7.852 12.289 18.568 12.289 30.378 0 0.12 0 0.24-0.001 0.36v-0.018 180.224c0 24.13-19.561 43.691-43.691 43.691v0zM921.6 678.059l-68.267-68.267v213.675h68.267zM102.4 823.467h68.267v-211.627l-68.267 68.267z" />
<glyph unicode="&#xe925;" glyph-name="Rating_Menu_1_Pressed" horiz-adv-x="1025" d="M765.181 383.423c-1.693 0.239-3.65 0.375-5.638 0.375s-3.944-0.136-5.86-0.4l0.222 0.025-39.463-12.813c-5.652-2.013-9.625-7.318-9.625-13.55 0-1.193 0.146-2.353 0.42-3.462l-0.021 0.099c1.297-13.057 4.566-25.036 9.519-36.097l-0.294 0.734c16.4-30.751 34.851-59.964 51.251-89.69 4.613-8.2 10.763-14.863 15.375-22.038l-16.913-26.138c-14.895-26.484-42.818-44.082-74.851-44.082-0.352 0-0.703 0.002-1.054 0.006l0.053-0.001c-4.723-0.315-10.239-0.495-15.796-0.495-15.976 0-31.605 1.486-46.756 4.326l1.563-0.244c-13.966 3.448-30 5.426-46.495 5.426-26.231 0-51.294-5.002-74.287-14.103l1.367 0.477c-51.916-19.105-96.837-44.216-137.001-75.193l1.185 0.879c-46.126-34.338-91.227-71.239-136.841-107.115l-21.013-15.375c6.15 19.988 12.813 37.926 18.45 56.376 23.576 79.952 44.589 159.904 61.502 241.393 0 8.2 5.638 9.225 11.788 9.738 38.612 2.728 73.716 15.753 103.168 36.316l-0.665-0.44c20.432 14.898 35.481 36.099 42.35 60.712l0.188 0.79c-0.049 0.766-0.076 1.661-0.076 2.563s0.028 1.797 0.082 2.684l-0.006-0.122-171.692-10.25c0-22.551-5.638-44.076-8.713-66.114 0.004-0.113 0.006-0.246 0.006-0.379 0-3.19-1.166-6.108-3.095-8.351l0.014 0.017-80.977-68.677h-2.563c6.663 27.676 12.3 55.351 19.988 82.515 18.683 75.728 47.035 142.36 84.269 202.949l-1.754-3.069c28.406 48.889 67.964 88.447 115.347 116.043l1.506 0.81c31.963 16.552 69.776 26.258 109.855 26.258 99.574 0 185.156-59.908 222.669-145.648l0.609-1.563c12.793-24.888 22.757-53.756 28.398-84.142l0.302-1.961zM888.697 504.889v0zM1016.825 127.68l-10.25 9.225c-3.309 7.071-6.292 15.433-8.496 24.107l-0.217 1.007c-4.78 27.411-7.512 58.976-7.512 91.179 0 16.072 0.681 31.986 2.015 47.713l-0.14-2.051c3.088 28.334 4.85 61.196 4.85 94.47 0 22.845-0.83 45.496-2.463 67.925l0.175-3.004c0 12.813-3.588 26.651-5.125 39.976l-98.402-13.838-2.563 20.501v3.075l-3.588 26.138 94.815 13.325c-18.197 120.474-76.029 224.982-159.554 302.063l-0.35 0.319-72.777-146.066-41.514 23.063 74.827 153.754c-88.152 64.577-280.344 79.439-280.344 79.439v-209.105l-30.238 4.1h-21.013v202.442c-49.974-3.655-96.399-12.766-140.63-26.804l4.302 1.178c-51.099-22.155-94.983-50.928-133.084-85.901l0.344 0.311 90.202-142.478-18.963-13.838-18.45-13.838-89.177 139.403c-53.894-45.349-101.106-95.815-141.818-151.344l-1.685-2.41c49.073-6.377 93.415-21.949 132.875-44.977l-1.672 0.901c41.827-23.607 76.249-55.735 101.826-94.244l0.677-1.083 12.3 9.225c26.651 20.501 51.251 41.514 79.952 61.502 28.964 22.803 63.203 40.426 100.471 50.77l2.032 0.481c23.981 5.229 51.528 8.224 79.775 8.224 1.504 0 3.006-0.008 4.506-0.025l-0.229 0.002c3.816 0.21 8.282 0.33 12.776 0.33 54.501 0 104.889-17.613 145.781-47.458l-0.703 0.489c31.665-24.614 58.12-54.171 78.632-87.755l0.808-1.423c23.615-37.747 42.752-81.416 55.105-127.85l0.759-3.354c4.249-20.78 8.85-37.975 14.318-54.779l-0.993 3.527c33.679-82.585 76.612-153.826 128.759-217.2l-1.144 1.432c7.938-9.705 16.865-18.145 26.755-25.342l0.408-0.283c5.297-3.419 11.768-5.451 18.714-5.451 14.757 0 27.372 9.172 32.455 22.127l0.082 0.237c0 10.25 0 14.35-8.2 17.938z" />
<glyph unicode="&#xe926;" glyph-name="Rating_Menu_2_Pressed" horiz-adv-x="1019" d="M509.453 960c281.363 0 509.453-228.090 509.453-509.453v0c0-6.227 0-11.887 0-18.114-136.986 3.962-292.086 196.988-339.635 273.406v3.396h-2.83c-84.909 88.305-173.214 129.061-261.519 120.57-92.629-13.602-171.231-64.67-221.187-137.033l-0.708-1.085c-48.664-55.063-78.375-127.868-78.375-207.611 0-21.477 2.155-42.451 6.261-62.717l-0.341 2.016c40.19-161.893 226.423-248.5 232.084-252.462 110.942-47.042 201.548-123.984 264.105-220.754l1.377-2.273c-32.302-7.557-69.392-11.889-107.493-11.889-0.418 0-0.837 0.001-1.255 0.002h0.065c-282.77 0-512 229.23-512 512s229.23 512 512 512v0zM613.041 657.159c-45.998 57.525-116.045 94.158-194.661 94.532h-0.063c-66.445-12.718-122.425-50.183-159.099-102.23l-0.53-0.793c-40.448-42.863-65.31-100.815-65.31-164.574 0-14.654 1.313-29.002 3.829-42.932l-0.219 1.461c30.567-125.099 187.365-199.819 187.365-199.819 132.501-55.583 239.613-149.916 309.692-268.703l1.64-3.006c161.848 64.993 280.835 206.087 313.655 377.77l0.507 3.187c-194.724 10.755-373.599 268.312-396.807 305.106z" />
<glyph unicode="&#xe927;" glyph-name="Rating_Menu_3_Pressed" d="M928 896v-896h-832v896h832zM992 960h-960v-1024h960zM864 832h-704v-192h704zM352 576h-192v-128h192zM608 576h-192v-128h192zM864 576h-192v-128h192zM352 384h-192v-128h192zM608 384h-192v-128h192zM864 384h-192v-128h192zM352 192h-192v-128h192zM608 192h-192v-128h192zM864 192h-192v-128h192z" />
<glyph unicode="&#xe928;" glyph-name="Rating_Menu_4_Pressed" horiz-adv-x="1036" d="M1035.857 421.053c0-29.765-24.129-53.895-53.895-53.895v0h-179.469c-0.192-0.002-0.418-0.004-0.644-0.004-19.182 0-36.023 10.021-45.574 25.113l-0.131 0.221-89.465 145.516-23.714-121.802 161.684-161.684c9.501-9.951 15.416-23.397 15.629-38.224v-226.4c0-29.765-24.129-53.895-53.895-53.895s-53.895 24.129-53.895 53.895v0 204.261l-115.874 115.874-83.537-133.12c-4.519-7.292-10.493-13.266-17.556-17.653l-0.229-0.133-205.339-123.419c-6.521-3.021-14.153-4.783-22.196-4.783-29.765 0-53.895 24.129-53.895 53.895 0 17.85 8.678 33.674 22.045 43.482l0.15 0.105 195.099 116.413 104.017 166.535 27.486 142.821-190.787-187.015c-8.954-6.875-20.319-11.017-32.652-11.017-29.765 0-53.895 24.129-53.895 53.895 0 12.062 3.962 23.198 10.656 32.178l-0.102-0.143 243.065 244.143c9.75 9.735 23.212 15.756 38.080 15.756 7.252 0 14.17-1.432 20.485-4.030l-0.359 0.131 112.101-45.272c10.877-4.384 19.745-11.861 25.739-21.337l0.131-0.221 97.011-156.295h149.827c29.765 0 53.895-24.129 53.895-53.895v0zM712.488 960c-59.53 0-107.789-48.259-107.789-107.789s48.259-107.789 107.789-107.789c59.53 0 107.789 48.259 107.789 107.789v0c0 59.53-48.259 107.789-107.789 107.789v0zM53.895 528.842h208.573l-53.895-53.895h-208.573l53.895 53.895zM299.116 582.737h-209.112l53.895 53.895h208.573zM406.905 690.526h-209.112l53.895 53.895h208.573z" />
<glyph unicode="&#xe929;" glyph-name="Rating_Menu_5_Pressed" d="M305.664 345.6h-102.4v51.2h102.4zM766.464 345.6h102.4v51.2h-102.4zM510.464 38.4h51.2v102.4h-51.2zM243.712 140.8l35.84-35.84 72.704 72.192-36.352 36.352zM671.744 177.152l70.656-74.24 36.352 35.84-72.192 72.704zM243.712 601.6l72.192-70.656 36.352 36.352-70.656 72.192zM561.664 704v-332.8l250.368 199.168c-51.2 50.688-120.832 133.632-250.368 133.632zM561.664 857.6h27.136c28.277 0 51.2 22.923 51.2 51.2s-22.923 51.2-51.2 51.2v0h-153.6c-28.277 0-51.2-22.923-51.2-51.2s22.923-51.2 51.2-51.2v0h75.264v-51.2h51.2zM866.304 623.104c50.581-70.189 80.895-157.914 80.895-252.72 0-240.354-194.846-435.2-435.2-435.2s-435.2 194.846-435.2 435.2c0 0.287 0 0.574 0.001 0.86v-0.045c0 0.050 0 0.109 0 0.169 0 94.482 30.322 181.881 81.766 252.998l-0.87-1.263-80.896 80.896 102.4 102.4 80.896-80.896c69.911 50.577 157.366 80.899 251.904 80.899s181.994-30.322 253.172-81.772l-1.268 0.873 80.896 80.896 102.4-102.4zM896 371.2c0 212.077-171.923 384-384 384s-384-171.923-384-384c0-212.077 171.923-384 384-384v0c212.077 0 384 171.923 384 384v0z" />
<glyph unicode="&#xe92a;" glyph-name="Rating_Menu_6_Pressed" d="M620.544 484.352c14.274 1.348 27.083 6.723 37.527 14.963l-0.151-0.115 20.992 29.696 33.792 48.128 51.2 71.68 42.496 68.608v3.584c11.264 17.92 26.624 51.2 0 66.048s-39.936 14.336-56.32-2.56l-182.272-262.144c9.030-21.191 28.945-36.137 52.532-37.876l0.204-0.012zM686.592 460.8c0-2.56 0-4.608 0-6.656-5.632-31.232 37.376-40.96 56.32-37.376 36.14 11.724 65.949 34.572 86.159 64.446l0.369 0.578c17.92 21.504 78.848 102.4 55.808 151.040-13.312 26.624-44.544 36.864-60.928 20.48zM537.088 960c-69.12 12.288-102.4-71.168-132.096-121.344l102.4-47.104c37.888 49.152 121.344 136.192 29.696 168.448zM550.912 774.144l21.504-11.264 17.408-7.68 24.576-11.776-7.168-17.408c-23.552-55.808-72.704-118.272-146.432-97.28-11.264-34.304 20.48-36.352 43.008-46.080s30.72-19.968 60.928 15.872l21.504 27.648 51.2 71.68 63.488 90.624c7.519 10.767 14.375 23.053 19.959 36.016l0.521 1.36c5.809 7.51 9.311 17.060 9.311 27.429 0 19.216-12.030 35.623-28.97 42.1l-0.309 0.104c-8.576 5.643-19.092 9.001-30.392 9.001-16.076 0-30.564-6.797-40.747-17.674l-0.029-0.031-67.072-100.864zM730.112 382.976c-47.616 3.584-74.24 9.728-76.288 66.048-22.528-3.072-73.216-8.192-92.16 30.72 5.632-28.672 27.648-191.488 0-193.024s-30.72 97.792-30.72 119.808c0.382 4.428 0.599 9.582 0.599 14.787 0 90.31-65.495 165.323-151.578 180.131l-1.085 0.154c15.721 24.358 31.057 45.229 47.51 65.144l-0.918-1.144c12.198-5.54 26.452-8.769 41.461-8.769 41.172 0 76.668 24.298 92.932 59.337l0.263 0.632-23.040 10.24-53.76 28.16-79.872 35.84-45.056 20.48-16.384 3.072c-24.576 3.072-99.84-113.152-119.296-140.8-30.18-38.942-53.86-84.678-68.394-134.321l-0.726-2.895c-4.096-55.296 54.784-117.76 84.48-168.448 35.363-47.168 65.399-101.274 87.556-159.275l1.532-4.565c5.926-40.868 9.311-88.055 9.311-136.032 0-46.638-3.198-92.528-9.386-137.465l0.587 5.209h365.056c-5.658 30.787-8.894 66.216-8.894 102.4s3.236 71.613 9.434 106.012l-0.54-3.612c13.382 38.827 42.208 69.325 78.945 84.649l0.927 0.343c30.737 24.041 51.947 59.030 57.757 99.011l0.099 0.829c9.792 34.998 18.403 77.861 24.067 121.648l0.509 4.816c-27.060-41.393-72.656-68.72-124.719-70.139l-0.209-0.005z" />
<glyph unicode="&#xe92b;" glyph-name="Rating_Star" d="M554.945 889.108l88.434-263.089c6.058-18.411 23.524-31.51 44.142-31.51 0.169 0 0.338 0.001 0.507 0.003h285.56c25.86-0.718 46.541-21.242 46.541-46.456 0-15.070-7.388-28.465-18.84-36.957l-0.116-0.083-230.416-162.265c-12.258-8.196-20.191-21.746-20.191-37.094 0-5.045 0.857-9.896 2.437-14.422l-0.096 0.316 88.434-263.089c1.622-4.43 2.56-9.54 2.56-14.862 0-25.232-21.068-45.686-47.057-45.686-10.774 0-20.702 3.515-28.634 9.428l0.112-0.080-230.416 162.265c-7.759 5.484-17.479 8.773-27.991 8.773s-20.232-3.29-28.128-8.866l0.138 0.093-229.604-162.265c-7.82-5.833-17.748-9.349-28.522-9.349-25.989 0-47.057 20.454-47.057 45.686 0 5.322 0.937 10.432 2.661 15.182l-0.101-0.32 87.623 263.089c1.488 4.254 2.347 9.154 2.347 14.248 0 15.134-7.579 28.549-19.253 36.863l-0.131 0.089-230.416 162.265c-11.556 8.575-18.936 21.963-18.936 37.024 0 25.484 21.127 46.177 47.304 46.471h283.992c0.208-0.003 0.453-0.005 0.699-0.005 20.77 0 38.397 13.064 44.639 31.19l0.096 0.322 87.623 263.089c6.85 18.059 24.418 30.705 45.028 30.705s38.179-12.647 44.921-30.383l0.107-0.322z" />
<glyph unicode="&#xe92c;" glyph-name="Search" d="M1027.84 64.358l-320 197.568c77.699 74.629 125.865 178.543 125.865 293.482 0 226.887-187.682 410.816-419.2 410.816s-419.2-183.929-419.2-410.816c0-226.887 187.682-410.816 419.2-410.816 105.952 0 202.724 38.521 276.527 102.053l-0.472-0.398 201.6-313.6zM167.040 308.339c-63.734 62.431-103.157 148.694-103.157 243.981 0 190.516 157.596 344.96 352 344.96s352-154.444 352-344.96c0-190.476-157.529-344.895-351.877-344.96h-0.006c-0.271-0.001-0.591-0.001-0.912-0.001-96.923 0-184.646 38.6-248.037 100.969l-0.011 0.011z" />
<glyph unicode="&#xe92d;" glyph-name="Share" d="M783.059 297.412c-0.070 0-0.153 0-0.237 0-53.438 0-101.458-23.195-134.541-60.067l-0.149-0.169-189.139 120.471c14.426 27.088 22.899 59.237 22.899 93.365s-8.472 66.276-23.428 94.458l0.529-1.093 189.139 114.447c33.245-37.197 81.364-60.5 134.927-60.5 99.801 0 180.706 80.905 180.706 180.706s-80.905 180.706-180.706 180.706c-99.708 0-180.555-80.754-180.706-180.426v-0.015c0-0.145-0.001-0.317-0.001-0.489 0-24.626 5.096-48.062 14.291-69.311l-0.436 1.131-190.946-120.471c-38.616 41.551-93.571 67.464-154.578 67.464-116.435 0-210.824-94.389-210.824-210.824s94.389-210.824 210.824-210.824c61.007 0 115.962 25.913 154.458 67.332l0.12 0.131 190.946-120.471c-8.51-19.534-13.579-42.268-13.853-66.155l-0.001-0.104c0-99.801 80.905-180.706 180.706-180.706s180.706 80.905 180.706 180.706c0 99.801-80.905 180.706-180.706 180.706v0zM783.059 899.765c66.534 0 120.471-53.937 120.471-120.471s-53.937-120.471-120.471-120.471c-66.534 0-120.471 53.937-120.471 120.471v0c0 66.534 53.937 120.471 120.471 120.471v0zM271.059 297.412c-83.168 0-150.588 67.421-150.588 150.588s67.421 150.588 150.588 150.588c83.168 0 150.588-67.421 150.588-150.588v0c0-83.168-67.421-150.588-150.588-150.588v0zM783.059-3.765c-66.534 0-120.471 53.937-120.471 120.471s53.937 120.471 120.471 120.471c66.534 0 120.471-53.937 120.471-120.471v0c0-66.534-53.937-120.471-120.471-120.471v0z" />
<glyph unicode="&#xe92e;" glyph-name="Social_FB" horiz-adv-x="532" d="M158.080-64v467.84h-158.080v182.080h158.080v134.080c-0.049 1.959-0.077 4.265-0.077 6.578 0 34.617 6.246 67.774 17.673 98.408l-0.636-1.946c11.301 29.522 27.948 54.704 48.944 75.504l0.016 0.016c19.763 19.807 43.822 35.319 70.663 45.018l1.337 0.422c27.908 10.144 60.121 16.009 93.705 16.009 0.807 0 1.613-0.003 2.418-0.010l-0.123 0.001c32 0 64 0 88.96-2.56 18.64-0.703 36.266-2.653 53.48-5.784l-2.28 0.344v-161.92h-96c-38.080 0-64-8.32-73.6-24.64-10.532-16.547-16.786-36.712-16.786-58.336 0-1.992 0.053-3.972 0.158-5.938l-0.012 0.274v-116.16h180.16l-24-182.080h-156.16v-467.2z" />
<glyph unicode="&#xe92f;" glyph-name="Social_Ins" d="M828.48 765.12c-10.675 10.492-25.325 16.97-41.488 16.97-0.377 0-0.753-0.004-1.128-0.011l0.056 0.001c-0.312 0.006-0.679 0.009-1.048 0.009-16.69 0-31.81-6.725-42.797-17.613l0.004 0.004c-11.049-10.311-17.936-24.958-17.936-41.214 0-0.473 0.006-0.945 0.017-1.415l-0.001 0.070c-0.008-0.364-0.013-0.792-0.013-1.222 0-16.754 6.998-31.874 18.23-42.596l0.023-0.022c10.944-11.257 26.232-18.241 43.151-18.241 0.13 0 0.259 0 0.389 0.001h-0.020c0.292-0.005 0.636-0.008 0.981-0.008 16.69 0 31.712 7.138 42.181 18.527l0.037 0.041c10.512 11.368 16.96 26.629 16.96 43.396 0 0.043 0 0.087 0 0.13v-0.007c0.008 0.358 0.012 0.779 0.012 1.202 0 16.441-6.738 31.308-17.604 41.99l-0.008 0.008zM633.6 327.040c31.429 30.858 50.908 73.794 50.908 121.28s-19.479 90.422-50.882 121.255l-0.026 0.025c-30.967 31.192-73.869 50.501-121.28 50.501s-90.313-19.308-121.27-50.491l-0.010-0.010c-31.192-30.967-50.501-73.869-50.501-121.28s19.308-90.313 50.491-121.27l0.010-0.010c30.858-31.429 73.794-50.908 121.28-50.908s90.422 19.479 121.255 50.882l0.025 0.026zM615.040 690.88c63.532-26.773 113.067-76.309 139.204-138.145l0.636-1.695c13.359-30.384 21.134-65.804 21.134-103.040s-7.775-72.656-21.79-104.725l0.656 1.685c-26.773-63.532-76.309-113.067-138.145-139.204l-1.695-0.636c-30.384-13.359-65.804-21.134-103.040-21.134s-72.656 7.775-104.725 21.79l1.685-0.656c-63.532 26.773-113.067 76.309-139.204 138.145l-0.636 1.695c-13.359 30.384-21.134 65.804-21.134 103.040s7.775 72.656 21.79 104.725l-0.656-1.685c26.773 63.532 76.309 113.067 138.145 139.204l1.695 0.636c30.384 13.359 65.804 21.134 103.040 21.134s72.656-7.775 104.725-21.79l-1.685 0.656zM649.6 958.4l72.32-2.56c25.883-0.968 50.348-3.607 74.265-7.832l-3.225 0.472c20.459-3.829 38.286-8.813 55.454-15.155l-2.334 0.755c19.467-7.973 35.88-16.34 51.513-25.861l-1.593 0.901c16.421-10.504 30.679-22.117 43.483-35.162l0.037-0.038c13.185-12.946 24.902-27.307 34.929-42.861l0.591-0.979c8.758-13.664 17.016-29.447 23.885-45.954l0.755-2.046c5.766-14.643 10.958-32.222 14.673-50.34l0.367-2.14c3.952-21.226 6.49-45.954 7.031-71.173l0.009-0.507q1.92-40.96 2.88-72.96c0-21.44 0-66.88 0-136.96s0-115.84-1.6-137.6-1.92-45.76-2.24-72.32c-1.255-26.192-4-50.628-8.191-74.566l0.511 3.526c-3.568-20.235-8.563-38.077-15.085-55.164l0.685 2.044c-8.186-19.436-16.757-35.84-26.487-51.446l0.887 1.526c-10.504-16.421-22.117-30.679-35.162-43.483l-0.038-0.037c-12.898-13.274-27.268-25-42.881-34.949l-0.959-0.571c-13.664-8.758-29.447-17.016-45.954-23.885l-2.046-0.755c-14.643-5.766-32.222-10.958-50.34-14.673l-2.14-0.367c-21.226-3.952-45.954-6.49-71.173-7.031l-0.507-0.009-72.96-2.24c-21.44 0-66.88 0-136.96 0s-115.84 0-137.6 1.6l-72.32 2.24c-26.192 1.255-50.628 4-74.566 8.191l3.526-0.511c-20.235 3.568-38.077 8.563-55.164 15.085l2.044-0.685c-18.847 8.054-34.719 16.406-49.841 25.845l1.521-0.885c-16.384 10.601-30.633 22.207-43.503 35.183l-0.017 0.017c-13.274 12.898-25 27.268-34.949 42.881l-0.571 0.959c-8.758 13.664-17.016 29.447-23.885 45.954l-0.755 2.046c-5.556 14.428-10.74 31.997-14.605 50.055l-0.435 2.425c-4.181 21.503-6.622 46.275-6.72 71.598v0.082c0 27.2-2.56 51.52-3.2 72.96s-0.96 66.88-0.96 136.96 0 115.84 1.6 137.6 1.6 45.76 2.56 72.32c0.785 25.688 3.43 50.162 7.816 74.028l-0.456-2.988c3.829 20.459 8.813 38.286 15.155 55.454l-0.755-2.334c8.054 18.847 16.406 34.719 25.845 49.841l-0.885-1.521c10.482 16.429 22.097 30.689 35.158 43.479l0.042 0.041c12.946 13.185 27.307 24.902 42.861 34.929l0.979 0.591c13.664 8.758 29.447 17.016 45.954 23.885l2.046 0.755c14.428 5.556 31.997 10.74 50.055 14.605l2.425 0.435c21.402 4.014 46.162 6.448 71.44 6.718l0.24 0.002c27.2 0 51.52 2.56 72.96 3.2s66.88 0.96 136.96 0.96 115.84 0 137.6-1.6zM376.96 866.56c-20.8-2.56-44.8-2.56-72.96-2.56-21.583-0.811-42.042-3.336-61.916-7.455l2.396 0.415c-14.241-3.133-26.437-6.877-38.207-11.474l1.727 0.594c-12.205-4.137-22.79-9.446-32.477-15.983l0.477 0.303c-10.025-6.958-18.81-14.32-26.878-22.398l-0.002-0.002c-7.716-7.717-14.671-16.197-20.741-25.315l-0.379-0.605c-6.386-9.22-11.987-19.773-16.291-30.969l-0.349-1.031c-3.604-9.673-7.025-21.571-9.611-33.778l-0.309-1.742c-3.472-17.17-5.459-36.907-5.459-57.107 0-1.186 0.007-2.37 0.021-3.553l-0.002 0.18q-1.92-41.28-2.88-72c0-20.8 0-64 0-134.080s0-114.24 0-135.040 2.88-45.12 2.88-72.96c0.63-21.444 3.163-41.915 7.441-61.736l-0.401 2.216c3.133-14.241 6.877-26.437 11.474-38.207l-0.594 1.727c4.225-12.213 9.527-22.79 16.004-32.517l-0.324 0.517c6.835-10.068 14.206-18.862 22.369-26.85l0.031-0.030c7.725-7.844 16.205-14.902 25.336-21.068l0.584-0.372c9.205-6.224 19.744-11.815 30.872-16.244l1.128-0.396c9.304-3.355 21.194-6.77 33.341-9.507l2.179-0.413c16.699-3.282 35.899-5.161 55.539-5.161 1.737 0 3.471 0.015 5.202 0.044l-0.26-0.003 72-2.88c20.8 0 64 0 134.080 0s114.24 0 135.040 1.6 45.12 1.28 72.96 1.28c21.444 0.63 41.915 3.163 61.736 7.441l-2.216-0.401c14.241 3.133 26.437 6.877 38.207 11.474l-1.727-0.594c12.213 4.225 22.79 9.527 32.517 16.004l-0.517-0.324c10.068 6.835 18.862 14.206 26.85 22.369l0.030 0.031c7.844 7.725 14.902 16.205 21.068 25.336l0.372 0.584c6.224 9.205 11.815 19.744 16.244 30.872l0.396 1.128c3.355 9.304 6.77 21.194 9.507 33.341l0.413 2.179c3.282 16.699 5.161 35.899 5.161 55.539 0 1.737-0.015 3.471-0.044 5.202l0.003-0.26q1.92 41.28 2.88 72c0 20.8 0 64 0 134.080s0 114.24-1.6 135.040-1.28 44.8-1.28 72.96c-0.811 21.583-3.336 42.042-7.455 61.916l0.415-2.396c-3.133 14.241-6.877 26.437-11.474 38.207l0.594-1.727c-4.225 12.213-9.527 22.79-16.004 32.517l0.324-0.517c-6.958 10.025-14.32 18.81-22.398 26.878l-0.002 0.002c-7.717 7.716-16.197 14.671-25.315 20.741l-0.605 0.379c-9.189 6.137-19.722 11.722-30.814 16.215l-1.186 0.425c-9.163 3.275-21.051 6.689-33.181 9.469l-2.339 0.451c-17.17 3.472-36.907 5.459-57.107 5.459-1.186 0-2.37-0.007-3.553-0.021l0.18 0.002-72 2.88c-20.8 0-65.6 0-134.080 0s-114.24 0.64-135.040-0.32z" />
<glyph unicode="&#xe930;" glyph-name="Social_OK" horiz-adv-x="615" d="M605.76 346.88c-19.531-21.388-41.978-39.658-66.816-54.307l-1.344-0.733c-26.305-17.366-57.037-30.651-89.995-38.052l-1.845-0.348c-23.95-5.967-53.856-11.362-84.302-15l-3.698-0.36 193.92-194.24c11.030-10.047 17.926-24.47 17.926-40.502 0-0.273-0.002-0.546-0.006-0.819v0.041c0.001-0.118 0.001-0.257 0.001-0.396 0-16.55-6.866-31.497-17.904-42.147l-6.097-6.097c-10.717-11.059-25.708-17.923-42.301-17.923-0.204 0-0.407 0.001-0.61 0.003h0.031c-0.432-0.013-0.939-0.020-1.449-0.020-15.729 0-29.841 6.919-39.46 17.88l-0.051 0.060-70.72 69.12-83.52 82.88-152-152c-10.568-11.070-25.44-17.952-41.92-17.952s-31.352 6.882-41.899 17.93l-0.021 0.022-7.68 6.080c-9.935 11.223-16.002 26.070-16.002 42.335 0 0.192 0.001 0.383 0.003 0.575v-0.029c-0.020 0.557-0.031 1.211-0.031 1.867 0 15.237 6.121 29.045 16.038 39.099l-0.006-0.006c19.84 20.16 43.52 43.52 70.4 70.080l83.2 81.92 40 42.24c-24 3.2-53.12 8.64-87.040 16-35.114 7.488-66.19 20.573-93.904 38.426l1.104-0.666c-26.382 15.424-48.955 33.921-68.25 55.419l-0.23 0.261c-5.948 8.758-9.497 19.565-9.497 31.2s3.548 22.442 9.622 31.396l-0.126-0.196c8.268 15.554 22.327 27.108 39.229 31.891l0.451 0.109c4.546 0.981 9.769 1.543 15.124 1.543 20.881 0 39.766-8.547 53.347-22.334l0.009-0.009c37.12-29.44 100.48-48.64 189.76-58.24 90.24 10.24 153.6 29.44 190.080 58.24 13.673 13.707 32.581 22.188 53.469 22.188 5.658 0 11.17-0.622 16.473-1.802l-0.502 0.094c16.968-5.124 30.658-16.626 38.552-31.649l0.168-0.351c5.958-8.892 9.508-19.834 9.508-31.605 0-11.565-3.428-22.33-9.322-31.334l0.134 0.218zM217.28 791.040c-23.306-22.297-37.793-53.647-37.793-88.381 0-0.991 0.012-1.98 0.035-2.965l-0.003 0.146c-0.009-0.552-0.014-1.204-0.014-1.857 0-34.491 14.63-65.566 38.023-87.357l0.072-0.066c22.675-22.55 53.933-36.489 88.447-36.489 0.518 0 1.035 0.003 1.551 0.009l-0.078-0.001c0.727-0.015 1.584-0.024 2.443-0.024 34.471 0 65.653 14.084 88.105 36.812l0.012 0.012c23.092 22.017 37.45 53.017 37.45 87.37 0 0.559-0.004 1.117-0.011 1.674l0.001-0.084c0.021 0.839 0.033 1.828 0.033 2.819 0 34.734-14.487 66.084-37.747 88.338l-0.045 0.043c-22.658 22.74-54.004 36.81-88.636 36.81-0.564 0-1.127-0.004-1.689-0.011l0.085 0.001c-0.673 0.013-1.466 0.021-2.26 0.021-34.427 0-65.565-14.085-87.965-36.806l-0.014-0.014zM206.72 462.080c-32.309 13.931-59.908 32.814-83.21 56.010l0.010-0.010c-22.937 23.031-41.774 50.167-55.309 80.206l-0.691 1.714c-12.546 29.182-19.842 63.149-19.842 98.82 0 0.359 0.001 0.717 0.002 1.075v-0.056c-0.001 0.208-0.001 0.455-0.001 0.702 0 35.889 7.294 70.075 20.481 101.156l-0.64-1.698c27.011 63.18 76.177 112.553 137.504 139.184l1.696 0.656c29.209 12.749 63.241 20.166 99.007 20.166 0.63 0 1.26-0.002 1.89-0.007l-0.097 0.001c0.607 0.005 1.325 0.008 2.044 0.008 35.789 0 69.846-7.418 100.716-20.801l-1.64 0.633c32.199-13.927 59.694-32.809 82.88-56v0c23.352-23.398 42.264-51.237 55.36-82.139l0.64-1.701c12.75-29.231 20.168-63.287 20.168-99.076 0-0.719-0.003-1.437-0.009-2.154l0.001 0.11c0.002-0.386 0.003-0.841 0.003-1.298 0-35.606-7.418-69.48-20.792-100.16l0.628 1.618c-14.103-31.798-32.957-58.952-55.993-81.913l-0.007-0.007c-23.186-23.191-50.681-42.073-81.182-55.342l-1.698-0.658c-29.231-12.75-63.287-20.168-99.076-20.168-0.719 0-1.437 0.003-2.154 0.009l0.11-0.001c-36.473 0.063-71.116 7.83-102.41 21.76l1.61-0.64z" />
<glyph unicode="&#xe931;" glyph-name="Social_Tel" d="M848.32 708.48c0 9.92-10.24 9.92-30.080 0l-536-356.16c5.12-15.36 11.2-34.56 17.92-57.92l19.84-71.36c7.040-24.32 13.76-47.68 20.48-69.76s11.2-40.32 15.040-52.8c2.804-5.729 8.59-9.605 15.282-9.605 0.14 0 0.279 0.002 0.419 0.005h-0.021c6.080 0 9.6 4.8 10.24 13.44l22.080 188.16c9.28 9.28 36.48 34.24 80.96 74.88l143.040 131.52q76.48 69.44 140.48 125.12l69.12 64c5.216 5.593 9.106 12.492 11.126 20.15l0.074 0.33zM950.080 874.56c49.28 11.84 73.92 5.44 73.92-22.080l-162.24-816c-12.377-20.947-34.842-34.776-60.538-34.776-9.071 0-17.74 1.724-25.697 4.861l0.475-0.165-228.16 174.080-144-142.080c-7.593-5.020-16.912-8.008-26.929-8.008-0.32 0-0.64 0.003-0.959 0.009l0.048-0.001h-4.16c-4.571 2.619-8.261 6.309-10.806 10.74l-0.074 0.14c-5.952 11.104-10.993 23.991-14.457 37.509l-0.263 1.211c-2.88 9.28-7.68 26.56-15.040 51.2s-14.4 51.52-23.040 80.32-16.96 57.6-24.96 85.44-14.4 48.32-18.88 64l-226.24 75.52c-23.36 12.48-35.84 25.92-38.080 40s11.2 27.84 40 41.92z" />
<glyph unicode="&#xe932;" glyph-name="Social_Tw" d="M976.64 706.88c16.683 17.772 32.248 37.097 46.289 57.549l1.071 1.651c-16.58-8.25-36.134-15.777-56.446-21.495l-2.434-0.585c-16.733-4.706-37.43-8.959-58.555-11.871l-2.565-0.289c21.8 13.789 40.314 30.47 55.653 49.787l0.347 0.453c15.281 18.726 27.575 40.62 35.72 64.438l0.44 1.482c-18.273-11.623-39.345-22.374-61.436-31.106l-2.564-0.894c-19.599-7.57-43.098-14.319-67.314-19.068l-2.766-0.452c-19.201 20.157-41.876 36.796-67.098 48.997l-1.382 0.603c-24.823 11.323-53.84 17.923-84.399 17.923-0.366 0-0.732-0.001-1.098-0.003h0.056c-0.404 0.003-0.882 0.005-1.361 0.005-29.264 0-57.069-6.245-82.155-17.475l1.276 0.51c-25.811-11.122-47.879-26.114-66.59-44.51l0.030 0.030c-18.451-18.808-33.712-40.828-44.853-65.13l-0.587-1.43c-10.121-24.129-16-52.17-16-81.585 0-0.118 0-0.236 0-0.353v0.018c-0.228-3.587-0.357-7.778-0.357-12s0.13-8.413 0.386-12.57l-0.028 0.57c1.201-9.356 2.771-17.497 4.794-25.456l-0.314 1.456c-46.379 2.031-90.192 9.145-132.107 20.816l4.107-0.976c-43.569 13.016-81.114 28.677-116.587 47.7l3.307-1.62c-39.219 20.388-72.975 42.595-104.214 67.797l1.174-0.917c-31.972 26.133-60.208 54.673-85.209 85.913l-0.871 1.127c-8.626-14.586-16.127-31.443-21.626-49.18l-0.454-1.7c-5.073-16.82-7.994-36.149-7.994-56.16 0-36.536 9.735-70.798 26.751-100.335l-0.518 0.975c16.539-30.153 39.458-54.914 67.077-73.127l0.763-0.473c-0.392-0.003-0.855-0.005-1.319-0.005-17.215 0-33.829 2.575-49.478 7.36l1.197-0.315c-17.018 5.154-31.756 11.569-45.554 19.445l1.074-0.565v-3.84c-0.006-0.579-0.009-1.263-0.009-1.948 0-50.134 18.156-96.027 48.251-131.463l-0.241 0.291c29.676-36.764 71.182-62.929 118.67-72.73l1.33-0.23c-9.28-1.92-18.56-3.52-27.52-4.48-8.526-1-18.423-1.581-28.453-1.6h-20.507c-7.135 0.467-13.79 1.721-20.134 3.684l0.614-0.164c14.732-42.268 40.834-77.456 74.65-102.963l0.55-0.397c32.912-25.752 74.894-41.294 120.506-41.294 0.835 0 1.668 0.005 2.5 0.016l-0.127-0.001c-34.056-28.505-73.887-51.531-117.304-67.002l-2.696-0.838c-41.46-14.605-89.267-23.042-139.045-23.042-0.505 0-1.009 0.001-1.513 0.003h-24.882l-26.56 2.24c20.813-13.98 44.755-27.336 69.788-38.71l3.172-1.29c21.765-10.746 47.758-20.97 74.658-29.107l3.742-0.973c23.376-7.258 51.613-13.522 80.557-17.58l2.963-0.34c25.774-3.871 55.518-6.081 85.778-6.081 0.444 0 0.887 0 1.331 0.001h-0.069c3.589-0.080 7.819-0.126 12.059-0.126 88.565 0 172.461 19.988 247.423 55.699l-3.482-1.493c140.515 67.726 248.162 185.039 301.702 328.703l1.338 4.097c24.179 62.679 38.447 135.186 39.038 210.949l0.002 0.251v25.92c20.804 16.082 39.296 32.749 56.464 50.694l0.176 0.186z" />
<glyph unicode="&#xe933;" glyph-name="Social_VK" d="M1012.16 216.96c7.1-9.675 11.487-21.733 11.838-34.797l0.002-0.083c-3.84-28.8-32-39.36-81.92-32-14.162 3.298-30.424 5.188-47.128 5.188-22.458 0-44.117-3.417-64.487-9.76l1.535 0.412h-3.84c-26.026 5.22-48.842 16.451-67.766 32.199l0.246-0.199c-18.535 14.961-35.067 30.783-50.183 47.885l-0.377 0.435c-11.118 11.57-21.609 23.99-31.276 37.055l-0.724 1.025c-7.482 12.166-20.721 20.155-35.827 20.155-1.809 0-3.592-0.115-5.34-0.337l0.208 0.022c-22.080-3.2-32-18.88-30.080-47.36 0.635-4.415 0.997-9.513 0.997-14.696 0-19.008-4.874-36.877-13.441-52.426l0.284 0.562c-7.36-13.12-24-20.16-49.92-20.48s-49.92 0-72 2.56c-62.22 4.387-118.504 26.67-164.6 61.674l0.76-0.554c-39.864 32.009-75.018 66.96-106.191 105.28l-1.009 1.28c-2.874 2.887-5.503 6.023-7.849 9.373l-0.151 0.227-5.76 8.32-3.2 3.52v2.56l-7.040 8-3.84 7.040-3.2 3.52v2.24l-4.8 6.72-6.080 6.4h-2.56v2.56c-2.071 3.006-4.095 6.465-5.864 10.072l-0.216 0.488c-1.997 3.558-4.008 6.59-6.216 9.464l0.136-0.184c-1.946 3.676-3.962 6.817-6.207 9.775l0.127-0.175-5.76 8.32-5.44 5.12v2.56l-5.12 7.040-4.8 7.040v6.080l-5.12 7.040-5.12 6.72v6.080c-11.84 20.16-23.68 40.64-34.88 61.44s-22.4 42.56-32 64q-16.64 24.64-28.8 50.56c-7.679 16.265-12.161 35.333-12.161 55.447 0 0.195 0 0.389 0.001 0.583v-0.030c10.763 7.876 24.263 12.602 38.867 12.602 1.412 0 2.813-0.044 4.203-0.131l-0.19 0.010h53.12c16 0 34.24 0 55.040 0 3.741 0.517 8.064 0.811 12.455 0.811 13.166 0 25.713-2.65 37.137-7.447l-0.632 0.236c8.68-7.043 15.235-16.388 18.763-27.108l0.117-0.412c6.877-15.655 13.296-28.26 20.302-40.486l-1.102 2.086c8.448-20.816 16.926-38.075 26.436-54.668l-1.156 2.188 26.56-45.76 3.52-4.48 2.56-3.52v-5.76l4.48-4.48 2.56-5.12 5.12-4.48 1.92-1.92 3.52-5.12 2.56-5.12 25.28-32c5.51-10.117 16.065-16.867 28.196-16.867 1.341 0 2.662 0.082 3.96 0.243l-0.155-0.016c11.84 1.92 19.2 14.4 22.080 37.12 2.285 18.089 3.675 39.189 3.839 60.581l0.001 0.219v4.8c0 21.44 0 42.24 0 64-0.296 17.133-4.277 33.266-11.18 47.738l0.3-0.698c-4.693 9.238-12.714 16.218-22.446 19.442l-0.274 0.078c-11.221 3.566-20.984 8.461-29.788 14.631l0.348-0.231c10.084 16.872 27.298 28.588 47.374 31.010l0.306 0.030c21.118 3.879 45.421 6.097 70.241 6.097 1.294 0 2.586-0.006 3.877-0.018l-0.197 0.001q36.16 0 78.72-1.92c1.566 0.136 3.389 0.214 5.229 0.214 20.251 0 38.304-9.405 50.032-24.086l0.099-0.128c7.417-13.972 11.772-30.548 11.772-48.142 0-5.597-0.441-11.092-1.29-16.451l0.077 0.592c-2.837-21.415-4.465-46.189-4.48-71.341v-0.019l-1.92-7.040v-37.76l-2.24-1.92v-9.92l2.24-2.24v-21.76h1.92v-7.36l1.92-2.24v-4.48l1.92-1.92v-4.16h2.24v-3.84h1.92v-1.6l1.92-1.92v-2.56l8-8h1.92v-1.92h2.56l1.6-1.6c13.029 1.853 24.227 8.535 31.924 18.142l0.076 0.098q12.16 15.040 22.080 29.76l3.2 5.12 2.56 2.88 2.24 2.24 1.92 3.84 2.56 3.2v2.56h1.6v4.16l1.92 1.92 3.52 4.48 2.56 5.44 5.76 5.12v2.56l3.2 3.52v2.56c8 13.12 15.68 27.2 23.040 41.28s15.040 30.080 23.040 46.72q7.68 16.64 17.28 40.32c6.4 15.68 13.76 24.96 22.72 27.52 12.647 4.843 27.277 7.649 42.561 7.649 5.301 0 10.523-0.337 15.646-0.992l-0.607 0.063c21.44-1.92 42.56-2.56 64-2.56h64c24.32 0 39.36-5.12 45.44-16.96 0.902-3.966 1.419-8.521 1.419-13.196 0-11.528-3.142-22.322-8.616-31.572l0.158 0.288c-8.64-19.84-15.040-32-18.88-39.68-13.44-19.84-26.56-38.080-39.68-54.4s-25.92-32-38.4-49.6l-2.56-3.52-1.6-2.56-1.92-1.92h-2.56v-6.72l-6.080-6.080-9.6-4.16-25.92-35.52c-8.791-11.175-14.099-25.45-14.099-40.964 0-0.561 0.007-1.12 0.021-1.678l-0.002 0.083c1.43-11.72 6.925-21.946 15.008-29.411l0.032-0.029 24.96-24.64c19.2-17.92 36.16-33.92 50.56-48.32 15.302-15.638 29.576-32.449 42.613-50.224l0.907-1.296c6.080-7.36 13.12-17.6 22.080-31.040z" />
</font>
</defs>
</svg>
