<svg xmlns="http://www.w3.org/2000/svg" xmlns:xlink="http://www.w3.org/1999/xlink" viewBox="0 0 52 52"><defs><style>.cls-1{opacity:0.15;}.cls-2{fill:url(#Безымянный_градиент_7);}.cls-3{fill:url(#Безымянный_градиент_7-2);}.cls-4{fill:url(#Безымянный_градиент_7-3);}</style><linearGradient id="Безымянный_градиент_7" x1="5.86" y1="34.14" x2="34.14" y2="5.86" gradientUnits="userSpaceOnUse"><stop offset="0" stop-color="#b454ff"/><stop offset="1" stop-color="#f80"/></linearGradient><linearGradient id="Безымянный_градиент_7-2" x1="10.66" y1="29.34" x2="28.34" y2="11.66" xlink:href="#Безымянный_градиент_7"/><linearGradient id="Безымянный_градиент_7-3" x1="8.58" y1="30.07" x2="31.08" y2="7.57" xlink:href="#Безымянный_градиент_7"/><symbol id="Новый_символ_26" data-name="Новый символ 26" viewBox="0 0 40 40"><g class="cls-1"><circle class="cls-2" cx="20" cy="20" r="20"/></g><g class="cls-1"><circle class="cls-3" cx="19.5" cy="20.5" r="12.5"/></g><path class="cls-4" d="M31,28.74c0,2.67-5.9,4.11-11.48,4.11S8.05,31.41,8.05,28.74c0-1.71,2.71-3.16,7-3.79v3.7A2.39,2.39,0,0,0,17.43,31h4.09A2.43,2.43,0,0,0,24,28.65V25C28.29,25.58,31,27,31,28.74ZM9.75,8.63a.48.48,0,0,1,.45.45.48.48,0,0,1-.45.45.43.43,0,0,1-.45-.45A.47.47,0,0,1,9.75,8.63Zm0,1.39a.45.45,0,0,1,.45.46.48.48,0,0,1-.45.45.46.46,0,0,1,0-.91Zm0,5.55a.46.46,0,0,1,.45.46.45.45,0,0,1-.45.45A.43.43,0,0,1,9.3,16,.43.43,0,0,1,9.75,15.57Zm0,1.4a.46.46,0,0,1,0,.91.46.46,0,0,1,0-.91ZM9.3,14.63a.45.45,0,1,1,.45.45A.45.45,0,0,1,9.3,14.63Zm0-2.76a.45.45,0,1,1,.45.46A.45.45,0,0,1,9.3,11.87Zm0,1.4a.45.45,0,1,1,.45.45A.45.45,0,0,1,9.3,13.27Zm0,5.55a.45.45,0,0,1,.9,0,.45.45,0,1,1-.9,0Zm0,1.36a.45.45,0,1,1,.45.45A.45.45,0,0,1,9.3,20.18Zm.45.95a.49.49,0,0,1,.32.13.41.41,0,0,1,.13.32c0,.13-.09.22-.13.31a.44.44,0,0,1-.63,0,.41.41,0,0,1-.14-.31.42.42,0,0,1,.14-.32C9.48,21.17,9.62,21.13,9.75,21.13ZM11.6,10.2,9.71,8.31,7.81,10.2a.42.42,0,0,1-.63,0,.43.43,0,0,1,0-.63L9.44,7.41h0a.44.44,0,0,1,.63,0h0l2.21,2.16a.43.43,0,0,1,0,.63A.48.48,0,0,1,11.6,10.2Zm5.15-3.06a3.39,3.39,0,1,1,3.38,3.43A3.41,3.41,0,0,1,16.75,7.14Zm13.31,13a.45.45,0,1,1,.45.45A.45.45,0,0,1,30.06,20.18Zm0-8.31a.45.45,0,1,1,.45.46A.45.45,0,0,1,30.06,11.87Zm.45,5.1a.46.46,0,1,1-.45.46A.46.46,0,0,1,30.51,17Zm0-1.4A.46.46,0,0,1,31,16a.45.45,0,0,1-.45.45.45.45,0,0,1-.45-.45A.46.46,0,0,1,30.51,15.57Zm0-5.55a.45.45,0,0,1,.45.46.48.48,0,0,1-.45.45.46.46,0,0,1,0-.91Zm-.45,8.8a.45.45,0,1,1,.9,0,.45.45,0,1,1-.9,0Zm.45,2.31a.44.44,0,0,1,.45.45.4.4,0,0,1-.13.31.44.44,0,0,1-.63,0,.41.41,0,0,1-.14-.31.63.63,0,0,1,.14-.32A.47.47,0,0,1,30.51,21.13Zm0-12.5a.48.48,0,0,1,.45.45.48.48,0,0,1-.45.45.45.45,0,0,1-.45-.45A.48.48,0,0,1,30.51,8.63ZM25,13.57v9a.44.44,0,0,1-.4.46H23v5.56A1.45,1.45,0,0,1,21.56,30h-4.1A1.47,1.47,0,0,1,16,28.51V23H14.45a.46.46,0,0,1-.45-.47V13.61c0-2,1.35-3.61,3-3.61H22C23.65,10,25,11.6,25,13.57Zm8-3.37a.42.42,0,0,1-.63,0l-1.9-1.89L28.62,10.2A.45.45,0,0,1,28,9.57l2.25-2.16h0a.44.44,0,0,1,.63,0h0l2.21,2.16A.4.4,0,0,1,33,10.2Zm-3,3.07a.45.45,0,1,1,.45.45A.45.45,0,0,1,30.06,13.27Zm0,1.36a.45.45,0,1,1,.45.45A.45.45,0,0,1,30.06,14.63Z"/></symbol></defs><title>Ресурс 6</title><g id="Слой_2" data-name="Слой 2"><g id="Слой_1-2" data-name="Слой 1"><use width="40" height="40" transform="scale(1.3 1.3)" xlink:href="#Новый_символ_26"/></g></g></svg>