<svg xmlns="http://www.w3.org/2000/svg" xmlns:xlink="http://www.w3.org/1999/xlink" viewBox="0 0 52 52"><defs><style>.cls-1{opacity:0.15;}.cls-2{fill:url(#Безымянный_градиент_7);}.cls-3{fill:url(#Безымянный_градиент_7-2);}.cls-4{fill:url(#Безымянный_градиент_7-3);}</style><linearGradient id="Безымянный_градиент_7" y1="20" x2="40" y2="20" gradientUnits="userSpaceOnUse"><stop offset="0" stop-color="#b454ff"/><stop offset="1" stop-color="#f80"/></linearGradient><linearGradient id="Безымянный_градиент_7-2" x1="8" y1="20.5" x2="33" y2="20.5" xlink:href="#Безымянный_градиент_7"/><linearGradient id="Безымянный_градиент_7-3" x1="8.18" y1="29.53" x2="32.47" y2="5.24" xlink:href="#Безымянный_градиент_7"/><symbol id="Новый_символ_28" data-name="Новый символ 28" viewBox="0 0 40 40"><g class="cls-1"><circle class="cls-2" cx="20" cy="20" r="20"/></g><g class="cls-1"><circle class="cls-3" cx="20.5" cy="20.5" r="12.5"/></g><path class="cls-4" d="M27.87,10.82C26,8.24,25.44,8.24,25.26,8.24a.59.59,0,0,0-.58.5,4.39,4.39,0,0,1-2.4,3.7l-.32.21c-.58-3.55-5-6.56-5.24-6.7a.54.54,0,0,0-.82.35s-1,5.31-4.63,8.4c-3,2.58-4.59,5.41-4.73,8.39a10.91,10.91,0,0,0,2.61,7.39,11.35,11.35,0,0,0,7.28,3.44c0-.18.11-1.72.11-1.72-.07-.79-.18-2.16-.25-2.8a.12.12,0,0,0-.21-.07c-.72.86-1.47,1.65-2.73,1.22-1.61-.54-2.76-2.44-3.44-3.88a3.93,3.93,0,0,1-.61-2,1.67,1.67,0,0,1,1.33-1.54,1.69,1.69,0,0,1,1.43,2.94c.43.43.86,1,1.33,1.36a.22.22,0,0,0,.28,0,16.48,16.48,0,0,1,2.73-3.7,5.13,5.13,0,0,1,1.61-1c.11,0,.22,0,.33-.07a3.63,3.63,0,0,1-2.16-3.37,3.69,3.69,0,0,1,4.13-3.66,3.67,3.67,0,0,1,1.07,7c.11,0,.18,0,.29.07a4.85,4.85,0,0,1,1.61,1A16.34,16.34,0,0,1,26,27.39a.19.19,0,0,0,.29,0,17,17,0,0,0,1.32-1.37,1.69,1.69,0,1,1,2.77-1.39,5,5,0,0,1-.61,2C29.09,28.07,28,30,26.33,30.51c-1.22.4-2-.36-2.65-1.15a.15.15,0,0,0-.25.08c0,.75-.07,2.11-.15,2.68,0,0,0,.29.08.65,0,.18.07.9.07,1.08a11.54,11.54,0,0,0,7.28-3.41l0,0c3.73-4.12,2.37-9.75.58-13.8A32.6,32.6,0,0,0,27.87,10.82Zm-18.16,4h0c.18,0,.29-.1.29-.25v-.1a9.47,9.47,0,0,1-.07-3.05A3,3,0,0,0,9.35,9,3.39,3.39,0,0,0,6.81,8H6.59a.22.22,0,0,0-.21.18.28.28,0,0,0,.07.29c.43.46.32,1.11.18,1.93a8.62,8.62,0,0,0-.14,1.72C6.59,14,8.64,14.71,9.71,14.81ZM34.35,7.17A.21.21,0,0,0,34.14,7h-.28a2.81,2.81,0,0,0-2.05.8,3.22,3.22,0,0,0-.74,2.41,5.76,5.76,0,0,1-.28,2.41.33.33,0,0,0,0,.24A.25.25,0,0,0,31,13h.32A2.49,2.49,0,0,0,34,11a8.16,8.16,0,0,0,0-1.64,2.34,2.34,0,0,1,.32-1.89A.25.25,0,0,0,34.35,7.17ZM12.17,9.71a.25.25,0,0,0,.14.22.15.15,0,0,0,.11,0s.11,0,.14,0c.86-.58,2.26-2.12,1.29-3.81a7.21,7.21,0,0,0-1-1.32c-.54-.58-1-1.11-.93-1.69a.33.33,0,0,0-.11-.25.28.28,0,0,0-.28,0,3.25,3.25,0,0,0-1.37,2A3.17,3.17,0,0,0,11,7.38,4.42,4.42,0,0,1,12.17,9.71ZM23.64,9h.07A.28.28,0,0,0,24,8.75V8.68a8.46,8.46,0,0,1,.47-2.33,2.88,2.88,0,0,0-.15-2.51,4,4,0,0,0-1.83-1.58.51.51,0,0,0-.21,0,.21.21,0,0,0-.11.18,4.63,4.63,0,0,1-.57,2,3.44,3.44,0,0,0-.5,1.39C20.81,8.1,23.53,9,23.64,9Z"/></symbol></defs><title>Ресурс 8</title><g id="Слой_2" data-name="Слой 2"><g id="Слой_1-2" data-name="Слой 1"><use width="40" height="40" transform="scale(1.3)" xlink:href="#Новый_символ_28"/></g></g></svg>