<svg xmlns="http://www.w3.org/2000/svg" xmlns:xlink="http://www.w3.org/1999/xlink" viewBox="0 0 52 52"><defs><style>.cls-1{opacity:0.15;}.cls-2{fill:url(#Безымянный_градиент_7);}.cls-3{fill:url(#Безымянный_градиент_7-2);}.cls-4{fill:url(#Безымянный_градиент_7-3);}</style><linearGradient id="Безымянный_градиент_7" y1="20" x2="40" y2="20" gradientUnits="userSpaceOnUse"><stop offset="0" stop-color="#b454ff"/><stop offset="1" stop-color="#f80"/></linearGradient><linearGradient id="Безымянный_градиент_7-2" x1="8" y1="20.5" x2="33" y2="20.5" xlink:href="#Безымянный_градиент_7"/><linearGradient id="Безымянный_градиент_7-3" x1="8.78" y1="28.25" x2="31.49" y2="5.53" xlink:href="#Безымянный_градиент_7"/><symbol id="Новый_символ_29" data-name="Новый символ 29" viewBox="0 0 40 40"><g class="cls-1"><circle class="cls-2" cx="20" cy="20" r="20"/></g><g class="cls-1"><circle class="cls-3" cx="20.5" cy="20.5" r="12.5"/></g><path class="cls-4" d="M20.36,33.82a.64.64,0,0,1-.23,0,.59.59,0,0,1-.22,0C5.94,27.77,8.29,11.25,8.32,11.08a.55.55,0,0,1,.5-.47A21.15,21.15,0,0,0,19.76,6.05a.55.55,0,0,1,.74,0,21.25,21.25,0,0,0,10.94,4.56.55.55,0,0,1,.51.47c0,.17,2.37,16.69-11.59,22.74M34.69,8.74A29.37,29.37,0,0,1,20.13,2.67,29.28,29.28,0,0,1,5.57,8.74,35.58,35.58,0,0,0,6.27,20c1.89,8.22,6.56,14,13.86,17.27C27.44,34,32.1,28.17,34,20a35.47,35.47,0,0,0,.69-11.21M23.89,16l-4.56,4.47a.57.57,0,0,1-.79,0l-1.95-1.9a1.16,1.16,0,0,0-1.64,0,1.16,1.16,0,0,0,0,1.64l3.16,3.07a1.18,1.18,0,0,0,1.62,0l5.77-5.65a1.16,1.16,0,0,0,.35-.81,1.17,1.17,0,0,0-.34-.83,1.16,1.16,0,0,0-1.64,0m2.41,2.46-5.76,5.64a2.28,2.28,0,0,1-1.6.65,2.25,2.25,0,0,1-1.59-.64L14.19,21a2.28,2.28,0,1,1,3.18-3.28l1.56,1.52,4.18-4.09a2.28,2.28,0,1,1,3.19,3.27M20.13,7.19A22.06,22.06,0,0,1,9.38,11.68c-.26,2.55-1,15.77,10.75,21,11.72-5.24,11-18.46,10.76-21A22.11,22.11,0,0,1,20.13,7.19"/></symbol></defs><title>Ресурс 9</title><g id="Слой_2" data-name="Слой 2"><g id="Слой_1-2" data-name="Слой 1"><use id="Новый_символ_29-3" data-name="Новый символ 29" width="40" height="40" transform="scale(1.3)" xlink:href="#Новый_символ_29"/></g></g></svg>