<svg xmlns="http://www.w3.org/2000/svg" xmlns:xlink="http://www.w3.org/1999/xlink" viewBox="0 0 20 20"><defs><style>.cls-1{fill:#71777d;opacity:0;}.cls-2{fill:#d0d2d4;}</style><symbol id="Profile_Menu_4" data-name="Profile_Menu_4" viewBox="0 0 20 20"><rect class="cls-1" width="20" height="20"/><path class="cls-2" d="M13.74,4.66A2.77,2.77,0,0,1,16.5,7.42c0,3.65-4.72,7.64-6.5,8.74-1.78-1.1-6.5-5.09-6.5-8.74A2.76,2.76,0,0,1,8.43,5.71L10,7.7l1.57-2a2.78,2.78,0,0,1,2.17-1m0-2A4.78,4.78,0,0,0,10,4.47a4.76,4.76,0,0,0-8.5,3C1.5,13,9.12,18.34,10,18.34S18.5,13,18.5,7.42a4.76,4.76,0,0,0-4.76-4.76Z"/></symbol></defs><title>Profile_Menu_4</title><g id="Слой_2" data-name="Слой 2"><g id="Слой_1-2" data-name="Слой 1"><use width="20" height="20" xlink:href="#Profile_Menu_4"/></g></g></svg>