<svg xmlns="http://www.w3.org/2000/svg" xmlns:xlink="http://www.w3.org/1999/xlink" viewBox="0 0 20 20"><defs><style>.cls-1,.cls-2{fill:#a0a4a8;}.cls-1{opacity:0;}</style><symbol id="Profile_Menu_1_Pressed" data-name="Profile_Menu_1_Pressed" viewBox="0 0 20 20"><rect class="cls-1" width="20" height="20"/><path class="cls-2" d="M10,2A3,3,0,1,1,7,5a3,3,0,0,1,3-3m0-2a5,5,0,1,0,5,5A5,5,0,0,0,10,0Z"/><path class="cls-2" d="M13.31,13H14v-.92A8,8,0,0,0,2,19H4a6,6,0,0,1,6-6h3.31Z"/><polygon class="cls-2" points="20 14 17 14 17 11 15 11 15 14 12 14 12 16 15 16 15 19 17 19 17 16 20 16 20 14"/></symbol></defs><title>Profile_Menu_1_Pressed</title><g id="Слой_2" data-name="Слой 2"><g id="Слой_1-2" data-name="Слой 1"><use width="20" height="20" xlink:href="#Profile_Menu_1_Pressed"/></g></g></svg>