<svg xmlns="http://www.w3.org/2000/svg" xmlns:xlink="http://www.w3.org/1999/xlink" viewBox="0 0 20 20"><defs><style>.cls-1{fill:#71777d;opacity:0;}.cls-2{fill:#d0d2d4;}</style><symbol id="Profile_Menu_3" data-name="Profile_Menu_3" viewBox="0 0 20 20"><rect class="cls-1" width="20" height="20"/><path class="cls-2" d="M10,2a8,8,0,1,1-8,8,8,8,0,0,1,8-8m0-2A10,10,0,1,0,20,10,10,10,0,0,0,10,0Z"/><path class="cls-2" d="M12.59,9.2a2.73,2.73,0,0,0,.84-2,2.77,2.77,0,0,0-2.78-2.78H7V15.56h3.53A3.54,3.54,0,0,0,14,13.2a3.64,3.64,0,0,0,.18-1.12A3.51,3.51,0,0,0,12.59,9.2ZM10.65,5.83a1.39,1.39,0,0,1,0,2.78h0l-2.25,0V5.83Zm2,7a2.14,2.14,0,0,1-2.09,1.39H8.39V10l2.26,0a2.08,2.08,0,0,1,2.08,2.08A2.17,2.17,0,0,1,12.62,12.78Z"/></symbol></defs><title>Profile_Menu_3</title><g id="Слой_2" data-name="Слой 2"><g id="Слой_1-2" data-name="Слой 1"><use width="20" height="20" xlink:href="#Profile_Menu_3"/></g></g></svg>