<svg xmlns="http://www.w3.org/2000/svg" xmlns:xlink="http://www.w3.org/1999/xlink" viewBox="0 0 20 20"><defs><style>.cls-1{fill:#71777d;opacity:0;}.cls-2{fill:none;stroke:#d0d2d4;stroke-miterlimit:10;stroke-width:2px;}.cls-3{fill:#d0d2d4;}</style><symbol id="Profile_Menu_5" data-name="Profile_Menu_5" viewBox="0 0 20 20"><rect class="cls-1" width="20" height="20"/><path class="cls-2" d="M20,13.27"/><ellipse class="cls-3" cx="9.79" cy="9.97" rx="2.01" ry="2"/><path class="cls-2" d="M12.1,19H7.9A.94.94,0,0,1,7,18.06V15.88a4.48,4.48,0,0,1-.56-.32L4.51,16.65a.93.93,0,0,1-1.28-.34l-2.1-3.62a.93.93,0,0,1,.34-1.28h0l1.9-1.09c0-.11,0-.21,0-.32s0-.21,0-.32L1.47,8.59a.93.93,0,0,1-.35-1.27h0l2.1-3.62a.94.94,0,0,1,1.28-.34L6.4,4.44,7,4.12V1.94A.94.94,0,0,1,7.9,1h4.2a.94.94,0,0,1,.94.94V4.12a4.48,4.48,0,0,1,.56.32l1.89-1.09a.93.93,0,0,1,1.28.34l2.1,3.62a.93.93,0,0,1-.34,1.28h0l-1.9,1.09c0,.1,0,.21,0,.32s0,.21,0,.31l1.9,1.09a.93.93,0,0,1,.34,1.28h0l-2.1,3.62a1,1,0,0,1-1.28.35L13.6,15.56l-.56.32v2.18a.93.93,0,0,1-.94.94Zm6.65-6.18"/></symbol></defs><title>Profile_Menu_5</title><g id="Слой_2" data-name="Слой 2"><g id="Слой_1-2" data-name="Слой 1"><use width="20" height="20" xlink:href="#Profile_Menu_5"/></g></g></svg>