<svg xmlns="http://www.w3.org/2000/svg" xmlns:xlink="http://www.w3.org/1999/xlink" viewBox="0 0 71 41"><defs><style>.cls-1{opacity:0;}.cls-2{fill:#999;}.cls-3{fill:#005098;}.cls-4{fill:#f6a500;}.cls-5{fill:url(#Безымянный_градиент_111);}</style><symbol id="Новый_символ_56" data-name="Новый символ 56" viewBox="0 0 76 44"><g class="cls-1"><rect class="cls-2" width="76" height="44" rx="4" ry="4"/></g><polygon class="cls-3" points="28.77 31 31.83 13 36.74 13 33.67 31 28.77 31"/><path class="cls-3" d="M51.28,13.22a12.56,12.56,0,0,0-4.36-.75c-4.8,0-8.18,2.42-8.21,5.88,0,2.56,2.42,4,4.26,4.84s2.53,1.43,2.52,2.21c0,1.2-1.51,1.74-2.91,1.74A10.27,10.27,0,0,1,38,26.21l-.63-.29-.68,4a15.28,15.28,0,0,0,5.41.95c5.11,0,8.42-2.38,8.46-6.08,0-2-1.27-3.57-4.08-4.85-1.69-.82-2.73-1.37-2.72-2.21s.88-1.53,2.78-1.53a9,9,0,0,1,3.63.68l.44.21.66-3.86"/><path class="cls-3" d="M64,13H60a2.45,2.45,0,0,0-2.57,1.49L50.17,31h5.15s.84-2.59,1-3h6.22c.14.56.59,3,.59,3h4.51L63.73,13.19M57.74,24c.41-1,1.94-5,1.94-5s.4-1,.64-1.7l.33,1.53s.93,4.26,1.13,5.15Z"/><path class="cls-3" d="M24.77,13,20,25.29l-.51-2.49a14.13,14.13,0,0,0-6.81-7.57L17,31h5.2L30,13H25"/><path class="cls-4" d="M16,13H7.73l-.06.37c6.09,1.48,10.12,5,11.8,9.32L17.76,14.5a2,2,0,0,0-2.2-1.5"/></symbol></defs><title>visa</title><g id="Слой_2" data-name="Слой 2"><g id="Слой_1-2" data-name="Слой 1"><use id="Новый_символ_56-3" data-name="Новый символ 56" width="76" height="44" transform="scale(0.93 0.93)" xlink:href="#Новый_символ_56"/><path class="cls-5" d="M67,1a3,3,0,0,1,3,3V37a3,3,0,0,1-3,3H4a3,3,0,0,1-3-3V4A3,3,0,0,1,4,1H67m0-1H4A4,4,0,0,0,0,4V37a4,4,0,0,0,4,4H67a4,4,0,0,0,4-4V4a4,4,0,0,0-4-4Z"/></g></g></svg>