<svg xmlns="http://www.w3.org/2000/svg" xmlns:xlink="http://www.w3.org/1999/xlink" viewBox="0 0 32 32"><defs><style>.cls-1,.cls-4,.cls-5{fill:#fff;}.cls-1{opacity:0;}.cls-2{fill:#a0a4a8;}.cls-3{fill:none;}.cls-3,.cls-5{stroke:#a0a4a8;stroke-miterlimit:10;}</style><symbol id="Info_Game_Mobile" data-name="Info_Game_Mobile" viewBox="0 0 32 32"><path class="cls-2" d="M20,9a1,1,0,0,1,1,1V21a1,1,0,0,1-1,1H10a1,1,0,0,1-1-1V10a1,1,0,0,1,1-1H20m0-1H10a2,2,0,0,0-2,2V21a2,2,0,0,0,2,2H20a2,2,0,0,0,2-2V10a2,2,0,0,0-2-2Z"/><line class="cls-3" x1="11" y1="11.5" x2="19" y2="11.5"/><line class="cls-3" x1="11" y1="13.5" x2="19" y2="13.5"/><line class="cls-3" x1="11" y1="15.5" x2="19" y2="15.5"/><line class="cls-3" x1="11" y1="17.5" x2="17" y2="17.5"/><line class="cls-3" x1="11" y1="19.5" x2="15" y2="19.5"/><circle class="cls-4" cx="21.5" cy="22.5" r="5"/><path class="cls-2" d="M21.5,18A4.5,4.5,0,1,1,17,22.5,4.51,4.51,0,0,1,21.5,18m0-1A5.5,5.5,0,1,0,27,22.5,5.5,5.5,0,0,0,21.5,17Z"/><line class="cls-5" x1="21.5" y1="22" x2="21.5" y2="25"/><line class="cls-5" x1="21.5" y1="20" x2="21.5" y2="21"/></symbol></defs><title>Ресурс 278</title><g id="Слой_2" data-name="Слой 2"><g id="Слой_1-2" data-name="Слой 1"><use id="Info_Game_Mobile-3" data-name="Info_Game_Mobile" width="32" height="32" xlink:href="#Info_Game_Mobile"/></g></g></svg>