<svg xmlns="http://www.w3.org/2000/svg" viewBox="0 0 50.98 77"><defs><style>.cls-1{fill:#f86552;}</style></defs><title>Ресурс 6</title><g id="Слой_2" data-name="Слой 2"><g id="Слой_1-2" data-name="Слой 1"><path class="cls-1" d="M17.7,77V71a1.29,1.29,0,0,0-.24-.76L14.58,66H31.31a1.38,1.38,0,0,0,1.39-1.36v-6a6.22,6.22,0,0,1,2-4.52L40,49.3h0a1.27,1.27,0,0,0,.31-.41v0a1.41,1.41,0,0,0,.11-.47v0a1.33,1.33,0,0,0-.08-.45l0,0a1.29,1.29,0,0,0-.28-.42v0h0a1.35,1.35,0,0,0-.44-.29h0a1.35,1.35,0,0,0-.5-.1H28.32a3.62,3.62,0,0,1-3.62-3.62v-.76A3.62,3.62,0,0,1,28.31,39H43.7c2.78,2,6.38,10.25,3.13,22.84h0c-.24,1-.75,1.34-2,2l1.36,2.38a5.78,5.78,0,0,0,3.24-3.73h0c4.28-14.89-1.32-25-5.75-26.66V5a5,5,0,0,0-5-5h-27a5,5,0,0,0-5,5V16H5.34A5.26,5.26,0,0,0,.05,20.43a5.12,5.12,0,0,0,4.34,5.8A5.14,5.14,0,0,0,5,36.45,5.14,5.14,0,0,0,5,46.73a5.09,5.09,0,0,0-5,5.61A5.3,5.3,0,0,0,5.38,57H6.7v4.59a4.92,4.92,0,0,0,4.49,5L14.7,72v5m-8-22H4.75a2.85,2.85,0,0,1-2.58-1.55A3,3,0,0,1,4.83,49H6.7Zm0-11H4.76a2.84,2.84,0,0,1-2.58-1.55A3,3,0,0,1,4.83,38H6.7Zm0-10H4.75a2.84,2.84,0,0,1-2.58-1.56A3,3,0,0,1,4.83,28H6.7Zm0-10H4.75a2.85,2.85,0,0,1-2.58-1.55A3,3,0,0,1,4.83,18H6.7Zm35,12H28a6.34,6.34,0,0,0-6.34,6.34v1.32A6.34,6.34,0,0,0,28,50h7l-2.45,2.37c-1.88,1.44-2.89,4.54-2.89,6.76V64H12A2.26,2.26,0,0,1,9.7,61.73V5.27A2.27,2.27,0,0,1,12,3H39.43A2.27,2.27,0,0,1,41.7,5.27Z"/><path class="cls-1" d="M39.7,9.45A3.45,3.45,0,0,0,36.25,6H15.14A3.44,3.44,0,0,0,11.7,9.45v48.1A3.44,3.44,0,0,0,15.15,61H26.7V59H15.26a1.56,1.56,0,0,1-1.56-1.57V8.57A1.56,1.56,0,0,1,15.26,7H36.13A1.58,1.58,0,0,1,37.7,8.57V33h2Z"/></g></g></svg>