<svg xmlns="http://www.w3.org/2000/svg" xmlns:xlink="http://www.w3.org/1999/xlink" viewBox="0 0 101.66 101.66"><defs><style>.cls-1{fill:#6f63a7;}.cls-2{fill:url(#linear-gradient);}</style><linearGradient id="linear-gradient" x1="14.88" y1="14.88" x2="86.78" y2="86.78" gradientUnits="userSpaceOnUse"><stop offset="0.45" stop-color="#7968aa"/><stop offset="0.52" stop-color="#7363a1"/><stop offset="0.65" stop-color="#615489"/><stop offset="0.81" stop-color="#453c61"/><stop offset="0.99" stop-color="#1e1a2a"/><stop offset="1" stop-color="#1b1826"/></linearGradient></defs><title>Ресурс 1</title><g id="Слой_2" data-name="Слой 2"><g id="Layer_1" data-name="Layer 1"><path class="cls-1" d="M71.48,26.83c0,.1,0,.2,0,.3V54.64a.54.54,0,0,1-.18.44L59.63,66.75a.59.59,0,0,1-.45.18H50.7a.6.6,0,0,0-.47.2L44.6,72.77a.6.6,0,0,1-.46.19H38.69c-.28,0-.28,0-.28-.28,0-1.83,0-3.66,0-5.5,0-.2-.06-.26-.26-.26H27.38V35.07a.88.88,0,0,1,.07-.32l2.94-7.86s0,0,0-.06ZM43.39,65.9l.06,0,.15-.13,5.63-5.64a.59.59,0,0,1,.46-.2H60.17a.62.62,0,0,0,.48-.2l6.68-6.69a.45.45,0,0,0,.15-.35c0-7.21,0-14.42,0-21.63a2.36,2.36,0,0,0,0-.25H34.69c-.35,0-.32,0-.32.33V59.63c0,.33,0,.33.33.33h8.4c.29,0,.29,0,.29.3V65.9Z"/><path class="cls-1" d="M56.47,38.91h4v12h-4Z"/><path class="cls-1" d="M49.4,38.91v12H45.45v-12Z"/><path class="cls-2" d="M77.73,7.71A50.82,50.82,0,1,0,94,77.73,50.82,50.82,0,0,0,77.73,7.71ZM48.46,91.45A45.08,45.08,0,1,1,93.53,46.38,45.07,45.07,0,0,1,48.46,91.45Z"/></g></g></svg>