<svg xmlns="http://www.w3.org/2000/svg" xmlns:xlink="http://www.w3.org/1999/xlink" viewBox="0 0 52 52"><defs><style>.cls-1{opacity:0.08;}.cls-2{fill:#fff;}.cls-3{fill:#e7e8e9;}.cls-4,.cls-6{fill:none;stroke-miterlimit:10;}.cls-4{stroke:#a0a4a8;}.cls-5{fill:#a0a4a8;}.cls-6{stroke:#d0d2d4;}</style><symbol id="Новый_символ_17" data-name="Новый символ 17" viewBox="0 0 52 52"><circle class="cls-2" cx="26" cy="26" r="19.5"/><path class="cls-3" d="M26,7A19,19,0,1,1,7,26,19,19,0,0,1,26,7m0-1A20,20,0,1,0,46,26,20,20,0,0,0,26,6Z"/><polyline class="cls-4" points="19.47 28.66 23.47 24.66 27.47 28.66 32.47 23.66"/><path class="cls-2" d="M32.5,22A1.5,1.5,0,1,1,31,23.5,1.5,1.5,0,0,1,32.5,22m0-.5a2,2,0,1,0,2,2,2,2,0,0,0-2-2Z"/><path class="cls-5" d="M32.5,22A1.5,1.5,0,1,0,34,23.5,1.5,1.5,0,0,0,32.5,22Z"/><path class="cls-2" d="M27.5,27A1.5,1.5,0,1,1,26,28.5,1.5,1.5,0,0,1,27.5,27m0-.5a2,2,0,1,0,2,2,2,2,0,0,0-2-2Z"/><path class="cls-5" d="M27.5,27A1.5,1.5,0,1,0,29,28.5,1.5,1.5,0,0,0,27.5,27Z"/><path class="cls-2" d="M23.5,23A1.5,1.5,0,1,1,22,24.5,1.5,1.5,0,0,1,23.5,23m0-.5a2,2,0,1,0,2,2,2,2,0,0,0-2-2Z"/><path class="cls-5" d="M23.5,23A1.5,1.5,0,1,0,25,24.5,1.5,1.5,0,0,0,23.5,23Z"/><path class="cls-2" d="M19.5,27A1.5,1.5,0,1,1,18,28.5,1.5,1.5,0,0,1,19.5,27m0-.5a2,2,0,1,0,2,2,2,2,0,0,0-2-2Z"/><path class="cls-5" d="M19.5,27A1.5,1.5,0,1,0,21,28.5,1.5,1.5,0,0,0,19.5,27Z"/><polyline class="cls-6" points="27.97 15.5 25.97 13.5 23.97 15.5"/><polyline class="cls-6" points="27.97 35.5 25.97 37.5 23.97 35.5"/></symbol></defs><title>Ресурс 4</title><g id="Слой_2" data-name="Слой 2"><g id="Слой_1-2" data-name="Слой 1"><use id="Новый_символ_17-3" data-name="Новый символ 17" width="52" height="52" transform="translate(0 52) rotate(-90)" xlink:href="#Новый_символ_17"/></g></g></svg>