<svg xmlns="http://www.w3.org/2000/svg" xmlns:xlink="http://www.w3.org/1999/xlink" viewBox="0 0 20 20"><defs><style>.cls-1,.cls-2{fill:#2eb036;}.cls-1{opacity:0;}</style><symbol id="Новый_символ_16" data-name="Новый символ 16" viewBox="0 0 20 20.2"><rect class="cls-1" y="0.2" width="20" height="20"/><path class="cls-2" d="M11.54,1.78a1.11,1.11,0,0,1,.15-.43A3.71,3.71,0,0,1,12,.82c.15-.18.37-.42.65-.72.47-.5-1.14,1.12-.46.51L5.51,5H8.82L7.18,11.6A2.56,2.56,0,0,1,7,12l-.25.44-.28.4c-.1.13-.22.28-.38.46a10.21,10.21,0,0,1-.85.9l6.33-4.65L12.72,5h4.61L18.05,2H11.71A.22.22,0,0,1,11.54,1.78ZM5,2,5,2.29c0,.09-.06.21-.1.35s-.11.29-.18.45-.16.34-.25.52a5.84,5.84,0,0,1-.33.53A8.7,8.7,0,0,1,3.47,5c-.26.32-.53.63-.79.93L2,6.72c-.22.24-.35.39-.42.45L8.53,2Zm.81,15H9.75l1-3.9c.06-.18.15-.41.26-.7a4.25,4.25,0,0,1,.49-.87,3.36,3.36,0,0,1,.27-.36c.1-.14.21-.27.33-.41s.23-.28.35-.41l.42-.49.93-1-7.2,5.3Z"/></symbol></defs><title>Ресурс 5</title><g id="Слой_2" data-name="Слой 2"><g id="Слой_1-2" data-name="Слой 1"><use width="20" height="20.2" transform="scale(1 0.99)" xlink:href="#Новый_символ_16"/></g></g></svg>