<svg xmlns="http://www.w3.org/2000/svg" xmlns:xlink="http://www.w3.org/1999/xlink" viewBox="0 0 20 20"><defs><style>.cls-1{fill:#2eb036;opacity:0;}.cls-2{fill:#2eb036;}</style><symbol id="Новый_символ_78" data-name="Новый символ 78" viewBox="0 0 20 20"><rect class="cls-1" width="20" height="20"/><path class="cls-2" d="M18.41,13a9,9,0,0,1-5.49,5.49V14a5.05,5.05,0,0,0,1-1h4.51m1.31-1H13.36a3.93,3.93,0,0,1-1.44,1.45V19.8a10,10,0,0,0,7.8-7.8Z"/><path class="cls-2" d="M12.92,1.51A9,9,0,0,1,18.41,7H13.9a5.05,5.05,0,0,0-1-1V1.51M11.92.2V6.55A3.93,3.93,0,0,1,13.36,8h6.36A10,10,0,0,0,11.92.2Z"/><path class="cls-2" d="M6,13a5.05,5.05,0,0,0,1,1v4.51A9,9,0,0,1,1.51,13H6m.53-1H.2A10,10,0,0,0,8,19.8V13.45A4,4,0,0,1,6.55,12Z"/><path class="cls-2" d="M7,1.51V6A5.05,5.05,0,0,0,6,7H1.51A9,9,0,0,1,7,1.51M8,.2A10,10,0,0,0,.2,8H6.55A4,4,0,0,1,8,6.55V.2Z"/><path class="cls-2" d="M9.92,14a4,4,0,0,1-2-.55V19.8a10.1,10.1,0,0,0,4,0V13.45A4,4,0,0,1,9.92,14Z"/><path class="cls-2" d="M9.92,6a4,4,0,0,1,2,.55V.2a10.1,10.1,0,0,0-4,0V6.55A4,4,0,0,1,9.92,6Z"/><path class="cls-2" d="M19.72,8H13.36a3.85,3.85,0,0,1,0,4h6.36a10.1,10.1,0,0,0,0-4Z"/><path class="cls-2" d="M6,10a4,4,0,0,1,.55-2H.2a10.1,10.1,0,0,0,0,4H6.55A4,4,0,0,1,6,10Z"/></symbol></defs><title>Ресурс 6</title><g id="Слой_2" data-name="Слой 2"><g id="Слой_1-2" data-name="Слой 1"><use id="Новый_символ_78-3" data-name="Новый символ 78" width="20" height="20" xlink:href="#Новый_символ_78"/></g></g></svg>