<svg xmlns="http://www.w3.org/2000/svg" viewBox="0 0 51 38"><defs><style>.cls-1{fill:none;stroke:#2eb036;stroke-miterlimit:10;stroke-width:8px;}.cls-2{fill:#2eb036;}</style></defs><title>3-active.svg</title><g id="Слой_2" data-name="Слой 2"><g id="Слой_1-2" data-name="Слой 1"><line class="cls-1" x1="2" y1="14" x2="48" y2="14"/><path class="cls-2" d="M44.71,3A3.29,3.29,0,0,1,48,6.29V31.71A3.29,3.29,0,0,1,44.71,35H6.29A3.29,3.29,0,0,1,3,31.71V6.29A3.29,3.29,0,0,1,6.29,3H44.71m0-3H6.29A6.29,6.29,0,0,0,0,6.29V31.71A6.29,6.29,0,0,0,6.29,38H44.71A6.29,6.29,0,0,0,51,31.71V6.29A6.29,6.29,0,0,0,44.71,0Z"/></g></g></svg>