<svg xmlns="http://www.w3.org/2000/svg" xmlns:xlink="http://www.w3.org/1999/xlink" viewBox="0 0 20 20"><defs><style>.cls-1{fill:#2eb036;opacity:0;}.cls-2{fill:none;stroke:#71777d;stroke-miterlimit:10;stroke-width:3px;}.cls-3{fill:#71777d;}</style><symbol id="Новый_символ_79" data-name="Новый символ 79" viewBox="0 0 20 20"><rect class="cls-1" width="20" height="20"/><line class="cls-2" x1="2" y1="8.5" x2="18" y2="8.5"/><path class="cls-3" d="M16,4a2,2,0,0,1,2,2v8a2,2,0,0,1-2,2H4a2,2,0,0,1-2-2V6A2,2,0,0,1,4,4H16m0-1H4A3,3,0,0,0,1,6v8a3,3,0,0,0,3,3H16a3,3,0,0,0,3-3V6a3,3,0,0,0-3-3Z"/></symbol></defs><title>Ресурс 7</title><g id="Слой_2" data-name="Слой 2"><g id="Слой_1-2" data-name="Слой 1"><use id="Новый_символ_79-3" data-name="Новый символ 79" width="20" height="20" xlink:href="#Новый_символ_79"/></g></g></svg>