<svg xmlns="http://www.w3.org/2000/svg" xmlns:xlink="http://www.w3.org/1999/xlink" viewBox="0 0 20 20"><defs><style>.cls-1{fill:#2eb036;opacity:0;}.cls-2{fill:#71777d;}</style><symbol id="Новый_символ_80" data-name="Новый символ 80" viewBox="0 0 20 20"><rect class="cls-1" width="20" height="20"/><path class="cls-2" d="M15.72.63h0a1.84,1.84,0,0,0-2-.53L5.26,3.05a3.24,3.24,0,0,0-1.2.89L4,4,1.52,7.34l0,0a3,3,0,0,0-.28,2.77c.15.36.5,1,1,1.89l.3.58a4.54,4.54,0,1,0,8.09,2.85v-.28l4.36-2.26a3.19,3.19,0,0,0,1.18-1l0-.06c.56-1.05,2.22-4.31,2.9-5.67a1.84,1.84,0,0,0-.24-2Zm2.35,5.06c-.67,1.33-2.3,4.53-2.87,5.6a2.19,2.19,0,0,1-.76.66L7.09,15.73a1.08,1.08,0,0,1-.86.07,1.2,1.2,0,0,1-.68-.61,1.44,1.44,0,0,1-.11-1.13,1.63,1.63,0,0,1,.87-1l2.63-1.4a2,2,0,0,0,.83-.81L10.3,10a1.84,1.84,0,0,0-.69-2.52A1.92,1.92,0,0,0,9,7.2l-.42-.06a2.08,2.08,0,0,0-1.74.59L6,8.57a1.84,1.84,0,0,0-.35,2.14l.1.2H5.54a4.52,4.52,0,0,0-2.25.85l-.14-.26c-.42-.79-.78-1.48-.9-1.79A1.86,1.86,0,0,1,2.41,8l2.45-3.3a2.87,2.87,0,0,1,.72-.59h0l8.47-3a.75.75,0,0,1,.82.22L18,4.84A.78.78,0,0,1,18.07,5.69ZM6.7,9.35l.84-.84a1,1,0,0,1,.69-.29h.14l.42.06a.76.76,0,0,1,.65.86.71.71,0,0,1-.09.28l-.53.93a1,1,0,0,1-.4.38l-.85.45A3.73,3.73,0,0,0,6.94,11l-.38-.78A.74.74,0,0,1,6.7,9.35Z"/></symbol></defs><title>Ресурс 8</title><g id="Слой_2" data-name="Слой 2"><g id="Слой_1-2" data-name="Слой 1"><use id="Новый_символ_80-3" data-name="Новый символ 80" width="20" height="20" xlink:href="#Новый_символ_80"/></g></g></svg>