<svg xmlns="http://www.w3.org/2000/svg" xmlns:xlink="http://www.w3.org/1999/xlink" viewBox="0 0 20 20"><defs><style>.cls-1,.cls-2{fill:#71777d;}.cls-1{opacity:0;}</style><symbol id="Новый_символ_81" data-name="Новый символ 81" viewBox="0 0 20 20"><path class="cls-2" d="M17.48,14.11l-3.26-1.69a1.09,1.09,0,0,0-1.36.29l-1.2,1.54A12.25,12.25,0,0,1,8.58,12,11.91,11.91,0,0,1,6.31,8.86L7.83,7.68a1.08,1.08,0,0,0,.29-1.35L6.45,3.07a1.09,1.09,0,0,0-1.56-.39L2.82,4.07A1.61,1.61,0,0,0,2.1,5.52a11,11,0,0,0,.25,1.87,15.36,15.36,0,0,0,4.1,6.76,15.32,15.32,0,0,0,6.76,4.09,13.26,13.26,0,0,0,1.86.25,1.63,1.63,0,0,0,1.47-.73l1.35-2.11A1.07,1.07,0,0,0,17.48,14.11Z"/></symbol></defs><title>Ресурс 10</title><g id="Слой_2" data-name="Слой 2"><g id="Слой_1-2" data-name="Слой 1"><use id="Новый_символ_81-3" data-name="Новый символ 81" width="20" height="20" xlink:href="#Новый_символ_81"/></g></g></svg>