<svg xmlns="http://www.w3.org/2000/svg" xmlns:xlink="http://www.w3.org/1999/xlink" viewBox="0 0 28 29"><defs><style>.cls-1{opacity:0.2;}.cls-2{fill:url(#Безымянный_градиент_134);}.cls-3{fill:url(#Безымянный_градиент_139);}.cls-4{fill:url(#Безымянный_градиент_128);}</style><linearGradient id="Безымянный_градиент_134" x1="14" y1="29" x2="14" y2="1" gradientUnits="userSpaceOnUse"><stop offset="0" stop-color="#fff"/><stop offset="0.16" stop-color="#fffdfc"/><stop offset="0.29" stop-color="#fff9f2"/><stop offset="0.41" stop-color="#fff1e0"/><stop offset="0.52" stop-color="#ffe5c8"/><stop offset="0.63" stop-color="#ffd7a9"/><stop offset="0.74" stop-color="#ffc583"/><stop offset="0.84" stop-color="#ffb055"/><stop offset="0.94" stop-color="#ff9822"/><stop offset="1" stop-color="#f80"/></linearGradient><linearGradient id="Безымянный_градиент_139" y1="0.5" x2="28" y2="0.5" gradientUnits="userSpaceOnUse"><stop offset="0" stop-color="#f80"/><stop offset="0.36" stop-color="#f80"/></linearGradient><linearGradient id="Безымянный_градиент_128" x1="5.77" y1="24.52" x2="21.39" y2="8.9" gradientUnits="userSpaceOnUse"><stop offset="0" stop-color="#f80"/><stop offset="1" stop-color="#fc0"/></linearGradient><symbol id="Новый_символ_5" data-name="Новый символ 5" viewBox="0 0 28 29"><g class="cls-1"><rect class="cls-2" y="1" width="28" height="28"/></g><rect class="cls-3" width="28" height="1"/><path class="cls-4" d="M18.92,16.94a1,1,0,0,0-.24,0c-.28.08-.57.16-.85.26a.29.29,0,0,0-.2.33,2.43,2.43,0,0,0,.21.71c.35.61.74,1.19,1.12,1.78a5,5,0,0,0,.33.44c-.12.18-.25.34-.36.52a1.86,1.86,0,0,1-1.63.88A5.48,5.48,0,0,1,16,21.73a4.65,4.65,0,0,0-2.56.17,11.41,11.41,0,0,0-2.91,1.48c-1,.69-2,1.42-2.94,2.13l-.46.34c.14-.4.28-.76.4-1.13.51-1.58,1-3.18,1.33-4.8,0-.16.12-.18.25-.19A4.63,4.63,0,0,0,11.25,19a2.22,2.22,0,0,0,.93-1.2.87.87,0,0,0,0-.1l-3.68.2c-.06.44-.12.88-.19,1.32a.22.22,0,0,1-.07.17L6.51,20.76l-.06,0c.14-.55.27-1.11.42-1.65a13.83,13.83,0,0,1,1.78-4,6.53,6.53,0,0,1,2.5-2.28,5.4,5.4,0,0,1,7.16,2.42A5.93,5.93,0,0,1,18.92,16.94Zm2.66-2.43v0A.07.07,0,0,0,21.58,14.51ZM7.89,10.81ZM12.63,9.6h0ZM24.33,22l-.22-.18a2.34,2.34,0,0,1-.19-.5,10,10,0,0,1-.12-2.73,16.79,16.79,0,0,0,.05-3.17c0-.26-.07-.53-.11-.79l-2.11.27-.05-.42a.07.07,0,0,1,0,0l-.07-.53,2-.26a10.09,10.09,0,0,0-3.47-6l-1.53,2.91-.89-.46,1.6-3A9.61,9.61,0,0,0,13,5.45V9.59H12V5.51A13.3,13.3,0,0,0,9.21,6a10.07,10.07,0,0,0-2.85,1.7l1.94,2.8-.41.29h0l-.4.28L5.58,8.34a17.32,17.32,0,0,0-3.08,3,7.82,7.82,0,0,1,2.81.87,6.23,6.23,0,0,1,2.21,1.9L7.78,14c.57-.41,1.13-.83,1.71-1.23a6.43,6.43,0,0,1,2.2-1,9.26,9.26,0,0,1,1.82-.16,5.52,5.52,0,0,1,3.39.93,6.55,6.55,0,0,1,1.71,1.77,9.4,9.4,0,0,1,1.19,2.62c.1.34.16.7.29,1a16,16,0,0,0,2.74,4.29,3.18,3.18,0,0,0,.58.52.78.78,0,0,0,1.06-.34C24.54,22.19,24.49,22.11,24.33,22Z"/></symbol></defs><title>1</title><g id="Слой_2" data-name="Слой 2"><g id="Слой_1-2" data-name="Слой 1"><use width="28" height="29" xlink:href="#Новый_символ_5"/></g></g></svg>