<svg xmlns="http://www.w3.org/2000/svg" xmlns:xlink="http://www.w3.org/1999/xlink" viewBox="0 0 28 29"><defs><style>.cls-1{opacity:0.2;}.cls-2{fill:url(#Безымянный_градиент_134);}.cls-3{fill:url(#Безымянный_градиент_139);}.cls-4{fill:none;stroke-linecap:round;stroke-linejoin:round;stroke:url(#Безымянный_градиент_128);}</style><linearGradient id="Безымянный_градиент_134" x1="14" y1="29" x2="14" y2="1" gradientUnits="userSpaceOnUse"><stop offset="0" stop-color="#fff"/><stop offset="0.16" stop-color="#fffdfc"/><stop offset="0.29" stop-color="#fff9f2"/><stop offset="0.41" stop-color="#fff1e0"/><stop offset="0.52" stop-color="#ffe5c8"/><stop offset="0.63" stop-color="#ffd7a9"/><stop offset="0.74" stop-color="#ffc583"/><stop offset="0.84" stop-color="#ffb055"/><stop offset="0.94" stop-color="#ff9822"/><stop offset="1" stop-color="#f80"/></linearGradient><linearGradient id="Безымянный_градиент_139" y1="0.5" x2="28" y2="0.5" gradientUnits="userSpaceOnUse"><stop offset="0" stop-color="#f80"/><stop offset="0.36" stop-color="#f80"/></linearGradient><linearGradient id="Безымянный_градиент_128" x1="8.16" y1="19.43" x2="19.54" y2="8.05" gradientUnits="userSpaceOnUse"><stop offset="0" stop-color="#f80"/><stop offset="1" stop-color="#fc0"/></linearGradient><symbol id="Новый_символ_6" data-name="Новый символ 6" viewBox="0 0 28 29"><g class="cls-1"><rect class="cls-2" y="1" width="28" height="28"/></g><rect class="cls-3" width="28" height="1"/><path class="cls-4" d="M10.87,18.41c-2.83.48-6.51-2.3-5.71-4.57.22-.62,1.64.15,1.64.15S4,13.18,4,11,6.44,8.72,6.44,8.72A2.3,2.3,0,0,1,9.37,7s4.6-2.11,7.27-.26a6.6,6.6,0,0,1,4.07,4.11m-1.76,1,.59,2.73a1.88,1.88,0,0,0,1,.26,2,2,0,1,0,0-3.91,1.9,1.9,0,0,0-1.1.35m-4.36,5.06a3,3,0,0,0-.66,3.38c.81,1.41,3.15,1.58,5.23.39s3.09-3.31,2.27-4.72a2,2,0,0,0-.6-.67m-10.63,0a3.51,3.51,0,0,0-.16,2.59,3.08,3.08,0,0,0,3.59,2.29m-2.8-.9s-.32,1.8.92,2.43,2.55.71,3,1.3-.17,1.95,1.17,1.95.76-3.46.76-3.46M9.37,7a3.49,3.49,0,0,0-.65,2.15m5.12-1.35a2.73,2.73,0,0,0,3,1.63m-.23-2.69a4.16,4.16,0,0,0-.17,1.52M9.26,10.69a2.9,2.9,0,0,0,3.42.76m-4,1.24a2.55,2.55,0,0,0,1.62-1.07M17.24,17c.07-2.06-2.23-2.36-2.23-2.36m4.75,2.49A2.64,2.64,0,0,0,17,15.79m2.33-4.39"/></symbol></defs><title>2</title><g id="Слой_2" data-name="Слой 2"><g id="Слой_1-2" data-name="Слой 1"><use width="28" height="29" xlink:href="#Новый_символ_6"/></g></g></svg>