<svg xmlns="http://www.w3.org/2000/svg" xmlns:xlink="http://www.w3.org/1999/xlink" viewBox="0 0 28 29"><defs><style>.cls-1{opacity:0.2;}.cls-2{fill:url(#Безымянный_градиент_134);}.cls-3{fill:url(#Безымянный_градиент_139);}.cls-4{fill:url(#Безымянный_градиент_26);}</style><linearGradient id="Безымянный_градиент_134" x1="14" y1="29" x2="14" y2="1" gradientUnits="userSpaceOnUse"><stop offset="0" stop-color="#fff"/><stop offset="0.16" stop-color="#fffdfc"/><stop offset="0.29" stop-color="#fff9f2"/><stop offset="0.41" stop-color="#fff1e0"/><stop offset="0.52" stop-color="#ffe5c8"/><stop offset="0.63" stop-color="#ffd7a9"/><stop offset="0.74" stop-color="#ffc583"/><stop offset="0.84" stop-color="#ffb055"/><stop offset="0.94" stop-color="#ff9822"/><stop offset="1" stop-color="#f80"/></linearGradient><linearGradient id="Безымянный_градиент_139" y1="0.5" x2="28" y2="0.5" gradientUnits="userSpaceOnUse"><stop offset="0" stop-color="#f80"/><stop offset="0.36" stop-color="#f80"/></linearGradient><linearGradient id="Безымянный_градиент_26" x1="8.05" y1="22.11" x2="21.5" y2="8.67" gradientUnits="userSpaceOnUse"><stop offset="0" stop-color="#f80"/><stop offset="1" stop-color="#fc0"/></linearGradient><symbol id="Новый_символ_7" data-name="Новый символ 7" viewBox="0 0 28 29"><g class="cls-1"><rect class="cls-2" y="1" width="28" height="28"/></g><rect class="cls-3" width="28" height="1"/><path class="cls-4" d="M23,15a1,1,0,0,1-1,1H18.67a1,1,0,0,1-.85-.47l-1.67-2.7-.44,2.26,3,3a1,1,0,0,1,.29.71V23h0a1,1,0,0,1-2,0V19.21l-2.15-2.15-1.54,2.47a1.07,1.07,0,0,1-.34.33l-3.8,2.29a1,1,0,0,1-1-1.72l3.61-2.16,1.92-3.09.51-2.65L10.69,16a1,1,0,0,1-1.42,0,1,1,0,0,1,0-1.41l4.52-4.53a1,1,0,0,1,1.08-.22L17,10.7a1,1,0,0,1,.48.4L19.22,14H22A1,1,0,0,1,23,15ZM17,5a2,2,0,1,0,2,2A2,2,0,0,0,17,5ZM5.24,13H9.12l-1,1H4.25l1-1ZM9.8,12H5.92l1-1h3.87Zm2-2H7.92l1-1h3.87Z"/></symbol></defs><title>3</title><g id="Слой_2" data-name="Слой 2"><g id="Слой_1-2" data-name="Слой 1"><use width="28" height="29" transform="translate(0 0)" xlink:href="#Новый_символ_7"/></g></g></svg>