<svg xmlns="http://www.w3.org/2000/svg" xmlns:xlink="http://www.w3.org/1999/xlink" viewBox="0 0 28 29"><defs><style>.cls-1{opacity:0.2;}.cls-2{fill:url(#Безымянный_градиент_134);}.cls-3{fill:url(#Безымянный_градиент_139);}.cls-4{fill:url(#Безымянный_градиент_55);}</style><linearGradient id="Безымянный_градиент_134" x1="14" y1="29" x2="14" y2="1" gradientUnits="userSpaceOnUse"><stop offset="0" stop-color="#fff"/><stop offset="0.16" stop-color="#fffdfc"/><stop offset="0.29" stop-color="#fff9f2"/><stop offset="0.41" stop-color="#fff1e0"/><stop offset="0.52" stop-color="#ffe5c8"/><stop offset="0.63" stop-color="#ffd7a9"/><stop offset="0.74" stop-color="#ffc583"/><stop offset="0.84" stop-color="#ffb055"/><stop offset="0.94" stop-color="#ff9822"/><stop offset="1" stop-color="#f80"/></linearGradient><linearGradient id="Безымянный_градиент_139" y1="0.5" x2="28" y2="0.5" gradientUnits="userSpaceOnUse"><stop offset="0" stop-color="#f80"/><stop offset="0.36" stop-color="#f80"/></linearGradient><linearGradient id="Безымянный_градиент_55" x1="7.74" y1="21.69" x2="21.26" y2="8.18" gradientUnits="userSpaceOnUse"><stop offset="0" stop-color="#f80"/><stop offset="1" stop-color="#fc0"/></linearGradient><symbol id="Новый_символ_8" data-name="Новый символ 8" viewBox="0 0 28 29"><path class="cls-4" d="M10,16.93H8v-1h2Zm9,0h2v-1H19Zm-5,6h1v-2H14ZM9.26,21l.7.71,1.42-1.41-.71-.71Zm8.36-.7L19,21.67l.71-.71-1.41-1.41ZM9.26,11.89l1.41,1.42.71-.71L10,11.18Zm5.74-2v6.5l4.89-3.89C18.89,11.54,17.52,9.93,15,9.93Zm0-3h1a1,1,0,0,0,0-2H13a1,1,0,0,0,0,2h1v1h1Zm6.42,4.58A8.42,8.42,0,0,1,23,16.43a8.5,8.5,0,0,1-17,0,8.42,8.42,0,0,1,1.58-4.92L6,9.93l2-2L9.58,9.51a8.45,8.45,0,0,1,9.84,0L21,7.93l2,2ZM22,16.43a7.5,7.5,0,1,0-7.5,7.5A7.5,7.5,0,0,0,22,16.43Z"/></symbol></defs><title>4</title><g id="Слой_2" data-name="Слой 2"><g id="Слой_1-2" data-name="Слой 1"><use width="28" height="29" xlink:href="#Новый_символ_8"/></g></g></svg>