<svg xmlns="http://www.w3.org/2000/svg" xmlns:xlink="http://www.w3.org/1999/xlink" viewBox="0 0 28 29"><defs><style>.cls-1{opacity:0.2;}.cls-2{fill:url(#Безымянный_градиент_134);}.cls-3{fill:url(#Безымянный_градиент_139);}.cls-4{fill:url(#Безымянный_градиент_26);}</style><linearGradient id="Безымянный_градиент_134" x1="14" y1="29" x2="14" y2="1" gradientUnits="userSpaceOnUse"><stop offset="0" stop-color="#fff"/><stop offset="0.16" stop-color="#fffdfc"/><stop offset="0.29" stop-color="#fff9f2"/><stop offset="0.41" stop-color="#fff1e0"/><stop offset="0.52" stop-color="#ffe5c8"/><stop offset="0.63" stop-color="#ffd7a9"/><stop offset="0.74" stop-color="#ffc583"/><stop offset="0.84" stop-color="#ffb055"/><stop offset="0.94" stop-color="#ff9822"/><stop offset="1" stop-color="#f80"/></linearGradient><linearGradient id="Безымянный_градиент_139" y1="0.5" x2="28" y2="0.5" gradientUnits="userSpaceOnUse"><stop offset="0" stop-color="#f80"/><stop offset="0.36" stop-color="#f80"/></linearGradient><linearGradient id="Безымянный_градиент_26" x1="7.74" y1="22.44" x2="20.83" y2="9.35" gradientUnits="userSpaceOnUse"><stop offset="0" stop-color="#f80"/><stop offset="1" stop-color="#fc0"/></linearGradient><symbol id="Новый_символ_9" data-name="Новый символ 9" viewBox="0 0 28 29"><g class="cls-1"><rect class="cls-2" y="1" width="28" height="28"/></g><rect class="cls-3" width="28" height="1"/><path class="cls-4" d="M16,14.22a1.43,1.43,0,0,0,.73-.27l.41-.58.66-.94,1-1.4.82-1.35.05-.07c.23-.35.53-1,0-1.28s-.77-.29-1.09.05l-3.6,5.1A1.22,1.22,0,0,0,16,14.22Zm1.29.46a.65.65,0,0,0,0,.13c-.12.6.72.8,1.1.73A3.22,3.22,0,0,0,20,14.27c.35-.43,1.55-2,1.09-2.95-.25-.52-.87-.72-1.18-.4ZM14.32,5c-1.35-.24-2,1.39-2.59,2.36l2,.93C14.47,7.25,16.1,5.56,14.32,5Zm.27,3.63L15,8.8l.33.15.46.21-.13.33c-.44,1.1-1.4,2.32-2.81,1.91-.21.67.41.71.85.9s.6.39,1.18-.32l.42-.54.1-.14-.1.14,1-1.39h0l1.25-1.77a4.48,4.48,0,0,0,.4-.74.88.88,0,0,0-.39-1.36,1.11,1.11,0,0,0-1.39.17l-1.4,2Zm3.5,7.64c-.94-.07-1.45-.19-1.49-1.29-.44.06-1.43.16-1.8-.6.11.56.53,3.74,0,3.77s-.6-1.91-.61-2.34a3.57,3.57,0,0,0-3-3.87,11.16,11.16,0,0,1,.92-1.25,2,2,0,0,0,2.63-1l-.45-.21-1.05-.47-1.56-.71-.9-.41-.32-.05C10,7.7,8.55,10,8.18,10.52A7.81,7.81,0,0,0,6.83,13.2c-.09,1.08,1.07,2.3,1.65,3.29a12.58,12.58,0,0,1,1.73,3.2,19.08,19.08,0,0,1,0,5.24h7.12a11.34,11.34,0,0,1,0-4,2.67,2.67,0,0,1,1.56-1.66,3,3,0,0,0,1.12-2,17.43,17.43,0,0,0,.48-2.48A3,3,0,0,1,18.09,16.22Z"/></symbol></defs><title>5</title><g id="Слой_2" data-name="Слой 2"><g id="Слой_1-2" data-name="Слой 1"><use id="Новый_символ_9-3" data-name="Новый символ 9" width="28" height="29" xlink:href="#Новый_символ_9"/></g></g></svg>