<svg xmlns="http://www.w3.org/2000/svg" xmlns:xlink="http://www.w3.org/1999/xlink" viewBox="0 0 63.99 64"><defs><style>.cls-1{fill:url(#Безымянный_градиент_6);}.cls-2{fill:#fff;}</style><linearGradient id="Безымянный_градиент_6" x1="-457.05" y1="-5009.26" x2="-457.05" y2="-5009.39" gradientTransform="matrix(511.95, 0, 0, -512.01, 234014.96, -2564767.64)" gradientUnits="userSpaceOnUse"><stop offset="0" stop-color="#f9aa4b"/><stop offset="1" stop-color="#f7931a"/></linearGradient></defs><title>bitcoint</title><g id="Слой_2" data-name="Слой 2"><g id="Слой_1-2" data-name="Слой 1"><g id="g16"><path id="coin" class="cls-1" d="M63,39.74A32,32,0,1,1,39.73,1,32,32,0,0,1,63,39.74Z"/><path id="symbol" class="cls-2" d="M46.1,27.44c.64-4.26-2.6-6.55-7-8.07L40.5,13.6,37,12.72l-1.4,5.62c-.92-.23-1.87-.45-2.81-.66L34.19,12l-3.51-.88-1.44,5.77L27,16.39v0l-4.84-1.21-.94,3.75s2.61.6,2.55.64a1.86,1.86,0,0,1,1.64,2l-1.64,6.57a2,2,0,0,1,.37.12l-.37-.1-2.3,9.21a1.27,1.27,0,0,1-1.61.83c0,.05-2.55-.63-2.55-.63l-1.74,4,4.57,1.13,2.5.65-1.45,5.83,3.5.88,1.44-5.77c1,.26,1.89.5,2.8.72L27.5,50.8l3.51.87,1.45-5.82c6,1.13,10.49.68,12.38-4.74,1.53-4.36-.07-6.87-3.22-8.51,2.29-.53,4-2,4.48-5.16Zm-8,11.25c-1.09,4.36-8.43,2-10.81,1.41l1.93-7.73C31.58,33,39.21,34.14,38.08,38.69Zm1.08-11.31c-1,4-7.1,1.95-9.08,1.46l1.75-7C33.81,22.32,40.2,23.24,39.16,27.38Z"/></g></g></g></svg>