<svg xmlns="http://www.w3.org/2000/svg" xmlns:xlink="http://www.w3.org/1999/xlink" viewBox="0 0 71 41"><defs><style>.cls-1{fill:url(#Безымянный_градиент_6);}.cls-2{fill:#fff;}.cls-3{fill:#999;opacity:0;}</style><linearGradient id="Безымянный_градиент_6" x1="7494.41" y1="8591.24" x2="7494.41" y2="8591.17" gradientTransform="matrix(511.95, 0, 0, -512.01, -3836689.95, 4398763.96)" gradientUnits="userSpaceOnUse"><stop offset="0" stop-color="#f9aa4b"/><stop offset="1" stop-color="#f7931a"/></linearGradient><symbol id="Новый_символ_58" data-name="Новый символ 58" viewBox="0 0 76 44"><g id="g16"><path id="coin" class="cls-1" d="M55.62,26.39a18.16,18.16,0,1,1-13.23-22,18.16,18.16,0,0,1,13.23,22Z"/><path id="symbol" class="cls-2" d="M46,19.41c.36-2.41-1.48-3.71-4-4.58l.82-3.27-2-.5L40,14.25l-1.6-.38.8-3.21-2-.49-.82,3.27-1.27-.3h0l-2.74-.69-.53,2.13s1.47.34,1.44.36a1.06,1.06,0,0,1,.93,1.16l-.93,3.73a.74.74,0,0,1,.21.07l-.21-.06L32,25.06a.73.73,0,0,1-.92.47s-1.45-.36-1.45-.36l-1,2.28,2.6.65,1.42.36-.83,3.32,2,.49L34.67,29l1.59.41-.81,3.26,2,.5.82-3.31c3.4.64,6,.38,7-2.69.87-2.47,0-3.9-1.83-4.83A3.2,3.2,0,0,0,46,19.41ZM41.45,25.8c-.61,2.47-4.78,1.13-6.13.8l1.09-4.39C37.76,22.55,42.1,23.22,41.45,25.8Zm.62-6.42c-.56,2.25-4,1.1-5.16.82l1-4C39,16.51,42.65,17,42.07,19.38Z"/></g><rect class="cls-3" width="76" height="44"/></symbol></defs><title>bitcoin</title><g id="Слой_2" data-name="Слой 2"><g id="Слой_1-2" data-name="Слой 1"><use width="76" height="44" transform="scale(0.93 0.93)" xlink:href="#Новый_символ_58"/></g></g></svg>