<svg xmlns="http://www.w3.org/2000/svg" xmlns:xlink="http://www.w3.org/1999/xlink" viewBox="0 0 72 41"><defs><style>.cls-1{fill:#999;opacity:0;}.cls-2{fill:#0097d9;}.cls-2,.cls-3,.cls-4{fill-rule:evenodd;}.cls-3{fill:#e40520;}.cls-4{fill:#fff;}</style><symbol id="Новый_символ_55" data-name="Новый символ 55" viewBox="0 0 76 44"><rect class="cls-1" width="76" height="44"/><path class="cls-2" d="M38.33,33.28a15.73,15.73,0,0,0,0-23.23A15.43,15.43,0,0,0,27.89,6a15.68,15.68,0,0,0,0,31.35,15.43,15.43,0,0,0,10.44-4.06Z"/><path class="cls-3" d="M48.77,6.26a15.5,15.5,0,0,0-10.49,4.07A17.82,17.82,0,0,0,36.7,12h3.2l1.19,2H35.58l-.9,1H42l.66,2H34l-.45,2H43.1a14.73,14.73,0,0,1,.35,2.67,18.78,18.78,0,0,1-.8,4.33H34l.66,2H42l-.9,2H35.58l1.18,2h3.1a16.61,16.61,0,0,1-1.58,1.67,15.5,15.5,0,0,0,10.49,4.07,15.74,15.74,0,0,0,0-31.48Z"/><polygon class="cls-4" points="25.97 26 24.02 26 25.18 19.85 22.51 26 20.73 26 20.41 19.89 19.25 26 17.48 26 18.99 18 22.03 18 22.19 22.95 24.34 18 27.51 18 25.97 26 25.97 26"/><path class="cls-4" d="M47.56,25.73a5,5,0,0,1-1.37.2c-1,0-1.5-.49-1.5-1.39a2.91,2.91,0,0,1,.06-.57l.11-.62.09-.5L45.83,18h1.92l-.28,1h1l-.27,2h-1l-.5,2.65a1.58,1.58,0,0,0,0,.26c0,.33.2.47.65.47a1.73,1.73,0,0,0,.51-.06l-.25,1.41Z"/><path class="cls-4" d="M53.06,19.05l-.2-.07-.16,0-.18,0c-.59,0-1,.27-1.57,1l.16-.91H49.49l-1.1,6h1.8c.64-3.67.92-4.31,1.78-4.31h.23l.21.05.65-1.7Z"/><path class="cls-4" d="M39.91,21.15c0,.82.46,1.38,1.49,1.8.79.32.92.42.92.71s-.35.59-1.13.59A6.09,6.09,0,0,1,39.44,24l-.27,1.49.09,0,.35.06.52.06c.46,0,.82.05,1.08.05,2.06,0,3-.68,3-2.15a1.78,1.78,0,0,0-1.38-1.8c-.82-.33-.92-.4-.92-.7s.33-.53,1-.53a12.92,12.92,0,0,1,1.41.1l.28-1.5A15.36,15.36,0,0,0,42.85,19c-2.19,0-3,1-2.94,2.19Z"/><path class="cls-4" d="M32.24,26H30.63l0-.67a2.57,2.57,0,0,1-2,.78,1.79,1.79,0,0,1-1.81-1.77c0-1.57,1.25-2.48,3.4-2.48a7.86,7.86,0,0,1,.79,0,1.42,1.42,0,0,0,.08-.41c0-.43-.34-.59-1.25-.59a7.21,7.21,0,0,0-1.61.18l-.26.07-.18,0,.27-1.45a8.71,8.71,0,0,1,2.32-.35c1.66,0,2.54.66,2.54,1.9a7.2,7.2,0,0,1-.15,1.28l-.41,2.29-.07.41-.05.33,0,.22,0,.18Zm-1.41-3.31-.43,0c-1.1,0-1.66.33-1.66,1a.64.64,0,0,0,.7.66,1.48,1.48,0,0,0,1.39-1.62Z"/><path class="cls-4" d="M38.59,25.54a7.38,7.38,0,0,1-2,.26c-2.17,0-3.29-1-3.29-2.89,0-2.22,1.43-3.85,3.38-3.85a2.32,2.32,0,0,1,2.61,2.34,6.08,6.08,0,0,1-.24,1.6H35.22a1.64,1.64,0,0,0,0,.2c0,.75.57,1.13,1.69,1.13a5.2,5.2,0,0,0,2-.4l-.33,1.61Zm-1-3.54c0-.55,0-.66,0-.74a.81.81,0,0,0-.92-.84,1.89,1.89,0,0,0-1.23.58l2.13,1Z"/><path class="cls-4" d="M59.26,22.64a3.41,3.41,0,0,1-3.76,3.1,2.76,2.76,0,0,1-3.08-3,3.61,3.61,0,0,1,3.82-3.84,2.81,2.81,0,0,1,3.07,2.92,4.2,4.2,0,0,1-.05.8Zm-2-.83c0-.67-.27-1.31-1.06-1.31-1,0-1.6,1.18-1.6,2.21,0,.88.42,1.47,1.11,1.46a1.93,1.93,0,0,0,1.49-1.59,4.54,4.54,0,0,0,.06-.77Z"/></symbol></defs><title>maestro</title><g id="Слой_2" data-name="Слой 2"><g id="Слой_1-2" data-name="Слой 1"><use width="76" height="44" transform="scale(0.95 0.93)" xlink:href="#Новый_символ_55"/></g></g></svg>