<svg xmlns="http://www.w3.org/2000/svg" viewBox="0 0 52.06 32.47"><defs><style>.cls-1{fill:#00a1de;}.cls-1,.cls-2,.cls-3{fill-rule:evenodd;}.cls-2{fill:#f24946;}.cls-3{fill:#fff;}</style></defs><title>maestro</title><g id="Слой_2" data-name="Слой 2"><g id="Слой_1-2" data-name="Слой 1"><path class="cls-1" d="M26,27.29A15.76,15.76,0,0,0,26,4.06,15.43,15.43,0,0,0,15.56,0a15.67,15.67,0,0,0,0,31.34A15.42,15.42,0,0,0,26,27.29Z"/><path class="cls-2" d="M36.44,1A15.51,15.51,0,0,0,26,5.07a14.57,14.57,0,0,0-1.58,1.66h3.2l1.19,2H23.24l-.89,1h7.3l.66,2H21.69l-.45,2h9.52a14.73,14.73,0,0,1,.35,2.67,18.78,18.78,0,0,1-.8,4.33H21.69l.66,2h7.3l-.89,2H23.24l1.19,2h3.09A15.51,15.51,0,0,1,26,28.4a15.5,15.5,0,0,0,10.49,4.07A15.74,15.74,0,0,0,36.44,1Z"/><polygon class="cls-3" points="13.64 20.73 11.69 20.73 12.85 14.58 10.18 20.73 8.4 20.73 8.08 14.62 6.91 20.73 5.14 20.73 6.66 12.73 9.7 12.73 9.86 17.69 12 12.73 15.17 12.73 13.64 20.73 13.64 20.73"/><path class="cls-3" d="M35.23,20.46a5.08,5.08,0,0,1-1.37.21,1.31,1.31,0,0,1-1.5-1.4,3.88,3.88,0,0,1,0-.57l.12-.62.09-.5.88-4.85h1.92l-.28,1h1l-.27,2h-1l-.5,2.65a1.7,1.7,0,0,0,0,.26c0,.33.19.47.65.47a1.78,1.78,0,0,0,.51-.06l-.25,1.41Z"/><path class="cls-3" d="M40.73,13.78a.56.56,0,0,0-.21-.06l-.15,0h-.18c-.59,0-1,.26-1.57,1l.16-.91H37.15l-1.09,6h1.8c.64-3.67.91-4.31,1.78-4.31l.22,0,.22,0,.65-1.7Z"/><path class="cls-3" d="M27.58,15.15c0,.82.45,1.38,1.49,1.81.79.32.91.42.91.71s-.35.58-1.12.58A6.5,6.5,0,0,1,27.1,18l-.26,1.49h.08l.36.07.51.06c.47,0,.83.05,1.08.05,2.07,0,3-.68,3-2.16a1.79,1.79,0,0,0-1.38-1.8c-.82-.32-.91-.4-.91-.7s.32-.52,1-.52a12.38,12.38,0,0,1,1.4.09l.28-1.49A15,15,0,0,0,30.52,13c-2.19,0-2.95,1-2.94,2.18Z"/><path class="cls-3" d="M19.91,20.73H18.3l0-.67a2.53,2.53,0,0,1-2,.78,1.79,1.79,0,0,1-1.81-1.77c0-1.57,1.25-2.48,3.4-2.48.22,0,.5,0,.79.05a1.37,1.37,0,0,0,.07-.42c0-.43-.34-.59-1.24-.59a7.14,7.14,0,0,0-1.61.18l-.27.07-.17,0,.27-1.45a8.6,8.6,0,0,1,2.32-.34c1.66,0,2.54.65,2.54,1.89a6.6,6.6,0,0,1-.16,1.28l-.4,2.29L20,20l-.05.32,0,.23,0,.17Zm-1.41-4a2.54,2.54,0,0,0-.44,0c-1.09,0-1.65.33-1.65,1a.63.63,0,0,0,.69.66,1.49,1.49,0,0,0,1.4-1.61Z"/><path class="cls-3" d="M26.26,20.27a7.44,7.44,0,0,1-2,.27c-2.17,0-3.3-1-3.3-2.9,0-2.22,1.44-3.85,3.39-3.85A2.32,2.32,0,0,1,27,16.14a6.07,6.07,0,0,1-.24,1.59H22.89c0,.1,0,.15,0,.21,0,.75.58,1.13,1.7,1.13a5.16,5.16,0,0,0,2-.41l-.32,1.61Zm-1-4.26c0-.55,0-.66,0-.75a.8.8,0,0,0-.91-.83,1.84,1.84,0,0,0-1.24.58l2.14,1Z"/><path class="cls-3" d="M46.93,16.65a3.41,3.41,0,0,1-3.77,3.1,2.76,2.76,0,0,1-3.07-3,3.61,3.61,0,0,1,3.81-3.84A2.8,2.8,0,0,1,47,15.84a4.3,4.3,0,0,1,0,.81Zm-2-.83c0-.68-.27-1.32-1.06-1.32-1,0-1.61,1.18-1.61,2.22,0,.88.42,1.46,1.12,1.45a1.92,1.92,0,0,0,1.49-1.58,4.54,4.54,0,0,0,.06-.77Z"/></g></g></svg>