<svg xmlns="http://www.w3.org/2000/svg" viewBox="0 0 76 44"><defs><style>.cls-1{fill:#a0a4a8;opacity:0;}.cls-2{fill:#f24946;}.cls-3{fill:#feab43;}.cls-4{fill:#fff;}</style></defs><title>mastercard</title><g id="Слой_2" data-name="Слой 2"><g id="Слой_1-2" data-name="Слой 1"><rect class="cls-1" width="76" height="44"/><path class="cls-2" d="M43.4,21.94A15.56,15.56,0,1,1,27.84,6.38,15.56,15.56,0,0,1,43.4,21.94Z"/><path class="cls-3" d="M48.7,7.26a15.68,15.68,0,0,0-10.56,4.07A16.71,16.71,0,0,0,36.55,13h3.3L41,15H35.52l-.89,1h7.31l.65,2H34l-.45,2h9.53a14.89,14.89,0,0,1,.35,2.67A18.83,18.83,0,0,1,42.59,27H34l.66,2h7.31L41,31H35.52l1.19,2h3a16.71,16.71,0,0,1-1.59,1.67,15.77,15.77,0,0,0,14,3.7A15.54,15.54,0,0,0,64,26.77,15.77,15.77,0,0,0,48.7,7.26Z"/><polygon class="cls-4" points="20.07 27 18.35 27 19.33 20.85 17.14 27 15.98 27 15.83 20.89 14.8 27 13.2 27 14.54 19 17 19 17.07 23.95 18.73 19 21.39 19 20.07 27"/><path class="cls-4" d="M24.69,23.17a2.62,2.62,0,0,0-.37,0c-1,0-1.45.33-1.45,1a.6.6,0,0,0,.61.66C24.17,24.78,24.66,24.12,24.69,23.17ZM25.92,27h-1.4l0-.66a2.11,2.11,0,0,1-1.77.77,1.58,1.58,0,0,1-1.54-1.75c0-1.56,1.09-2.48,3-2.48a6,6,0,0,1,.68.05,1.32,1.32,0,0,0,.07-.41c0-.43-.29-.59-1.08-.59a5.63,5.63,0,0,0-1.79.29c0-.1.23-1.44.23-1.44a6.64,6.64,0,0,1,2-.34c1.46,0,2.22.65,2.22,1.88a8,8,0,0,1-.14,1.27C26.28,24.52,26,26.52,25.92,27Z"/><path class="cls-4" d="M48.57,18.36l-.27,1.71a3.18,3.18,0,0,0-1.51-.43c-1.26,0-2.15,1.22-2.15,3,0,1.2.6,1.92,1.58,1.92a3.21,3.21,0,0,0,1.43-.41l-.29,1.8a5.32,5.32,0,0,1-1.5.23c-1.81,0-3-1.3-3-3.4,0-2.82,1.57-4.79,3.81-4.79A5.73,5.73,0,0,1,48.57,18.36Z"/><path class="cls-4" d="M51.3,23.17a2.83,2.83,0,0,0-.38,0c-1,0-1.44.33-1.44,1a.6.6,0,0,0,.61.66C50.77,24.78,51.27,24.12,51.3,23.17ZM52.53,27h-1.4l0-.66a2.14,2.14,0,0,1-1.77.77,1.57,1.57,0,0,1-1.54-1.75c0-1.56,1.09-2.48,3-2.48a6.21,6.21,0,0,1,.69.05,1.72,1.72,0,0,0,.07-.41c0-.43-.3-.59-1.09-.59a5.61,5.61,0,0,0-1.78.29c0-.1.23-1.44.23-1.44a6.64,6.64,0,0,1,2-.34c1.45,0,2.22.65,2.22,1.88A8,8,0,0,1,53,23.59C52.88,24.52,52.57,26.52,52.53,27Z"/><path class="cls-4" d="M33.43,26.66a3.82,3.82,0,0,1-1.22.21,1.23,1.23,0,0,1-1.33-1.41,14.65,14.65,0,0,1,.23-1.71c.1-.6.73-4.75.73-4.75h1.68l-.2,1h.87L34,22h-.87s-.47,2.63-.47,2.83.17.47.58.47a1.36,1.36,0,0,0,.45-.06Z"/><path class="cls-4" d="M38.57,26.51a5.64,5.64,0,0,1-1.87.26A2.84,2.84,0,0,1,34,24.16c-.1-2.32,1.18-4.06,2.93-4.06a2.15,2.15,0,0,1,2.27,2.32A6.74,6.74,0,0,1,39,24H35.65c-.11.93.48,1.32,1.46,1.32a3.82,3.82,0,0,0,1.74-.41ZM37.63,23c0-.13.18-1.15-.78-1.15-.54,0-.92.41-1.07,1.15Z"/><path class="cls-4" d="M26.93,21.64a1.88,1.88,0,0,0,1.29,1.8c.68.32.79.41.79.71s-.3.58-1,.58a4.61,4.61,0,0,1-1.51-.26L26.29,26a7,7,0,0,0,1.76.19c1.78,0,2.61-.67,2.61-2.14a1.77,1.77,0,0,0-1.19-1.79c-.71-.32-.79-.4-.79-.7S29,21,29.5,21a9.64,9.64,0,0,1,1.22.1L31,19.6a11.41,11.41,0,0,0-1.49-.13C27.58,19.47,26.93,20.46,26.93,21.64Z"/><path class="cls-4" d="M61.49,27H59.87l.08-.61a2,2,0,0,1-1.58.72c-1.24,0-2.06-1.07-2.06-2.7,0-2.16,1.27-4,2.78-4a2,2,0,0,1,1.64.89L61.11,19H62.8ZM59,24.55c.79,0,1.34-.89,1.34-2.16,0-.82-.31-1.26-.89-1.26-.77,0-1.31.89-1.31,2.16C58.11,24.13,58.4,24.55,59,24.55Z"/><path class="cls-4" d="M54.12,21c-.2,1.86-.55,3.74-.83,5.6l-.07.4H54.8c.57-3.67.7-4.39,1.59-4.3A5.84,5.84,0,0,1,57,21c-.66-.13-1,.24-1.52.95a5.76,5.76,0,0,0,.1-.91Z"/><path class="cls-4" d="M40.21,21c-.19,1.86-.55,3.74-.82,5.6l-.07.4H40.9c.56-3.67.7-4.39,1.58-4.3a6.47,6.47,0,0,1,.6-1.74c-.66-.13-1,.24-1.51.95a4.76,4.76,0,0,0,.09-.91Z"/></g></g></svg>