<svg xmlns="http://www.w3.org/2000/svg" xmlns:xlink="http://www.w3.org/1999/xlink" viewBox="0 0 71 41"><defs><style>.cls-1{fill:#999;opacity:0;}.cls-2{fill:#e40520;}.cls-3{fill:#feab43;}.cls-4{fill:#fff;}</style><symbol id="Новый_символ_54" data-name="Новый символ 54" viewBox="0 0 76 44"><rect class="cls-1" width="76" height="44"/><path class="cls-2" d="M43.11,21.67A15.56,15.56,0,1,1,27.56,6.11,15.55,15.55,0,0,1,43.11,21.67Z"/><path class="cls-3" d="M48.42,6.26a15.66,15.66,0,0,0-10.56,4.07A16.71,16.71,0,0,0,36.27,12h3.3l1.19,2H35.24l-.89,1h7.3l.66,2H33.69l-.45,2h9.52a14.89,14.89,0,0,1,.35,2.67,19,19,0,0,1-.8,4.33H33.69l.66,2h7.3l-.89,2H35.24l1.19,2h3a16.71,16.71,0,0,1-1.59,1.67,15.75,15.75,0,0,0,14,3.7,15.54,15.54,0,0,0,11.86-11.6A15.77,15.77,0,0,0,48.42,6.26Z"/><polygon class="cls-4" points="20.07 26 18.35 26 19.33 19.85 17.14 26 15.98 26 15.83 19.89 14.8 26 13.2 26 14.54 18 17 18 17.07 22.95 18.73 18 21.39 18 20.07 26"/><path class="cls-4" d="M24.41,22.9a2.76,2.76,0,0,0-.38,0c-1,0-1.44.32-1.44,1a.6.6,0,0,0,.61.66C23.89,24.51,24.38,23.85,24.41,22.9ZM25.64,26h-1.4l0-.66a2.13,2.13,0,0,1-1.77.77A1.58,1.58,0,0,1,21,24.36c0-1.56,1.09-2.48,3-2.48a6,6,0,0,1,.69.05,1.72,1.72,0,0,0,.07-.41c0-.43-.3-.59-1.08-.59a5.63,5.63,0,0,0-1.79.29c0-.1.23-1.44.23-1.44a6.64,6.64,0,0,1,2-.34c1.45,0,2.22.65,2.22,1.88a8,8,0,0,1-.14,1.27C26,23.52,25.68,25.52,25.64,26Z"/><path class="cls-4" d="M48.29,18.08,48,19.8a3.14,3.14,0,0,0-1.5-.43c-1.26,0-2.15,1.22-2.15,3,0,1.19.6,1.92,1.58,1.92a3.24,3.24,0,0,0,1.43-.41l-.3,1.8a5.21,5.21,0,0,1-1.49.23c-1.82,0-2.95-1.31-2.95-3.4,0-2.83,1.57-4.8,3.81-4.8A6.08,6.08,0,0,1,48.29,18.08Z"/><path class="cls-4" d="M51,22.9a2.83,2.83,0,0,0-.38,0c-1,0-1.44.32-1.44,1a.59.59,0,0,0,.6.66C50.49,24.51,51,23.85,51,22.9ZM52.25,26h-1.4l0-.66a2.14,2.14,0,0,1-1.77.77,1.57,1.57,0,0,1-1.54-1.75c0-1.56,1.09-2.48,3-2.48a6.21,6.21,0,0,1,.69.05,1.58,1.58,0,0,0,.06-.41c0-.43-.29-.59-1.08-.59a5.69,5.69,0,0,0-1.79.29c0-.1.24-1.44.24-1.44a6.59,6.59,0,0,1,2-.34c1.45,0,2.22.65,2.22,1.88a9.32,9.32,0,0,1-.14,1.27C52.6,23.52,52.29,25.52,52.25,26Z"/><path class="cls-4" d="M33.14,25.66a3.71,3.71,0,0,1-1.21.21,1.23,1.23,0,0,1-1.33-1.41,12.73,12.73,0,0,1,.23-1.71c.1-.6.73-4.75.73-4.75h1.68L33,19h.86l-.22,2h-.87s-.47,2.63-.48,2.83.18.47.58.47a1.42,1.42,0,0,0,.46-.06Z"/><path class="cls-4" d="M38.29,25.51a5.68,5.68,0,0,1-1.87.26,2.84,2.84,0,0,1-2.7-2.61c-.1-2.32,1.17-4.06,2.93-4.06a2.15,2.15,0,0,1,2.27,2.32A6.74,6.74,0,0,1,38.71,23H35.37c-.12.93.48,1.32,1.46,1.32a3.82,3.82,0,0,0,1.74-.41ZM37.35,22c0-.13.18-1.15-.78-1.15-.54,0-.92.41-1.08,1.15Z"/><path class="cls-4" d="M26.65,21.37a1.87,1.87,0,0,0,1.29,1.79c.68.33.79.42.79.71s-.3.58-1,.58a4.65,4.65,0,0,1-1.52-.25L26,25.68a7.59,7.59,0,0,0,1.76.19c1.78,0,2.61-.68,2.61-2.14a1.76,1.76,0,0,0-1.2-1.79c-.7-.33-.78-.4-.78-.7s.28-.52.82-.52a9.48,9.48,0,0,1,1.22.09l.24-1.48a11.41,11.41,0,0,0-1.49-.13C27.3,19.2,26.65,20.19,26.65,21.37Z"/><path class="cls-4" d="M61.21,26H59.59l.08-.61a2,2,0,0,1-1.58.72C56.85,26.11,56,25,56,23.41c0-2.16,1.28-4,2.79-4a2,2,0,0,1,1.64.89L60.83,18h1.68Zm-2.52-1.72c.79,0,1.34-.89,1.34-2.16,0-.82-.31-1.26-.89-1.26-.77,0-1.31.89-1.31,2.15C57.83,23.85,58.12,24.28,58.69,24.28Z"/><path class="cls-4" d="M53.84,20c-.2,1.86-.55,3.74-.83,5.6l-.07.4h1.58c.56-3.67.7-4.39,1.59-4.3a5.84,5.84,0,0,1,.6-1.74c-.67-.13-1,.24-1.52.95a5.76,5.76,0,0,0,.1-.91Z"/><path class="cls-4" d="M39.93,20c-.2,1.86-.55,3.74-.82,5.6L39,26h1.58c.56-3.67.7-4.39,1.58-4.3A6.13,6.13,0,0,1,42.8,20c-.66-.13-1,.24-1.51.95a4.76,4.76,0,0,0,.09-.91Z"/></symbol></defs><title>mastercard</title><g id="Слой_2" data-name="Слой 2"><g id="Слой_1-2" data-name="Слой 1"><use id="Новый_символ_54-3" data-name="Новый символ 54" width="76" height="44" transform="scale(0.93 0.93)" xlink:href="#Новый_символ_54"/></g></g></svg>