<svg xmlns="http://www.w3.org/2000/svg" viewBox="0 0 68.75 68"><defs><style>.cls-1{fill:#009ade;}.cls-2{fill:#002f87;}.cls-3{fill:#002169;}</style></defs><title>paypal</title><g id="Слой_2" data-name="Слой 2"><g id="Слой_1-2" data-name="Слой 1"><path class="cls-1" d="M46.36,50H41a.73.73,0,0,0-.73.63L38.12,64.49a.44.44,0,0,0,.44.51h2.75a.53.53,0,0,0,.52-.44l.62-3.93a.73.73,0,0,1,.73-.63h1.65c3.56,0,5.62-1.72,6.15-5.13a4.16,4.16,0,0,0-.69-3.49A5,5,0,0,0,46.36,50ZM47,55.06C46.72,57,45.24,57,43.8,57H43l.57-3.62A.44.44,0,0,1,44,53h.38c1,0,1.89,0,2.37.56A1.79,1.79,0,0,1,47,55.06Z"/><path class="cls-2" d="M8.24,50H2.92a.75.75,0,0,0-.73.63L0,64.49A.43.43,0,0,0,.45,65H3a.74.74,0,0,0,.73-.63l.59-3.74A.75.75,0,0,1,5.07,60H6.72c3.56,0,5.61-1.72,6.15-5.13a4.16,4.16,0,0,0-.69-3.49A5,5,0,0,0,8.24,50Zm.66,5.06C8.6,57,7.12,57,5.69,57H4.87l.58-3.62A.44.44,0,0,1,5.89,53h.37c1,0,1.9,0,2.37.56A1.79,1.79,0,0,1,8.9,55.06Z"/><path class="cls-2" d="M24.74,55.51A.44.44,0,0,0,24.3,55H21.71a.45.45,0,0,0-.45.38l-.11.72L21,55.84a3.69,3.69,0,0,0-3.06-1.08A5.93,5.93,0,0,0,12.15,60a4.86,4.86,0,0,0,1,4,4.06,4.06,0,0,0,3.25,1.31,5,5,0,0,0,3.58-1.48l-.11.72a.44.44,0,0,0,.44.52H22.6a.75.75,0,0,0,.74-.63Zm-4.07,4.11a2.86,2.86,0,0,1-2.89,2.44,2,2,0,0,1-2.12-2.49,2.86,2.86,0,0,1,2.87-2.46,2.14,2.14,0,0,1,1.7.7A2.22,2.22,0,0,1,20.67,59.62Z"/><path class="cls-1" d="M62.85,55.51a.44.44,0,0,0-.44-.51H59.82a.44.44,0,0,0-.44.38l-.12.72-.18-.26a3.69,3.69,0,0,0-3-1.08A5.93,5.93,0,0,0,50.26,60a4.86,4.86,0,0,0,1,4,4.08,4.08,0,0,0,3.26,1.31,5,5,0,0,0,3.58-1.48l-.12.72a.45.45,0,0,0,.44.52h2.34a.75.75,0,0,0,.73-.63Zm-4.07,4.11a2.86,2.86,0,0,1-2.89,2.44,2.18,2.18,0,0,1-1.72-.69,2.21,2.21,0,0,1-.4-1.8,2.86,2.86,0,0,1,2.87-2.46,2.15,2.15,0,0,1,1.71.7A2.22,2.22,0,0,1,58.78,59.62Z"/><path class="cls-2" d="M37.68,55H35.21a.73.73,0,0,0-.61.33L31.15,60.4,29.7,55.53A.76.76,0,0,0,29,55H26.56a.44.44,0,0,0-.42.59l2.74,8.07L26.31,67.3a.44.44,0,0,0,.36.7h2.47a.75.75,0,0,0,.61-.32l8.3-12A.45.45,0,0,0,37.68,55Z"/><path class="cls-1" d="M65.36,50.38,63.14,64.49a.44.44,0,0,0,.44.51h2.24a.73.73,0,0,0,.73-.63l2.19-13.86A.44.44,0,0,0,68.3,50H65.8A.44.44,0,0,0,65.36,50.38Z"/><path class="cls-1" d="M51,11.26c.54-3.44,0-5.79-1.87-7.92C47.1,1,43.39,0,38.65,0H24.84A2,2,0,0,0,22.9,1.66l-5.68,36A1.19,1.19,0,0,0,18.39,39h8.47l-.6,3.8a1,1,0,0,0,1,1.2h7.24a1.67,1.67,0,0,0,1.66-1.42l.07-.35,1.32-8.35.08-.46A1.69,1.69,0,0,1,39.31,32h1.14c6.95,0,12.39-2.82,14-11,.66-3.42.32-6.26-1.44-8.26a6.78,6.78,0,0,0-2-1.52h0"/><path class="cls-3" d="M51,11.26c.54-3.44,0-5.79-1.87-7.92C47.1,1,43.39,0,38.65,0H24.9A2,2,0,0,0,23,1.66l-5.83,37A1.19,1.19,0,0,0,18.29,40h8.54L29,26.26l-.07.43a2,2,0,0,1,2-1.69h4c7.94,0,14.16-3.23,16-12.56,0-.27.1-.54.14-.8"/><path class="cls-2" d="M31.31,11.48A1.74,1.74,0,0,1,33,10H43.78a22.7,22.7,0,0,1,3.61.26c.32.05.63.11.92.18l.88.22.41.13a9.9,9.9,0,0,1,1.52.64c.54-3.5,0-5.88-1.9-8C47.13,1,43.37,0,38.55,0H24.9A2,2,0,0,0,23,1.66l-5.83,37A1.19,1.19,0,0,0,18.29,40h8.52L29,26.25Z"/></g></g></svg>