<svg xmlns="http://www.w3.org/2000/svg" xmlns:xlink="http://www.w3.org/1999/xlink" viewBox="0 0 71 41"><defs><style>.cls-1{fill:#999;opacity:0;}.cls-2{fill:#009ade;}.cls-3{fill:#002f87;}</style><symbol id="Новый_символ_57" data-name="Новый символ 57" viewBox="0 0 76 44"><rect class="cls-1" width="76" height="44"/><path class="cls-2" d="M49.22,13h-5a.71.71,0,0,0-.69.58l-2,12.94a.42.42,0,0,0,.41.48h2.54a.48.48,0,0,0,.48-.41l.63-4a.69.69,0,0,1,.68-.58h1.62c3.2,0,5-1.55,5.54-4.62a3.81,3.81,0,0,0-.62-3.14A4.54,4.54,0,0,0,49.22,13Zm.69,5.06C49.62,20,48.14,20,46.71,20h-.82l.57-3.62a.46.46,0,0,1,.45-.38h.37c1,0,1.9,0,2.37.56A1.76,1.76,0,0,1,49.91,18.06Z"/><path class="cls-3" d="M13.72,13h-5a.69.69,0,0,0-.68.58L6,26.52A.41.41,0,0,0,6.4,27H8.76a.69.69,0,0,0,.68-.58l.61-3.84a.69.69,0,0,1,.68-.58h1.62c3.2,0,5-1.55,5.53-4.62a3.74,3.74,0,0,0-.62-3.14A4.52,4.52,0,0,0,13.72,13Zm.69,5.06C14.11,20,12.63,20,11.2,20h-.82L11,16.38A.44.44,0,0,1,11.4,16h.37c1,0,1.9,0,2.37.56A1.76,1.76,0,0,1,14.41,18.06Z"/><path class="cls-3" d="M28.82,18.48a.41.41,0,0,0-.41-.48H26.1a.4.4,0,0,0-.4.34l-.1.65-.16-.23a3.33,3.33,0,0,0-2.75-1,5.34,5.34,0,0,0-5.19,4.68A4.37,4.37,0,0,0,18.36,26a3.63,3.63,0,0,0,2.93,1.19,4.46,4.46,0,0,0,3.22-1.33l-.1.64a.4.4,0,0,0,.4.47h2.08a.69.69,0,0,0,.68-.58Zm-3.58,3.9a2.65,2.65,0,0,1-2.69,2.28,1.85,1.85,0,0,1-2-2.32,2.67,2.67,0,0,1,2.67-2.29,2,2,0,0,1,1.59.65A2.05,2.05,0,0,1,25.24,22.38Z"/><path class="cls-2" d="M64.33,18.48a.41.41,0,0,0-.41-.48H61.61a.4.4,0,0,0-.4.34L61.1,19l-.16-.23a3.31,3.31,0,0,0-2.75-1A5.35,5.35,0,0,0,53,22.46,4.41,4.41,0,0,0,53.87,26a3.63,3.63,0,0,0,2.93,1.19A4.46,4.46,0,0,0,60,25.89l-.11.64a.41.41,0,0,0,.4.47h2.08a.71.71,0,0,0,.69-.58Zm-3.59,3.9a2.65,2.65,0,0,1-2.69,2.28,2,2,0,0,1-1.6-.64,2,2,0,0,1-.37-1.68,2.66,2.66,0,0,1,2.67-2.29,2,2,0,0,1,1.59.65A2,2,0,0,1,60.74,22.38Z"/><path class="cls-3" d="M41,18H38.77a.7.7,0,0,0-.58.3L35,23l-1.35-4.49A.7.7,0,0,0,33,18H30.78a.41.41,0,0,0-.39.55L32.92,26l-2.37,3.36a.41.41,0,0,0,.34.65h2.26a.68.68,0,0,0,.57-.3l7.66-11A.42.42,0,0,0,41,18Z"/><path class="cls-2" d="M66.87,13.35,64.8,26.52a.41.41,0,0,0,.41.48H67.3a.71.71,0,0,0,.69-.58l2-12.94a.42.42,0,0,0-.41-.48H67.28A.42.42,0,0,0,66.87,13.35Z"/></symbol></defs><title>paypal</title><g id="Слой_2" data-name="Слой 2"><g id="Слой_1-2" data-name="Слой 1"><use id="Новый_символ_57-3" data-name="Новый символ 57" width="76" height="44" transform="scale(0.93 0.93)" xlink:href="#Новый_символ_57"/></g></g></svg>