<svg xmlns="http://www.w3.org/2000/svg" viewBox="0 0 51.47 80"><defs><style>.cls-1{fill:#f18b00;}.cls-1,.cls-2{fill-rule:evenodd;}.cls-2{fill:#0d61ab;}</style></defs><title>qiwi</title><g id="Слой_2" data-name="Слой 2"><g id="Слой_1-2" data-name="Слой 1"><path class="cls-1" d="M43,36.41a8.54,8.54,0,0,0-2.73-4.77,7.07,7.07,0,0,0-1.65-1.2,6.18,6.18,0,0,0-1-.45,5.74,5.74,0,0,0-2.73-.45,5.23,5.23,0,0,1,2.27-.29,10.7,10.7,0,0,1,1.93.46l1.54.85a18.92,18.92,0,0,0-.63-12.11A21.54,21.54,0,0,0,34.2,9.93,19.48,19.48,0,0,0,24.71,5a15.81,15.81,0,0,0-6.25.06,13.92,13.92,0,0,0-4.83,2.33,14.29,14.29,0,0,0-3.35,3.86,7.68,7.68,0,0,0-.69,1.14c-.17.43-.37.84-.56,1.25a17.66,17.66,0,0,0-.8,2.78A18,18,0,0,0,8,22.89a21.38,21.38,0,0,0,1.54,5.62c.41.8.79,1.64,1.25,2.39A22.48,22.48,0,0,0,12.26,33a21.84,21.84,0,0,0,3.81,3.36,20.87,20.87,0,0,0,10.8,3.58c.09-.19-.12-.56-.17-.8s-.1-.59-.17-.85a7.79,7.79,0,0,1,0-1.93c.18,0,.17.27.28.39s.14.29.29.34a6,6,0,0,0,.51.8,7.07,7.07,0,0,0,1.31,1.31,9.34,9.34,0,0,0,1.53,1.08,9.09,9.09,0,0,0,1.71.85,13.51,13.51,0,0,0,4.14,1c1.52.21,3,.47,4.38.8a16.79,16.79,0,0,1,3.64,1.53,17.23,17.23,0,0,1,1.59,1,5.19,5.19,0,0,1,.74.57c.3.12.43.41.73.51a24.34,24.34,0,0,1,2.51,2.67,12.25,12.25,0,0,1,1,1.65c.21.23.27.61.46.85,0,.33.32.72,0,1-.42.06-.33-.38-.51-.57a4.06,4.06,0,0,1-.4-.68c-.66-.7-1.26-1.46-2-2.1a15.11,15.11,0,0,0-2.27-1.76,17.29,17.29,0,0,0-5.57-2.56,20.76,20.76,0,0,0-7.21-.68,15.79,15.79,0,0,0-3.36.74,32.47,32.47,0,0,1-3.46.56,28.64,28.64,0,0,1-13.3-2.5,20.6,20.6,0,0,1-5-3.12,15.88,15.88,0,0,1-2.11-2,13.8,13.8,0,0,1-1.7-2.33A22.86,22.86,0,0,1,3,33.12a24.31,24.31,0,0,1-1-3,14.82,14.82,0,0,1-.68-3.41c0-.34-.18-1-.17-1.53,0-.05.06-.09.05-.17a5.7,5.7,0,0,1,0-1.65,17.77,17.77,0,0,1,.4-3.58,21.09,21.09,0,0,1,.85-3.18c.34-1,.79-1.94,1.2-2.9.27-.41.48-.88.73-1.31s.55-.78.74-1.25c.22-.12.26-.42.46-.57s.32-.35.4-.62a2.1,2.1,0,0,0,.45-.57,2,2,0,0,0,.46-.57c.67-.67,1.28-1.41,2-2s1.49-1.24,2.22-1.88c.46-.22.8-.57,1.25-.79s.85-.48,1.19-.8A29.78,29.78,0,0,1,16.3,2,23.33,23.33,0,0,1,19.25.89,24.21,24.21,0,0,1,26.36,0c.1,0,.14-.1.17,0a22.36,22.36,0,0,1,12.1,3.81A21.4,21.4,0,0,1,46,12.32,22.36,22.36,0,0,1,47.9,25.56,27.05,27.05,0,0,1,46,31.64,27.51,27.51,0,0,1,44.6,34.2a7.5,7.5,0,0,1-.8,1.19,2.3,2.3,0,0,1-.39.57,3.11,3.11,0,0,1-.23.28s0,.1-.11.12S43,36.47,43,36.41Z"/><path class="cls-1" d="M41.65,37.89c-.67-.26-.78-1.08-1.08-1.71a1.26,1.26,0,0,1,0-.79s0-.06.11-.06.33,0,.57.12a3.55,3.55,0,0,1,.68,1.42C41.94,37.31,42,37.78,41.65,37.89Z"/><path class="cls-1" d="M36.64,36.92c0-.06.06,0,.06,0,1,.13,1.47.81,1.54,1.88a1.22,1.22,0,0,1-1,1.08,1.75,1.75,0,0,1-1.65-2.5C35.89,37.16,36.08,36.86,36.64,36.92Z"/><path class="cls-2" d="M9.37,74.77a3.74,3.74,0,0,0,.91,1.65,4.55,4.55,0,0,0,1.42,1.14,6.92,6.92,0,0,0,1.76.79,4.35,4.35,0,0,0,1,.29c.27.14.61.22.63.62s-.34.65-.74.74a6.61,6.61,0,0,1-1.25-.23,10.69,10.69,0,0,1-2.28-.62,10.54,10.54,0,0,1-3.52-2.28c-.2-.33-.47-.59-.68-.91s-.35-.7-.57-1a7,7,0,0,1-3.86-1.87,8.16,8.16,0,0,1-2-4A11.82,11.82,0,0,1,.39,63.8,6.89,6.89,0,0,1,7,58.46a8.57,8.57,0,0,1,2.73.46,6.5,6.5,0,0,1,2.21,1.42.41.41,0,0,1,.12.11c.13.19.44.45.62.68,0,0,0,.12.06.17s.17.14.23.23,0,.12.05.17a2.91,2.91,0,0,1,.17.28c0,.05.1.08.12.12s.14.41.22.62a5.89,5.89,0,0,1,.29.63,10.79,10.79,0,0,1,.45,2.21,10.11,10.11,0,0,1-1.08,5.86,6.33,6.33,0,0,1-1.59,2A8.63,8.63,0,0,1,9.37,74.77ZM6.64,61a4.17,4.17,0,0,0-1.19.4,4,4,0,0,0-.8.74c-.33.18-.42.6-.68.85a9.6,9.6,0,0,0-.57,1.87,13.86,13.86,0,0,0-.23,2.28A9.59,9.59,0,0,0,4.36,72.2a5.1,5.1,0,0,0,1.71,1.36c.4,0,.71.16,1.14.17.23-.09.64,0,.79-.17.35,0,.44-.21.74-.23a1.83,1.83,0,0,1,.57-.4c.2-.23.4-.46.62-.68s.18-.39.35-.51a11.92,11.92,0,0,0,.45-7.56,6.84,6.84,0,0,0-1-2,5.54,5.54,0,0,0-1.47-1.08,5.1,5.1,0,0,0-1.48-.17s-.07,0-.06.06Z"/><path class="cls-2" d="M18.63,58.86a22.21,22.21,0,0,1,2.73.06,1.57,1.57,0,0,1,.11.91c.06,4.17,0,8.63,0,12.89,0,.35,0,.69,0,1a1.55,1.55,0,0,1-.11.85,7,7,0,0,1-1.48.06,3.31,3.31,0,0,1-1.42-.12c-.1-5-.1-10.47,0-15.51A.29.29,0,0,1,18.63,58.86Z"/><path class="cls-2" d="M25.33,59H28a3.21,3.21,0,0,1,.4,1.32c.81,3.11,1.62,6.21,2.36,9.38.18,0,.12-.18.17-.28s0-.28.12-.35c0-.25.19-.39.17-.69.21-.39.27-.92.46-1.32.24-.94.54-1.8.81-2.71s.6-1.78.8-2.76c.38-.79.47-1.87.92-2.59H35.4c.42.78.57,1.82.93,2.65s.56,1.78.8,2.7c.57,1.79,1.15,3.57,1.67,5.41a8.49,8.49,0,0,0,.4-1.32,8.61,8.61,0,0,1,.35-1.33c.44-1.81.86-3.66,1.38-5.4a18.3,18.3,0,0,1,.69-2.65,9.32,9.32,0,0,1,2.36,0,5.32,5.32,0,0,1-.46,2c-.11.74-.38,1.31-.52,2-.41,1.29-.73,2.68-1.15,4s-.76,2.65-1.09,4c-.22.64-.39,1.34-.58,2a9.63,9.63,0,0,1-.63,1.9H37.94c-.41-.72-.56-1.71-.92-2.47-.8-2.54-1.7-5-2.48-7.54-.27.28-.26.84-.46,1.2a11.79,11.79,0,0,1-.4,1.27c-.22.88-.56,1.63-.75,2.53a24.3,24.3,0,0,0-.8,2.54,25.4,25.4,0,0,1-.87,2.41,9.28,9.28,0,0,1-1.61.06c-.4-.46-.44-1.28-.69-1.9s-.33-1.36-.58-2c-.3-1.4-.77-2.64-1.09-4s-.77-2.64-1.15-4c-.21-.63-.37-1.32-.58-2s-.56-1.32-.4-2.07A.41.41,0,0,1,25.33,59Z"/><path class="cls-2" d="M47.9,58.86a22,22,0,0,1,2.72.06,5.81,5.81,0,0,1,.12,1.87V72.72a5.87,5.87,0,0,1-.12,1.88,16.52,16.52,0,0,1-2.27.06c-.22,0-.48,0-.62-.12-.2-.59-.12-1.22,1-1.87V60.85c-1.13-.72-1.19-1.41-1-1.88A.42.42,0,0,1,47.9,58.86Z"/></g></g></svg>