<svg xmlns="http://www.w3.org/2000/svg" xmlns:xlink="http://www.w3.org/1999/xlink" viewBox="0 0 71 41"><defs><style>.cls-1{fill:#f18b00;}.cls-1,.cls-2{fill-rule:evenodd;}.cls-2{fill:#0d61ab;}.cls-3{fill:#999;opacity:0;}</style><symbol id="Новый_символ_59" data-name="Новый символ 59" viewBox="0 0 76 44"><path class="cls-1" d="M45.71,20.4a3.77,3.77,0,0,0-1.22-2.13,3.15,3.15,0,0,0-.73-.54,2.89,2.89,0,0,0-.43-.2,2.58,2.58,0,0,0-1.22-.2,2.39,2.39,0,0,1,1-.13,5.55,5.55,0,0,1,.87.2l.68.39a8.45,8.45,0,0,0-.28-5.41,9.57,9.57,0,0,0-2.61-3.8,8.69,8.69,0,0,0-4.24-2.19,6.89,6.89,0,0,0-2.79,0,6.24,6.24,0,0,0-2.15,1,6.35,6.35,0,0,0-1.5,1.72,3.3,3.3,0,0,0-.31.51,5.62,5.62,0,0,1-.25.56,8.59,8.59,0,0,0-.36,1.24,8.34,8.34,0,0,0-.1,2.87,9.59,9.59,0,0,0,.69,2.51c.18.36.35.73.56,1.07a8.81,8.81,0,0,0,.66.94,9.32,9.32,0,0,0,1.7,1.49A9.2,9.2,0,0,0,38.51,22c0-.08-.06-.25-.08-.35a3.61,3.61,0,0,0-.08-.38,4.22,4.22,0,0,1,0-.87c.08,0,.08.13.13.18s.06.13.13.15a2.21,2.21,0,0,0,.23.36,2.9,2.9,0,0,0,.58.58,3.63,3.63,0,0,0,.68.48,3.94,3.94,0,0,0,.77.38,5.91,5.91,0,0,0,1.85.46,18.76,18.76,0,0,1,2,.36,7.17,7.17,0,0,1,1.62.68,5.76,5.76,0,0,1,.71.46,1.37,1.37,0,0,1,.33.25c.14.05.2.18.33.23a9.68,9.68,0,0,1,1.12,1.19,4.47,4.47,0,0,1,.43.74c.1.1.12.27.21.38s.14.31,0,.43-.15-.17-.23-.25a2.29,2.29,0,0,1-.18-.31c-.29-.31-.56-.65-.88-.94a7.06,7.06,0,0,0-1-.78,7.87,7.87,0,0,0-2.48-1.15,9.41,9.41,0,0,0-3.23-.3,7.25,7.25,0,0,0-1.49.33,14.34,14.34,0,0,1-1.55.25,12.8,12.8,0,0,1-5.94-1.11A9.56,9.56,0,0,1,30.21,22a6.57,6.57,0,0,1-.94-.89,5.67,5.67,0,0,1-.76-1,10,10,0,0,1-.66-1.16,10.69,10.69,0,0,1-.46-1.35,6.82,6.82,0,0,1-.3-1.52c0-.15-.08-.45-.08-.69,0,0,0,0,0-.07a2.62,2.62,0,0,1,0-.74,7.77,7.77,0,0,1,.18-1.6,9,9,0,0,1,.38-1.42c.15-.45.35-.86.53-1.29.12-.18.21-.39.33-.58s.24-.35.33-.56c.1-.06.11-.19.2-.25s.15-.16.18-.28a.86.86,0,0,0,.2-.26.74.74,0,0,0,.21-.25c.3-.3.57-.63.88-.91s.67-.56,1-.84c.21-.1.36-.26.56-.36s.38-.21.53-.35A13,13,0,0,1,33.79,5a9.75,9.75,0,0,1,1.32-.48,10.73,10.73,0,0,1,3.17-.38s.06,0,.07,0a10,10,0,0,1,5.41,1.7,9.69,9.69,0,0,1,3.3,3.78,10,10,0,0,1,.83,5.91,11.87,11.87,0,0,1-.83,2.72c-.21.38-.4.79-.64,1.14a3.24,3.24,0,0,1-.35.53,1.2,1.2,0,0,1-.18.26l-.1.12s0,.05,0,.05S45.71,20.42,45.71,20.4Z"/><path class="cls-1" d="M45.1,21.06c-.3-.12-.35-.48-.48-.76a.73.73,0,0,1,0-.36l.05,0c.08-.05.15,0,.25,0a1.49,1.49,0,0,1,.31.63C45.23,20.8,45.25,21,45.1,21.06Z"/><path class="cls-1" d="M42.87,20.63s0,0,0,0c.45.05.65.35.68.83a.55.55,0,0,1-.43.49.79.79,0,0,1-.74-1.12C42.53,20.73,42.62,20.6,42.87,20.63Z"/><path class="cls-2" d="M30.69,37.52a1.67,1.67,0,0,0,.41.74,2.11,2.11,0,0,0,.63.51,3.16,3.16,0,0,0,.79.35,1.92,1.92,0,0,0,.46.13c.12.06.27.1.27.28s-.14.29-.32.33a2.92,2.92,0,0,1-.56-.11,4.35,4.35,0,0,1-1-.27,4.64,4.64,0,0,1-1.57-1c-.09-.15-.21-.26-.31-.41s-.15-.31-.25-.45a3.11,3.11,0,0,1-1.72-.84,3.65,3.65,0,0,1-.89-1.8,5.38,5.38,0,0,1,.07-2.33,3.08,3.08,0,0,1,2.95-2.39,4.08,4.08,0,0,1,1.21.2,3,3,0,0,1,1,.64s0,0,.05.05.2.2.28.3,0,.06,0,.08l.1.1s0,.05,0,.08l.07.12s0,0,0,.05.06.19.1.28a2.28,2.28,0,0,1,.13.28,4.68,4.68,0,0,1,.2,1A4.51,4.51,0,0,1,32.39,36a2.78,2.78,0,0,1-.71.88A3.43,3.43,0,0,1,30.69,37.52Zm-1.22-6.39a1.74,1.74,0,0,0-.53.18,1.83,1.83,0,0,0-.35.33c-.15.08-.19.27-.31.38a4.28,4.28,0,0,0-.25.83,5.6,5.6,0,0,0-.1,1,4.23,4.23,0,0,0,.53,2.26,2.18,2.18,0,0,0,.76.61c.18,0,.32.07.51.07s.28,0,.35-.07.2-.1.33-.11a.78.78,0,0,1,.26-.17,4.12,4.12,0,0,1,.28-.31c.05-.07.07-.17.15-.23a5.29,5.29,0,0,0,.2-3.37,2.84,2.84,0,0,0-.43-.89,2.66,2.66,0,0,0-.66-.48,2.17,2.17,0,0,0-.66-.08s0,0,0,0Z"/><path class="cls-2" d="M34.83,30.42c.4,0,.86,0,1.22,0,.08.13,0,.27.05.41,0,1.86,0,3.86,0,5.76v.46a.83.83,0,0,1-.05.38,3.5,3.5,0,0,1-.66,0,1.6,1.6,0,0,1-.64,0c0-2.25,0-4.68,0-6.93A.14.14,0,0,1,34.83,30.42Z"/><path class="cls-2" d="M37.87,30.42h1.19a1.47,1.47,0,0,1,.18.58c.36,1.37.72,2.74,1,4.14.08,0,0-.09.08-.13s0-.12,0-.15.08-.17.08-.31.11-.4.2-.58c.1-.41.24-.79.35-1.19s.27-.79.36-1.22.21-.82.4-1.14h.51c.18.34.25.8.41,1.17s.24.78.35,1.19c.25.79.51,1.57.74,2.38a4.39,4.39,0,0,0,.18-.58,3.28,3.28,0,0,1,.15-.58c.19-.81.38-1.62.61-2.39a8.34,8.34,0,0,1,.3-1.17,4.52,4.52,0,0,1,1,0,2.23,2.23,0,0,1-.2.89c0,.33-.17.58-.23.89-.18.57-.32,1.18-.51,1.75s-.33,1.17-.48,1.78c-.1.28-.17.59-.25.88a4.6,4.6,0,0,1-.28.84h-.71c-.18-.32-.25-.75-.41-1.09-.35-1.12-.75-2.19-1.09-3.32-.12.12-.12.37-.2.53s-.11.38-.18.56c-.1.38-.24.72-.33,1.11a9.75,9.75,0,0,0-.35,1.12c-.15.33-.21.76-.38,1.07a4.12,4.12,0,0,1-.71,0c-.18-.2-.2-.56-.31-.84s-.14-.59-.25-.86c-.14-.62-.35-1.16-.49-1.77s-.34-1.17-.5-1.75c-.09-.29-.17-.59-.26-.87s-.24-.58-.17-.91A.13.13,0,0,1,37.87,30.42Z"/><path class="cls-2" d="M47.89,30.42c.4,0,.86,0,1.22,0a2.61,2.61,0,0,1,0,.84v5.33a2.61,2.61,0,0,1,0,.84,6.64,6.64,0,0,1-1,0c-.1,0-.22,0-.28,0a2.59,2.59,0,0,1,0-.84V31.31a2.72,2.72,0,0,1,0-.84A.18.18,0,0,1,47.89,30.42Z"/><rect class="cls-3" width="76" height="44"/></symbol></defs><title>qiwi</title><g id="Слой_2" data-name="Слой 2"><g id="Слой_1-2" data-name="Слой 1"><use width="76" height="44" transform="scale(0.93 0.93)" xlink:href="#Новый_символ_59"/></g></g></svg>