<svg xmlns="http://www.w3.org/2000/svg" viewBox="0 0 60 19.26"><defs><style>.cls-1{fill:#005098;}.cls-2{fill:#f6a500;}</style></defs><title>visa</title><g id="Слой_2" data-name="Слой 2"><g id="Слой_1-2" data-name="Слой 1"><polygon class="cls-1" points="21.1 19.26 24.16 1.26 29.07 1.26 26 19.26 21.1 19.26"/><path class="cls-1" d="M43.61.75A12.55,12.55,0,0,0,39.26,0c-4.8,0-8.18,2.42-8.21,5.88,0,2.56,2.41,4,4.25,4.84s2.53,1.43,2.52,2.21c0,1.2-1.51,1.74-2.9,1.74a10.28,10.28,0,0,1-4.58-.93l-.62-.28-.68,4a15.7,15.7,0,0,0,5.41.95c5.1,0,8.42-2.39,8.46-6.09,0-2-1.28-3.57-4.08-4.84-1.7-.83-2.74-1.38-2.73-2.21S37,3.72,38.88,3.72a8.91,8.91,0,0,1,3.64.69l.43.2L43.61.75"/><path class="cls-1" d="M56.05,1.26H52.37A2.43,2.43,0,0,0,49.8,2.75L42.5,19.26h5.16s.83-2.59,1-3H54.9c.15.56.59,3,.59,3H60L56.07,1.45m-6,10.81,1.93-5s.4-1,.65-1.7L53,7.11s.93,4.26,1.12,5.15Z"/><path class="cls-1" d="M17.1,1.26,12.29,13.55l-.51-2.49A14.07,14.07,0,0,0,5,3.49l4.4,15.77h5.2l7.74-18H17.05"/><path class="cls-2" d="M8.05,1.26h-8L0,1.63c6.09,1.48,10.13,5,11.8,9.32L10.1,2.76a2,2,0,0,0-2.2-1.5"/></g></g></svg>