<svg xmlns="http://www.w3.org/2000/svg" xmlns:xlink="http://www.w3.org/1999/xlink" viewBox="0 0 72 41"><defs><style>.cls-1{fill:#999;opacity:0;}.cls-2{fill:#ffcf00;}.cls-3{fill:#d7b000;}.cls-4{fill:#1d1d1b;}</style><symbol id="Новый_символ_60" data-name="Новый символ 60" viewBox="0 0 76 44"><rect class="cls-1" width="76" height="44"/><path class="cls-2" d="M24.42,21.86c0-2,.17-3.28,4.32-6.38C32.18,12.91,43.2,4.14,43.2,4.14V18.78h8.38V39.86H27a2.63,2.63,0,0,1-2.62-2.62Z"/><polygon class="cls-3" points="43.2 18.78 43.2 27.27 27.8 37.76 47.27 31.42 47.27 18.78 43.2 18.78"/><path class="cls-4" d="M36.16,18.35c.9-1.08,2.22-1.46,2.94-.85s.58,2-.32,3-2.22,1.45-2.94.85-.58-2,.32-3"/></symbol></defs><title>yandex</title><g id="Слой_2" data-name="Слой 2"><g id="Слой_1-2" data-name="Слой 1"><use width="76" height="44" transform="scale(0.95 0.93)" xlink:href="#Новый_символ_60"/></g></g></svg>