<svg xmlns="http://www.w3.org/2000/svg" xmlns:xlink="http://www.w3.org/1999/xlink" viewBox="0 0 66 60"><defs><style>.cls-1,.cls-3,.cls-4{fill:none;}.cls-2{fill:#d0d2d4;}.cls-3,.cls-4{stroke-miterlimit:10;}.cls-3{stroke:url(#Безымянный_градиент_3);}.cls-4{stroke:url(#Безымянный_градиент_3-2);}</style><linearGradient id="Безымянный_градиент_3" x1="0.5" x2="0.5" y2="60" gradientUnits="userSpaceOnUse"><stop offset="0" stop-color="#e9eeee"/><stop offset="1" stop-color="#fff"/></linearGradient><linearGradient id="Безымянный_градиент_3-2" x1="65.5" x2="65.5" y2="60" xlink:href="#Безымянный_градиент_3"/><symbol id="Новый_символ_11" data-name="Новый символ 11" viewBox="0 0 17.85 22"><path class="cls-1" d="M7.62,2.31c0,.07,0,.13,0,.2a6.7,6.7,0,0,1,1.29-.15V1A1.33,1.33,0,0,0,7.62,2.31Z"/><path class="cls-1" d="M6.87,4.69A5,5,0,0,0,4.53,7.93.47.47,0,0,0,5,8.47h.07A.5.5,0,0,0,5.57,8,4,4,0,0,1,7.39,5.57a.51.51,0,1,0-.52-.88Z"/><path class="cls-1" d="M10.24,2.31c0,.07,0,.13,0,.2a6.58,6.58,0,0,0-1.28-.15V1A1.33,1.33,0,0,1,10.24,2.31Z"/><path class="cls-2" d="M6.25,19.67a2.71,2.71,0,0,0,5.36,0H6.25Z"/><path class="cls-2" d="M17.21,16a2.51,2.51,0,0,1-.31-.26H1A3.56,3.56,0,0,1,.65,16,1.44,1.44,0,0,0,0,17.23a1.42,1.42,0,0,0,1.43,1.43h15a1.41,1.41,0,0,0,1.42-1.43A1.43,1.43,0,0,0,17.21,16Z"/><path class="cls-2" d="M8.92,3.36A5.78,5.78,0,0,1,10,3.49l.28.06.59.23a5.19,5.19,0,0,1,3.4,5.32,18.15,18.15,0,0,0,.49,4.64H3.11A18.67,18.67,0,0,0,3.59,9.1,5.2,5.2,0,0,1,7,3.78l.59-.23.27-.06a5.78,5.78,0,0,1,1.06-.13M8.94,0h0A2.33,2.33,0,0,0,6.58,2.33a4.17,4.17,0,0,0,0,.52,6.19,6.19,0,0,0-4,6.25,13.12,13.12,0,0,1-.91,5.64H16.17a13.12,13.12,0,0,1-.91-5.64,6.18,6.18,0,0,0-4-6.25,2.87,2.87,0,0,0,0-.52A2.32,2.32,0,0,0,8.94,0ZM7.64,2.51c0-.07,0-.13,0-.2a1.31,1.31,0,0,1,2.62,0c0,.07,0,.13,0,.2a6.58,6.58,0,0,0-1.28-.15,6.7,6.7,0,0,0-1.29.15Z"/><path class="cls-2" d="M7.39,5.57A4,4,0,0,0,5.57,8a.5.5,0,0,1-.52.44H5a.47.47,0,0,1-.45-.54A5,5,0,0,1,6.87,4.69a.51.51,0,1,1,.52.88Z"/></symbol></defs><title>Ресурс 15</title><g id="Слой_2" data-name="Слой 2"><g id="Слой_1-2" data-name="Слой 1"><line class="cls-3" x1="0.5" x2="0.5" y2="60"/><line class="cls-4" x1="65.5" x2="65.5" y2="60"/><use id="Новый_символ_11-3" data-name="Новый символ 11" width="17.85" height="22" transform="translate(22 22)" xlink:href="#Новый_символ_11"/></g></g></svg>