<svg xmlns="http://www.w3.org/2000/svg" viewBox="0 0 63.01 76"><defs><style>.cls-1{fill:#14b6c1;}</style></defs><title>2</title><g id="Слой_2" data-name="Слой 2"><g id="Слой_1-2" data-name="Слой 1"><rect class="cls-1" x="50.01" y="61" width="3" height="3"/><rect class="cls-1" x="45.01" y="61" width="3" height="3"/><rect class="cls-1" x="39.01" y="61" width="3" height="3"/><rect class="cls-1" x="34.01" y="61" width="3" height="3"/><path class="cls-1" d="M56.65,51H42.2A15.67,15.67,0,0,0,31.79,38.7a18.26,18.26,0,0,0,7-5.7h-.26a9,9,0,0,0,8.73-6.23A8.79,8.79,0,0,0,43.84,17,17.56,17.56,0,0,0,26.32,0h-5A17.54,17.54,0,0,0,3.79,17,8.75,8.75,0,0,0,5,32.14v7.48S5.92,40.89,6.62,41h3a1.45,1.45,0,0,0,1.27-1.38c0-.7-1.27-.62-1.27-.62H8V33.58A2.61,2.61,0,0,1,9.17,34h1a20.35,20.35,0,0,0,6.76,5.19C10.77,41.32,7,53.61,7,53.61V74.73A1.27,1.27,0,0,0,8.29,76H56.65A6.31,6.31,0,0,0,63,69.75V57.25A6.31,6.31,0,0,0,56.65,51ZM45.81,24.5a6.5,6.5,0,0,1-6.5,6.5H38V18h1.3A6.5,6.5,0,0,1,45.81,24.5ZM21.89,3H27A15.28,15.28,0,0,1,42.13,16.49a9.51,9.51,0,0,0-1.39-.28A17.94,17.94,0,0,0,24.43,5.54,17.68,17.68,0,0,0,8.13,16.21a9.25,9.25,0,0,0-1.39.28A15.27,15.27,0,0,1,21.89,3ZM10,31H8.79a6.5,6.5,0,1,1-.08-13H10Zm2.85,2.11a1.16,1.16,0,0,0,.15-.57V17.27A1.27,1.27,0,0,0,11.74,16H11A15.24,15.24,0,0,1,24.51,7.94,15.46,15.46,0,0,1,38,16h-.73A1.27,1.27,0,0,0,36,17.27V32.54a1.29,1.29,0,0,0,.16.57A15.36,15.36,0,0,1,14.6,34.85,16.81,16.81,0,0,1,12.86,33.11ZM9,74V53.5A12.52,12.52,0,0,1,21.51,41h5a12.42,12.42,0,0,1,12.13,9.5L28.45,43.71a1.25,1.25,0,0,0-1.81,1.6L29.49,51h-1.2A1.27,1.27,0,0,0,27,52.27v17.9A6.34,6.34,0,0,0,28.33,74ZM56.2,74H32.83A3.82,3.82,0,0,1,29,70.18V54H31.6a1.28,1.28,0,0,0,1.3-1.24,1.26,1.26,0,0,0-.14-.57l-1.7-3.29,7.58,4.89a1.26,1.26,0,0,0,.71.21H56.2A3.82,3.82,0,0,1,60,57.82V70.18A3.82,3.82,0,0,1,56.2,74Z"/><rect class="cls-1" x="28.01" y="20" width="5" height="3"/><rect class="cls-1" x="16.01" y="20" width="5" height="3"/></g></g></svg>