<svg xmlns="http://www.w3.org/2000/svg" xmlns:xlink="http://www.w3.org/1999/xlink" viewBox="0 0 33 32"><defs><style>.cls-1{opacity:0;}.cls-2{fill:none;}.cls-3{fill:#d0d2d4;}</style><symbol id="Новый_символ_11" data-name="Новый символ 11" viewBox="0 0 33 32"><rect class="cls-1" width="33" height="32"/><path class="cls-2" d="M14.62,8.31c0,.07,0,.13,0,.2a6.7,6.7,0,0,1,1.29-.15V7A1.33,1.33,0,0,0,14.62,8.31Z"/><path class="cls-2" d="M13.87,10.69a5,5,0,0,0-2.34,3.24.47.47,0,0,0,.45.54h.07a.5.5,0,0,0,.52-.44,4,4,0,0,1,1.82-2.46.51.51,0,1,0-.52-.88Z"/><path class="cls-2" d="M17.24,8.31c0,.07,0,.13,0,.2a6.58,6.58,0,0,0-1.28-.15V7A1.33,1.33,0,0,1,17.24,8.31Z"/><path class="cls-3" d="M13.25,25.67a2.71,2.71,0,0,0,5.36,0H13.25Z"/><path class="cls-3" d="M24.21,22a2.51,2.51,0,0,1-.31-.26H8a3.56,3.56,0,0,1-.31.26A1.44,1.44,0,0,0,7,23.23a1.42,1.42,0,0,0,1.43,1.43h15a1.41,1.41,0,0,0,1.42-1.43A1.43,1.43,0,0,0,24.21,22Z"/><path class="cls-3" d="M15.92,9.36A5.78,5.78,0,0,1,17,9.49l.28.06.59.23a5.19,5.19,0,0,1,3.4,5.32,18.15,18.15,0,0,0,.49,4.64H10.11a18.67,18.67,0,0,0,.48-4.64A5.2,5.2,0,0,1,14,9.78l.59-.23.27-.06a5.78,5.78,0,0,1,1.06-.13m0-3.36h0a2.33,2.33,0,0,0-2.33,2.33,4.17,4.17,0,0,0,.05.52,6.19,6.19,0,0,0-4,6.25,13.12,13.12,0,0,1-.91,5.64H23.17a13.12,13.12,0,0,1-.91-5.64,6.18,6.18,0,0,0-4-6.25,2.87,2.87,0,0,0,.05-.52A2.32,2.32,0,0,0,15.94,6Zm-1.3,2.51c0-.07,0-.13,0-.2a1.31,1.31,0,0,1,2.62,0c0,.07,0,.13,0,.2a6.58,6.58,0,0,0-1.28-.15,6.7,6.7,0,0,0-1.29.15Z"/><path class="cls-3" d="M14.39,11.57A4,4,0,0,0,12.57,14a.5.5,0,0,1-.52.44H12a.47.47,0,0,1-.45-.54,5,5,0,0,1,2.34-3.24.51.51,0,1,1,.52.88Z"/></symbol></defs><title>alert</title><g id="Слой_2" data-name="Слой 2"><g id="Слой_1-2" data-name="Слой 1"><use width="33" height="32" xlink:href="#Новый_символ_11"/></g></g></svg>