<svg xmlns="http://www.w3.org/2000/svg" xmlns:xlink="http://www.w3.org/1999/xlink" viewBox="0 0 39.8 40"><defs><style>.cls-1{fill:url(#Безымянный_градиент_26);}</style><linearGradient id="Безымянный_градиент_26" x1="5.79" y1="34.11" x2="34.01" y2="5.89" gradientUnits="userSpaceOnUse"><stop offset="0" stop-color="#f80"/><stop offset="1" stop-color="#fc0"/></linearGradient></defs><title>Ресурс 6</title><g id="Слой_2" data-name="Слой 2"><g id="Слой_1-2" data-name="Слой 1"><path class="cls-1" d="M19.9,0A20,20,0,0,1,39.8,20c0,.23,0,.46,0,.69C34.43,20.55,28.38,13,26.44,10l-.09-.13-.1-.11c-3.32-3.44-6.76-5-10.22-4.7-5.22.49-8.38,5.21-8.5,5.41l.07-.1C4.85,14,3.87,17.51,4.71,21c1.56,6.34,8.75,9.73,9.07,9.88a22.5,22.5,0,0,1,10.36,8.71A19.67,19.67,0,0,1,19.9,40a20,20,0,0,1,0-40Zm4,11.83c-2.6-2.67-5.16-3.91-7.6-3.69-3.74.34-6.21,4-6.23,4l0,.05,0,0c-2.16,2.8-2.94,5.47-2.34,8C8.89,25.1,15,28,15,28a25.19,25.19,0,0,1,12.16,10.6A20,20,0,0,0,39.44,23.76C31.84,23.32,24.86,13.22,23.94,11.83Z"/></g></g></svg>