<svg xmlns="http://www.w3.org/2000/svg" xmlns:xlink="http://www.w3.org/1999/xlink" viewBox="0 0 24 24"><defs><style>.cls-1,.cls-2{fill:#d0d2d4;}.cls-1{opacity:0;}.cls-3{fill:#fff;}</style><symbol id="Новый_символ_49" data-name="Новый символ 49" viewBox="0 0 24 24"><rect class="cls-1" width="24" height="24"/><circle class="cls-2" cx="9" cy="13" r="6"/><path class="cls-2" d="M14,5a7.92,7.92,0,0,0-2.49.41,8,8,0,1,0,0,15.18A8,8,0,1,0,14,5ZM2,13a7,7,0,1,1,7,7A7,7,0,0,1,2,13Zm12,6.93a6.56,6.56,0,0,1-.9-.07,7.92,7.92,0,0,0,1.36-1,5.86,5.86,0,0,0,0-11.68,7.92,7.92,0,0,0-1.36-1,6.56,6.56,0,0,1,.9-.07,6.93,6.93,0,0,1,0,13.86Z"/><path class="cls-3" d="M11,12.43A2,2,0,0,0,9.63,9H7v8H9.54A2.55,2.55,0,0,0,12,15.3a2.82,2.82,0,0,0,.12-.8A2.48,2.48,0,0,0,11,12.43ZM9.63,10a1,1,0,1,1,0,2h0L8,12V10Zm1.42,5a1.56,1.56,0,0,1-1.51,1H8V13l1.63,0a1.5,1.5,0,0,1,1.49,1.5A1.77,1.77,0,0,1,11.05,15Z"/></symbol></defs><title>bitcoin-b</title><g id="Слой_2" data-name="Слой 2"><g id="Слой_1-2" data-name="Слой 1"><use width="24" height="24" xlink:href="#Новый_символ_49"/></g></g></svg>