<svg xmlns="http://www.w3.org/2000/svg" xmlns:xlink="http://www.w3.org/1999/xlink" viewBox="0 0 32 32"><defs><style>.cls-1{fill:#fff;opacity:0;}.cls-2{fill:#a0a4a8;}.cls-3{fill:none;stroke:#a0a4a8;stroke-linecap:round;stroke-miterlimit:10;}</style><symbol id="Новый_символ_42" data-name="Новый символ 42" viewBox="0 0 32 32"><rect class="cls-1" width="32" height="32"/><path class="cls-2" d="M22,8a1,1,0,0,1,1,1V25c0,.34-.12.52-.3.52a.64.64,0,0,1-.41-.23l-6.08-6.08a1,1,0,0,0-1.42,0L8.71,25.29a.64.64,0,0,1-.41.23c-.18,0-.3-.18-.3-.52V9A1,1,0,0,1,9,8H22m0-1H9A2,2,0,0,0,7,9V25a1.36,1.36,0,0,0,1.3,1.52A1.54,1.54,0,0,0,9.41,26l6.09-6.09L21.59,26a1.54,1.54,0,0,0,1.11.52A1.36,1.36,0,0,0,24,25V9a2,2,0,0,0-2-2Z"/><line class="cls-3" x1="10.5" y1="10.5" x2="20.5" y2="10.5"/></symbol></defs><title>Ресурс 9</title><g id="Слой_2" data-name="Слой 2"><g id="Слой_1-2" data-name="Слой 1"><use id="Новый_символ_42-3" data-name="Новый символ 42" width="32" height="32" xlink:href="#Новый_символ_42"/></g></g></svg>