<svg xmlns="http://www.w3.org/2000/svg" xmlns:xlink="http://www.w3.org/1999/xlink" viewBox="0 0 32 32"><defs><style>.cls-1{fill:#fff;opacity:0;}.cls-2{fill:#a0a4a8;}</style><symbol id="Bookmarks" data-name="Bookmarks" viewBox="0 0 32 32"><rect class="cls-1" width="32" height="32"/><path class="cls-2" d="M20,10a1,1,0,0,1,1,1V21c0,.34-.12.52-.3.52a.64.64,0,0,1-.41-.23l-3.58-3.58a1,1,0,0,0-1.42,0l-3.58,3.58a.64.64,0,0,1-.41.23c-.18,0-.3-.18-.3-.52V11a1,1,0,0,1,1-1h8m0-1H12a2,2,0,0,0-2,2V21a1.36,1.36,0,0,0,1.3,1.52A1.54,1.54,0,0,0,12.41,22L16,18.41,19.59,22a1.54,1.54,0,0,0,1.11.52A1.36,1.36,0,0,0,22,21V11a2,2,0,0,0-2-2Z"/></symbol></defs><title>Bookmarks</title><g id="Слой_2" data-name="Слой 2"><g id="Слой_1-2" data-name="Слой 1"><use width="32" height="32" xlink:href="#Bookmarks"/></g></g></svg>