<svg xmlns="http://www.w3.org/2000/svg" xmlns:xlink="http://www.w3.org/1999/xlink" viewBox="0 0 24 24"><defs><style>.cls-1{fill:#279c27;opacity:0;}.cls-2{fill:url(#Безымянный_градиент_20);}.cls-3,.cls-6{fill:#ea7c01;}.cls-4{fill:#d19300;opacity:0.5;}.cls-5{fill:url(#Безымянный_градиент_20-2);}.cls-6{font-size:10px;font-family:SFUIText-Bold, SFUIText Bold;font-weight:700;}</style><linearGradient id="Безымянный_градиент_20" x1="8.32" y1="17.37" x2="19.63" y2="6.05" gradientUnits="userSpaceOnUse"><stop offset="0" stop-color="#f80"/><stop offset="1" stop-color="#fc0"/></linearGradient><linearGradient id="Безымянный_градиент_20-2" x1="3.32" y1="17.37" x2="14.63" y2="6.05" xlink:href="#Безымянный_градиент_20"/><symbol id="Новый_символ_64" data-name="Новый символ 64" viewBox="0 0 24 24"><rect class="cls-1" width="24" height="24"/><circle class="cls-2" cx="13.98" cy="11.71" r="8"/><path class="cls-3" d="M14,5.71a6,6,0,1,1-6,6,6,6,0,0,1,6-6m0-1a7,7,0,1,0,7,7,7,7,0,0,0-7-7Z"/><path class="cls-3" d="M10,10.71a1,1,0,1,0,1,1,1,1,0,0,0-1-1Z"/><circle class="cls-4" cx="9.98" cy="11.71" r="8"/><circle class="cls-5" cx="8.98" cy="11.71" r="8"/><path class="cls-3" d="M9,5.71a6,6,0,1,1-6,6,6,6,0,0,1,6-6m0-1a7,7,0,1,0,7,7,7,7,0,0,0-7-7Z"/><text class="cls-6" transform="translate(5.53 15.21)">+20</text></symbol></defs><title>Ресурс 13</title><g id="Слой_2" data-name="Слой 2"><g id="Слой_1-2" data-name="Слой 1"><use width="24" height="24" xlink:href="#Новый_символ_64"/></g></g></svg>