<svg xmlns="http://www.w3.org/2000/svg" viewBox="0 0 14 16.52"><defs><style>.cls-1{fill:#999;}</style></defs><title>Ресурс 16</title><g id="Слой_2" data-name="Слой 2"><g id="Слой_1-2" data-name="Слой 1"><path class="cls-1" d="M12,1a1,1,0,0,1,1,1V15c0,.34-.12.52-.3.52a.64.64,0,0,1-.41-.23L7.71,10.71a1,1,0,0,0-1.42,0L1.71,15.29a.64.64,0,0,1-.41.23c-.18,0-.3-.18-.3-.52V2A1,1,0,0,1,2,1H12m0-1H2A2,2,0,0,0,0,2V15a1.36,1.36,0,0,0,1.3,1.52A1.54,1.54,0,0,0,2.41,16L7,11.41,11.59,16a1.54,1.54,0,0,0,1.11.52A1.36,1.36,0,0,0,14,15V2a2,2,0,0,0-2-2Z"/></g></g></svg>