<svg xmlns="http://www.w3.org/2000/svg" viewBox="0 0 18 18.09"><defs><style>.cls-1{fill:#a0a4a8;}</style></defs><title>Ресурс 5</title><g id="Слой_2" data-name="Слой 2"><g id="Слой_1-2" data-name="Слой 1"><path class="cls-1" d="M0,9.05a9,9,0,0,0,9,9,8.69,8.69,0,0,0,1.92-.21,10.24,10.24,0,0,0-4.69-3.94c-.14-.07-3.39-1.6-4.1-4.46A5.55,5.55,0,0,1,3.44,4.69l0,0A5.73,5.73,0,0,1,7.25,2.29c1.56-.15,3.12.57,4.62,2.13l.05,0,0,.06c.87,1.35,3.61,4.76,6,4.83,0-.11,0-.21,0-.32a9,9,0,1,0-18,0Z"/><path class="cls-1" d="M10.83,5.35A4.42,4.42,0,0,0,7.39,3.68,4.43,4.43,0,0,0,4.57,5.5l0,0v0A4.24,4.24,0,0,0,3.48,9.14c.54,2.21,3.31,3.53,3.31,3.53a11.38,11.38,0,0,1,5.5,4.8,9,9,0,0,0,5.55-6.73C14.4,10.55,11.24,6,10.83,5.35Z"/></g></g></svg>