<svg xmlns="http://www.w3.org/2000/svg" xmlns:xlink="http://www.w3.org/1999/xlink" viewBox="0 0 32 32"><defs><style>.cls-1{opacity:0;}.cls-2{fill:#424a52;}.cls-3{fill:#a0a4a8;}.cls-4{fill:none;stroke:#a0a4a8;stroke-miterlimit:10;}</style><symbol id="Filter_Players" data-name="Filter_Players" viewBox="0 0 32 32"><g class="cls-1"></g><path class="cls-3" d="M12,18a6.17,6.17,0,0,1,6.13,5.52H5.84A6.17,6.17,0,0,1,12,18m0-1A7.18,7.18,0,0,0,4.8,24.14a.35.35,0,0,0,.35.35H18.79a.35.35,0,0,0,.35-.35A7.18,7.18,0,0,0,12,17Z"/><path class="cls-3" d="M16.24,11.75a4.13,4.13,0,1,0-4.13,4.14A4.13,4.13,0,0,0,16.24,11.75Z"/><path class="cls-4" d="M20.43,24.49h6.34a.35.35,0,0,0,.35-.34,5.42,5.42,0,0,0-5.41-5.43,5.36,5.36,0,0,0-2.75.75"/><path class="cls-3" d="M25,14.34a3.18,3.18,0,1,0-3.17,3.18A3.17,3.17,0,0,0,25,14.34Z"/></symbol></defs><g id="Слой_2" data-name="Слой 2"><g id="Слой_1-2" data-name="Слой 1"><use  xlink:href="#Filter_Players"/></g></g></svg>