<svg xmlns="http://www.w3.org/2000/svg" viewBox="0 0 22.32 16.38"><defs><style>.cls-1{fill:#a3a5a9;}</style></defs><title>Ресурс 1</title><g id="Слой_2" data-name="Слой 2"><g id="Слой_1-2" data-name="Слой 1"><path class="cls-1" d="M.35,16.38H14a.37.37,0,0,0,.35-.34A7.17,7.17,0,1,0,0,16,.35.35,0,0,0,.35,16.38Z"/><path class="cls-1" d="M11.44,4.13A4.13,4.13,0,1,0,7.31,8.27,4.13,4.13,0,0,0,11.44,4.13Z"/><path class="cls-1" d="M15.16,16.38H22a.35.35,0,0,0,.35-.34,5.43,5.43,0,0,0-5.42-5.43,5.35,5.35,0,0,0-2.74.75"/><path class="cls-1" d="M20.15,6.72A3.18,3.18,0,1,0,17,9.9,3.18,3.18,0,0,0,20.15,6.72Z"/></g></g></svg>