<svg xmlns="http://www.w3.org/2000/svg" xmlns:xlink="http://www.w3.org/1999/xlink" viewBox="0 0 24 24"><defs><style>.cls-1,.cls-2{fill:#d0d2d4;}.cls-1{opacity:0;}</style><symbol id="Новый_символ_50" data-name="Новый символ 50" viewBox="0 0 24 24"><rect class="cls-1" width="24" height="24"/><polygon class="cls-2" points="14 18 10 18 10 19 9 19 9 20 10 20 14 20 15 20 15 19 14 19 14 18"/><path class="cls-2" d="M18,6H17V5H7V6H6A2,2,0,0,0,4,8a2.44,2.44,0,0,0,.7,1.71L7,12h.1A5,5,0,0,0,11,15.9V18h2V15.9A5,5,0,0,0,16.9,12H17L19.3,9.71A2.45,2.45,0,0,0,20,8,2,2,0,0,0,18,6ZM5,8A1,1,0,0,1,6,7H7v3.59l-1-1H6L5.42,9A1.39,1.39,0,0,1,5,8ZM18.59,9,18,9.59h0l-1,1V7h1a1,1,0,0,1,1,1A1.4,1.4,0,0,1,18.59,9Z"/></symbol></defs><title>kubok-grey</title><g id="Слой_2" data-name="Слой 2"><g id="Слой_1-2" data-name="Слой 1"><use width="24" height="24" xlink:href="#Новый_символ_50"/></g></g></svg>