<svg xmlns="http://www.w3.org/2000/svg" xmlns:xlink="http://www.w3.org/1999/xlink" viewBox="0 0 24 24"><defs><style>.cls-1{fill:#d0d2d4;opacity:0;}.cls-2{fill:#1b7806;}.cls-3{fill:#2eb036;}.cls-4{fill:#1b9606;}.cls-5{opacity:0.2;}</style><symbol id="Новый_символ_63" data-name="Новый символ 63" viewBox="0 0 24 24"><rect class="cls-1" width="24" height="24"/><path class="cls-2" d="M12,16v0m1-1H11v3h2V15Z"/><rect class="cls-3" x="10" y="18" width="4" height="2"/><polygon class="cls-2" points="15 19 9 19 9 20 15 20 15 19 15 19"/><path class="cls-4" d="M18,7a1,1,0,0,1,1,1,1.44,1.44,0,0,1-.42,1l-2,2H7.42l-2-2A1.43,1.43,0,0,1,5,8,1,1,0,0,1,6,7H18m0-1H6A2,2,0,0,0,4,8a2.44,2.44,0,0,0,.7,1.71L7,12H17L19.3,9.71A2.45,2.45,0,0,0,20,8a2,2,0,0,0-2-2Z"/><g class="cls-5"><polygon points="16.59 11 7.42 11 6 9.58 6 11 7.01 12 17.01 12 18 11 18 9.59 16.59 11"/></g><g class="cls-5"><polygon points="6.01 7 18 7 18 6 6.01 6 6 6 6 7 6.01 7"/></g><path class="cls-3" d="M7,5H17a0,0,0,0,1,0,0v6a5,5,0,0,1-5,5h0a5,5,0,0,1-5-5V5A0,0,0,0,1,7,5Z"/><g class="cls-5"><path d="M8,11V5H7v6a5,5,0,0,0,5,5,4,4,0,0,0,.5-.05A5,5,0,0,1,8,11Z"/></g></symbol></defs><title>Ресурс 6</title><g id="Слой_2" data-name="Слой 2"><g id="Слой_1-2" data-name="Слой 1"><use width="24" height="24" xlink:href="#Новый_символ_63"/></g></g></svg>