<svg xmlns="http://www.w3.org/2000/svg" xmlns:xlink="http://www.w3.org/1999/xlink" viewBox="0 0 24 24"><defs><style>.cls-1{fill:#279c27;opacity:0;}.cls-2{fill:#de4a38;}.cls-3{fill:#f86552;}.cls-4{fill:#a34236;}.cls-5{opacity:0.5;}.cls-6{fill:#0c2e0c;}.cls-7{opacity:0.1;}</style><symbol id="Новый_символ_65" data-name="Новый символ 65" viewBox="0 0 24 24"><rect class="cls-1" width="24" height="24"/><path class="cls-2" d="M18,7V9.13l-3,3a6.81,6.81,0,0,1-3,.9,6.64,6.64,0,0,1-3.09-1L6,9.13V7H18m.36-1H5.64A.63.63,0,0,0,5,6.64V9.28a.64.64,0,0,0,.19.45l3.1,3.11A7.88,7.88,0,0,0,12,14a7.79,7.79,0,0,0,3.65-1.1l3.16-3.17A.64.64,0,0,0,19,9.28V6.64A.63.63,0,0,0,18.36,6Z"/><path class="cls-2" d="M15.36,20.24H8.72a1,1,0,0,1,1.27-1h4.09a1,1,0,0,1,1.28,1Z"/><rect class="cls-3" x="10" y="18" width="4" height="1"/><rect class="cls-2" x="11" y="15" width="2" height="3"/><rect class="cls-4" x="17" y="6" width="1" height="1"/><path class="cls-4" d="M17,10.12v1.35s0,0,0,.07l1-1V9.12Z"/><path class="cls-4" d="M7,11.47V10.12l-1-1v1.42l1,1S7,11.49,7,11.47Z"/><rect class="cls-4" x="6" y="6" width="1" height="1"/><g class="cls-5"><rect class="cls-6" x="7" y="6" width="1" height="1"/></g><g class="cls-5"><polygon class="cls-6" points="7 11.32 8.44 12.76 7.64 10.6 7 9.97 7 11.32"/></g><path class="cls-3" d="M12,16c-2.18,0-4.16-2.75-4.16-2.75A2.36,2.36,0,0,1,7,11.47V6.25A1.35,1.35,0,0,1,8.43,5h7.14A1.35,1.35,0,0,1,17,6.25v5.22a2.36,2.36,0,0,1-.84,1.78S14.18,16,12,16Z"/><g class="cls-7"><path d="M12,16c-2.18,0-4.16-2.75-4.16-2.75A2.36,2.36,0,0,1,7,11.47V6.25A1.35,1.35,0,0,1,8.43,5H10c.79,0-2,0-2,1.25,0,0-.88,5.12,1,7A38.92,38.92,0,0,0,12,16Z"/></g></symbol></defs><title>kubok-red</title><g id="Слой_2" data-name="Слой 2"><g id="Слой_1-2" data-name="Слой 1"><use width="24" height="24" xlink:href="#Новый_символ_65"/></g></g></svg>