<svg xmlns="http://www.w3.org/2000/svg" xmlns:xlink="http://www.w3.org/1999/xlink" viewBox="0 0 87.94 32"><defs><style>.cls-1{opacity:0;}.cls-2{fill:#424a52;}.cls-3{fill:#2eb036;}</style><symbol id="Logo" data-name="Logo" viewBox="0 0 87 32"><rect class="cls-1" width="87" height="32"/><path class="cls-2" d="M37.89,9l-.25.05a5.52,5.52,0,0,0-1.32.49,6.45,6.45,0,0,0-2.59,2.33,5,5,0,0,0-.42.78c-.12.3-.18.43-.16.4a3.2,3.2,0,0,0-.18.57,3.51,3.51,0,0,0-.12,1V15a1.77,1.77,0,0,0,0,.24,3.54,3.54,0,0,0,.26,1.11,3.56,3.56,0,0,0,2,2,3.09,3.09,0,0,0,.89.26,11.8,11.8,0,0,0,1.38.08h1l1,0,1.54,0a1.68,1.68,0,0,1,.48.05.41.41,0,0,1,.33.36.72.72,0,0,1-.07.49.91.91,0,0,1-.39.36,1.09,1.09,0,0,1-.42.11l-.65,0H32.85l-.17,0a.34.34,0,0,0-.21.17.79.79,0,0,0-.13.31l-.66,3.11V24l.15.15a1.51,1.51,0,0,0,.47.05h7.38a9.64,9.64,0,0,0,1.15-.06,1.94,1.94,0,0,0,.33-.05,6.14,6.14,0,0,0,1.48-.54A6.91,6.91,0,0,0,44.57,22a6.48,6.48,0,0,0,1-1.57l0-.09a2.65,2.65,0,0,0,.21-.55A7,7,0,0,0,46,18.76c0-.11,0-.19,0-.24a5.56,5.56,0,0,0-.12-1.18,3.71,3.71,0,0,0-.53-1.22,4.1,4.1,0,0,0-.76-.81,3.78,3.78,0,0,0-1.2-.62,4.27,4.27,0,0,0-1.16-.18H37.86l-.24,0a.53.53,0,0,1-.46-.34.66.66,0,0,1,.21-.76.8.8,0,0,1,.55-.25H46l.17,0a.32.32,0,0,0,.26-.21,1.61,1.61,0,0,0,.08-.33c.14-.61.35-1.6.64-2.95,0-.09,0-.18,0-.25s0,0,0-.16,0-.19-.17-.21a3.33,3.33,0,0,0-.57,0H39.13L38.3,9A1.51,1.51,0,0,0,37.89,9Zm-2.23,2.25.06,0-.08,0Zm-.79,1.85v-.05H35v.05Zm-.26-.69a.48.48,0,0,1,.22,0c.12,0,.18.06.19.08a.61.61,0,0,1-.22.11l-.16,0h-.07l0-.12Zm-.39.64v0h-.07v-.06ZM34,14.44l0,0,0,0,.06,0,0,0Zm-.15,1.15,0-.05H34l0,.05ZM34,15h0l0,0Zm.34,1.28,0-.07h.13l0,.07Zm.7-1.83,0-.06,0,0Zm.13-.59h-.56a1.43,1.43,0,0,1-.56,0L34,13.76l.07-.06a5.82,5.82,0,0,1,1.13,0h.09l0,.06-.07.05Zm-.37,8.61-.16,0h-.07l-.09-.09.12-.11.07,0h.25l0,.05C35,22.34,35,22.38,34.81,22.43Zm.15-.62-.08,0h-.15l-.1-.08.1-.12a.19.19,0,0,1,.27.05Zm-.59-.76a1.37,1.37,0,0,1,.49,0l0,.07-.07.05a.66.66,0,0,1-.32,0,5.17,5.17,0,0,1-.53-.05l0-.05.07-.06ZM34,22.36H34l.06-.07,0,0Zm-.27-.72,0,.07v.06l-.06,0a.73.73,0,0,1-.45,0l0-.05.08-.13A.45.45,0,0,1,33.77,21.64ZM34.72,23c-.26,0-.51,0-.76,0h-1L32.84,23l.14-.08a9.29,9.29,0,0,1,1.3,0h.32a1.27,1.27,0,0,1,.41,0l.05,0L35,23Zm3.33-.69,0,0v0ZM38,21.15l-.07,0,0-.05.07,0Zm-1.48.53,0,.05,0,.05-.07-.06Zm-.09.69,0,.06v-.06Zm-.47-1.29v.07l-.14.07-.12-.07,0-.07C35.8,21,35.87,21,35.93,21.08Zm-.5,1.28.1-.1h.08l.17.09a.42.42,0,0,1-.29.11Zm.37,0,.12-.07v0Zm1.08.67.16-.08-.11-.07h-.08l-.87,0-.08,0-.1.09,0,.05h1Zm.19-.64,0-.07.12,0,0,.06Zm.45-.56h-.24l-.06,0,.1-.09.08,0,.15,0h.2a.65.65,0,0,1,.2,0l0,0-.08.12h-.4Zm-.13,1.69h.07l0,.05-.07.06ZM37.7,23l0-.11c.1-.06.17-.05.2,0l-.09.1Zm7.23-3.79.06,0,0,.06,0,.06h-.14v-.12Zm-.5,1.91v0l-.05,0Zm-8.09-7.36,0,0H36.3ZM36,13.19l-.25,0,0,0,.09-.08a1,1,0,0,1,.46,0l.05,0-.08.05Zm-.11,1.28h-.15l-.11-.07.13-.07h.15l0,.08Zm.26-2h.05l0,0Zm.34-1.92.21,0,.09.08-.14.09H36.5l-.21,0-.08,0,.11-.06ZM35,16.22l0-.07.08,0,.09.1-.07,0ZM35.34,15v-.08l.14-.07h.07l0,.06-.07.13h-.08Zm-.05,1.88h-.06l0-.12.14-.05a.87.87,0,0,0,.36.08c.18,0,.23,0,.18.09l-.17.05Zm.44.55.07-.1.07.05-.07.05Zm.83-1.85-.08,0-.81,0-.07,0,0-.07.06-.05a1.53,1.53,0,0,1,.33,0,1.83,1.83,0,0,1,.56,0l.06,0Zm.22-3.15a.23.23,0,0,1,.24,0l0,.06-.13.12c-.12,0-.19,0-.21,0ZM36.29,15l-.08-.1.15-.06V15ZM36.81,12l.06-.12H37l0,.06L37,12Zm-.25,5.44,0-.05.07,0,0,.09Zm.07-.6,0-.06,0,.06Zm.68.08-.07-.1.13-.11.26,0,.23,0h.08a2,2,0,0,0,.71.05l.07,0,0,.07-.09.12-.09,0h-.31a1.16,1.16,0,0,0-.33,0Zm.93.63h-.07c-.13,0-.16-.07-.1-.16l.13-.08a1.05,1.05,0,0,1,.45.05l0,.06,0,.05A1.72,1.72,0,0,1,38.24,17.53ZM39,16.21l.08,0,.23,0,.11.08-.12.09a.71.71,0,0,1-.23,0Zm.59,1.87-.35,0-.22,0L38.91,18,39,18a1.72,1.72,0,0,1,.64,0l0,.05Zm-.15-1.4.08.1-.1.11h-.1v-.1Zm.47.87h-.16l-.14,0,0-.13.07-.06a.45.45,0,0,1,.3,0l0,.13Zm1-1.24h-.27a1.74,1.74,0,0,1-.55-.05l0,0,0-.08c.08,0,.27,0,.57-.07h.09a3.46,3.46,0,0,0,.64,0,3.26,3.26,0,0,1,.64,0l0,.05,0,.05-.16,0Zm.52.63a.38.38,0,0,1-.39-.18,1.11,1.11,0,0,1,.62-.06l.08,0,0,.07-.1.11A1.19,1.19,0,0,1,41.37,16.94Zm-1.3-.13,0-.07.16,0,.44.06a.63.63,0,0,1-.6.17ZM40.52,18l0,0h-.06Zm1.14.05.08-.1.16,0a.32.32,0,0,1,.22.06l0,.05-.06.07a.5.5,0,0,1-.38,0Zm-1.17,3.58.2,0,0,.07,0,.06-.23,0,0-.13ZM40.15,21v.12H40l0-.12Zm-.21.71-.07,0V21.7l.07,0Zm-.61-.06v.07l-.07,0v-.11ZM39,21h.19l.12.06-.11.11a1.63,1.63,0,0,1-.31,0l-.1-.07,0-.09.12,0ZM38.54,23l.11-.07,0,.05-.11.08Zm.46-.51c-.07,0,.06,0,.4,0a.94.94,0,0,0,.31-.08.53.53,0,0,0-.26-.13l-.3-.06H39l-.33,0-.15.08,0,.15,0,0a.83.83,0,0,0,.25,0l.16,0Zm.3.51,0-.05.07,0,0,0,0,.06Zm.06.61H39.3l.15-.09Zm.37-1.21.47-.15a.58.58,0,0,1,.32,0l0,0-.07.12-.17.06a2.49,2.49,0,0,1-.4,0Zm.39.63L40,23,40,23l.06,0a1.78,1.78,0,0,1,.33-.05l.15,0,.06.11A1.65,1.65,0,0,1,40.12,23Zm.43.6v0h0ZM41,21.15l.05-.07.09,0a3.64,3.64,0,0,0,.45,0L42,21l.1.08L42,21.2H41ZM41.53,23l-.05-.06.1-.08h.15l.06,0,0,.06Zm.18-.62v-.12h.15l.05.05-.05.06Zm-.32-.55-.08-.1,0-.07.15-.07h.33a1.1,1.1,0,0,1,.39.05l.24.09-.06,0a.78.78,0,0,1-.4.11Zm1.47-2.61.07.07,0,.05-.07-.07Zm-.24,3.12.06-.11h.06l.07,0-.12.09Zm1.56-2.42-.13.06v-.07l.11-.09Zm.29-2.53,0,.12-.14,0-.06,0,.08-.1Zm-.68,1.91,0,0,0,0Zm-.54,1.14,0,0-.1.05v0Zm.55-3.58,0,0,0,0Zm-.69,4.19a1.64,1.64,0,0,1,.39,0l.07,0-.09.08a2.7,2.7,0,0,1-.64,0l-.12-.06.15-.07Zm.3-3.62,0,.08h-.14v-.07l.12-.05Zm-.25.56V18h-.08Zm-.63,2.44,0,0-.08.05a.76.76,0,0,1-.47.11l-.08-.09.11-.11.16,0A.58.58,0,0,1,42.53,20.43Zm-.25-.53-.14,0,0-.08.14,0,0,.1Zm.32-2.36-.17-.11.21-.12.11.09-.07.13Zm-.19-.88h.2l.18,0,.07.12-.14.1h-.08l-.15-.05-.15,0-.06-.11Zm-.07.81a.4.4,0,0,1-.23.1l-1,0a.8.8,0,0,0-.26,0l-.23,0-.14-.06,0-.07.11-.13h1a2.78,2.78,0,0,1,.56,0l.27.1Zm-4.5-1.95.08,0h2.84l.34,0,.31,0a2,2,0,0,0,.38,0l.36,0,.22.08,0,.14-.08,0-.08,0h-.28a1.31,1.31,0,0,0-.45,0l-.17,0-.31,0-.31,0-.25,0a.5.5,0,0,1-.32,0,.83.83,0,0,0-.41,0,.51.51,0,0,1-.32,0,3.44,3.44,0,0,0-1-.08l-.57,0,0-.12Zm-.18.62h.16l0,.05-.1.08-.52,0a3,3,0,0,1-.69-.05l0,0,.11-.09a2.77,2.77,0,0,1,.9,0ZM37,14.93V15l-.06,0v-.09ZM37.65,12l0-.11h.08l0,0-.07.05Zm.62-.11v-.07h0Zm.46-.52a4.15,4.15,0,0,1-.56,0h-.23a4.55,4.55,0,0,1-1,0l0,0,.08-.1.09,0H38a3.24,3.24,0,0,1,.79.05l.05.11Zm.24.49,0,0Zm.27,0,0,.06h0Zm.3-.49-.08,0,.07-.12h.13l0,0,0,.07ZM40,12.48l0-.06,0,0Zm.39-1.12-.11-.07.11-.11h.06l.06.11Zm1,.56.06,0,.05,0-.07.09Zm.66.58,0-.1.15,0,0,.07Zm.25-.49-.09,0C42,12,42,12,42,11.92l.12-.11.07,0,.12.08Zm.62,0,.09-.05,0,0h0l0,0Zm.26-.71.14-.06.06,0v.08l-.15.06Zm2.31.65-.12.1h-.24L45,11.94a.42.42,0,0,1,.21-.12h.15Zm-.27-.52H45a.41.41,0,0,1-.17,0l-.06-.1.07,0,.06,0,.3,0,.08.09Zm.3-1.29-.08,0,0-.07.1,0Zm-.33.49a.47.47,0,0,1,.24,0l0,0-.08.11H45l-.12-.07.14-.07Zm-1.25,1.36h-.07l0-.06.07-.07h.06Zm.25-1.28-.13.06-.14-.05,0-.06.14,0ZM44,10l-.1.13-.24,0h-.08a4.19,4.19,0,0,0-.73-.11.71.71,0,0,1,.29-.1,3.24,3.24,0,0,0,.38,0l.36,0Zm-1.16.61.07,0-.07,0-.07,0h-.5l0,0,0-.05Zm-.34.71-.08,0a1.09,1.09,0,0,1-.32.07l-.43,0h-.29a1,1,0,0,1-.39-.06l0-.12.13-.07a1.83,1.83,0,0,0,.78,0,1.51,1.51,0,0,1,.55,0ZM41.85,10h.09l.14,0,.08.11-.12.1a.4.4,0,0,1-.23,0l0-.14Zm-.72.63.11.07-.12.12-.14,0v-.08Zm-.75-.6A1.13,1.13,0,0,1,41,10l0,.12,0,.07-.16.07h-.08l-.4,0V10Zm-.9,0,.1,0-.06.12h-.08l0-.12Zm.62.58h.23l.08,0,0,.05-.09.1H40l-.42,0-.39,0a1.88,1.88,0,0,0-.74,0A.79.79,0,0,1,38,10.7v-.08l.09,0,.42,0a5.81,5.81,0,0,0,.84,0Zm-1.17-.46h-.07l.06-.05ZM28.63,8.94l-.14,0h-.12L28.21,9a.5.5,0,0,0-.16.2L28,9.4c-.09.38-.15.63-.17.74-.1.5-.3,1.43-.59,2.78l-.11.48c0,.23-.06.4-.08.5-.13.56-.25,1.11-.37,1.63l-.07.25-.09.15-.15,0-.14-.17c-.19-.38-.55-1.14-1.11-2.28-.18-.37-.51-1-1-2s-.75-1.52-1-2L23,9.16,22.9,9,22.76,9l-.22,0h-3L19.5,9h-.09a.33.33,0,0,0-.32.25,5,5,0,0,0-.17.73L16.06,23.37c0,.14-.06.27-.08.41v.16c0,.12.06.19.18.22l.32,0h2.78a3.25,3.25,0,0,0,.5,0,.42.42,0,0,0,.33-.28c0-.12.06-.17.05-.17l.14-.56c.31-1.5.52-2.46.61-2.87,0,0,0-.07.08-.34.21-1,.38-1.82.49-2.37l.05-.16.08-.15.06-.05h.14a.83.83,0,0,1,.16.24c.18.36.47.95.87,1.78L23.69,21l.68,1.41.68,1.4.12.2a.41.41,0,0,0,.24.14h3.28A.36.36,0,0,0,29,23.9a3.29,3.29,0,0,0,.14-.57L32,9.9c0-.17.08-.39.12-.64V9.09L32,9a.8.8,0,0,0-.31-.05Zm-6.79,1.68h0l0,0-.05,0,0-.05Zm-.93.64.05,0-.06,0Zm-1.11,1.8v0l-.13.05-.05-.05,0,0Zm-.36-1.75,0-.05h.14l.05.05-.16,0Zm-.75,4.29,0,0,.14,0,0,.05Zm.79-1.92h.17l0,.06-.08.05h-.16l-.13,0C19.28,13.71,19.33,13.68,19.48,13.68Zm-.56,3.22-.11-.07.12-.08.14,0v.06ZM20.49,10l.13,0,.13,0,0,.06-.15,0ZM18.42,20.45l0,0-.05,0Zm-.14.69,0-.06c.1,0,.18,0,.23,0v.07l-.08,0C18.34,21.24,18.27,21.22,18.28,21.14Zm2.1-7.36v-.06l.05,0Zm-1.55,8.53,0,0,.05,0Zm.63-3.64.14,0,0,.05-.14,0Zm2-8.53,0-.05h.07Zm-2,11,.14-.05,0,.06-.14,0Zm0,.63,0-.14h.08v.14Zm3.2-10.43,0,0h.05Zm2.17,3.62-.05.05-.09-.07.06-.06Zm-.81,0L24,15H24l0-.12Zm-1.8,1.33v0l.06,0v.06Zm.27-1.92.14-.07,0,.11-.06.07h-.11Zm.55-1.85,0-.05,0,0Zm-.53,3.11c0-.05,0-.08.17-.08l.11.06-.14.06Zm1-1.24.06,0v0l0,0Zm.21,1.15.28,0h.21l.55.06.06,0-.12.08-.4,0a2.26,2.26,0,0,1-.64,0l-.06-.05Zm0,.73-.06,0v-.06Zm-.16,1.22-.11-.05.06-.06h.07l.07.09Zm0-.57.22,0h.25l.09,0,0-.06,0,0-.47-.05-.12.11Zm.21,1.18-.05,0h.11Zm.31.68-.16,0-.17,0-.05,0,.05-.06a.54.54,0,0,1,.33,0l.07.09Zm.21-1.27.07-.12.1.06v.06l-.06.06Zm0,1.9h-.07l-.05-.09.08-.05.11.08ZM24.58,18h.07l0,.05-.07,0Zm.48-1.67a2.74,2.74,0,0,1-.48,0l-.06,0,.1-.08.17,0a1,1,0,0,1,.53,0l.05,0-.11.1Zm.08,2.42-.11,0c-.05-.06,0-.09.18-.1h.08l.05,0-.1.09Zm.45-1.89.14-.08h.16c.15,0,.19,0,.14.1a.3.3,0,0,1-.22.09h-.14ZM25.67,18V18l-.14,0,0-.07Zm-.51,2,0-.12.07,0,.06.11,0,.07Zm-.05,1.24,0-.06.13,0,0,.06Zm.62-1.28v0h0Zm0-.66.05-.06.08.07,0,.06ZM26.1,18l0,0,0,0Zm.36-.6h0Zm2-1.23,0,0h0l0-.06Zm-1,4.87h0c.14,0,.19,0,.14.08l-.15,0-.07-.08Zm.46-1.29.07.09-.08,0h-.08l-.05,0Zm-.52,2.46a.33.33,0,0,1,.31,0l0,.07-.11.12h-.22l-.06-.13Zm.87-3.6,0,.06-.16,0-.06,0,.09-.08Zm.08-.72.07.1-.15,0V18Zm.62-3.49-.06,0,.07,0Zm.46-2.53-.12.06,0-.06.09-.11Zm-.78,1.17,0,0-.06,0,0-.07Zm-.2-1.25c.15-.08.27-.08.36,0V12l-.08,0h-.15l-.15,0,0-.12Zm-.19,1.95v0l.05,0Zm-.69,1.77h.09l.23.11a.43.43,0,0,1-.37,0l0-.13Zm-.88,5.55,0,.06,0,0ZM27,18V18h.12l0,.06Zm-.18-1.24.13,0,0,0h-.15v-.05Zm-.38,1.8.07,0,.25,0h0l.22,0,.06.05,0,.05a2.18,2.18,0,0,1-.56,0l-.08-.09ZM26,21.15l-.05,0,.07,0Zm.09-.69.08,0,.2,0,.19,0,.06.08-.06.05-.24.08-.21,0Zm0,2.51H26l.08-.06Zm.28-1.2-.06,0,0-.07.14-.05.11.08v.07Zm1.31-5v0h0Zm.17-.57v-.06l.06,0Zm.37-1.86.05-.06.14,0,0,.06ZM29.36,10l.12,0,0,.06-.1,0Zm-.52,2.51.06-.05h.15l.09.07a.76.76,0,0,1-.27,0Zm-.74,4.87v.06H28v-.06Zm.53,2.48V19.8h.06l0,.05Zm.11.58h.07l0,.05,0,0h-.1ZM30,15.55l-.07,0c-.08,0-.08-.05,0-.08Zm.14-.58-.05,0,0,0,0-.06Zm-1.68,7.39,0,0,0-.07.14,0v.1ZM31,10.6l.06,0,0,.07h-.14l0-.07ZM29.1,19.3l-.14,0v-.06l.13,0Zm1.51-8,0,0-.06,0ZM29.25,18l-.06.05-.14,0,.06-.1.14,0Zm.53-3.77.11.06-.12,0-.12,0,.05-.06Zm-.35.69-.05,0v-.06l.05,0Zm1-5,0,0h-.05ZM27.58,23l-.08,0-.24,0a1,1,0,0,1-.38,0l-.06,0,.07-.11.16,0a3,3,0,0,1,.55,0l0,.05Zm.75-3.72.06,0,0,.06h-.08V19.3Zm-.61,2.47-.08,0,0-.05ZM29.8,11.19l.06,0-.05.07-.06,0Zm.09-.58v.05l-.06,0v-.09Zm.06-.55-.07,0L29.83,10l.06,0ZM5.23,8.94h-.9L4.08,9a.24.24,0,0,0-.21.15.58.58,0,0,0-.11.23l-.07.25-.61,2.87a2.13,2.13,0,0,0,0,.32l0,.15.15.15.15,0H7.29l.15,0,.13.16a3.31,3.31,0,0,1-.05.41c-.15.7-.3,1.44-.46,2.21L6.27,19.6c-.32,1.51-.58,2.73-.77,3.64q-.06.26-.12.57V24l.14.16a.75.75,0,0,0,.31.06H9.18a.41.41,0,0,0,.34-.26q0-.15.15-.66l2-9.26.1-.41s0,0,0-.16a.4.4,0,0,1,.33-.28l.4,0H16.2l.23-.12.1-.15.08-.23c0-.2.1-.5.19-.91.16-.71.29-1.34.41-1.88a3,3,0,0,0,.08-.41s0-.05,0-.17A.21.21,0,0,0,17.09,9a6.29,6.29,0,0,0-.81,0Zm6.54,3.6.06-.08,0,0,0,0ZM12.88,12h-.15l-.16,0,0-.12.05-.07a.68.68,0,0,1,.4,0L13,12Zm.68,0v0l0,0Zm.3-.63h-.23l-.06,0,.14-.06h.15l.07.07Zm1.45.68h-.08l-.05-.11.14,0,.06.1Zm.53-.73,0,.05a.83.83,0,0,1-.31.05l-.15,0-.08-.09.08,0a.72.72,0,0,1,.46,0ZM15.55,10l-.05,0V10Zm-1.2,0,0,0v0Zm-.6-.08.06,0c.13,0,.16.06.09.16l-.13.06H13.7l0-.14Zm-.13.55a12.36,12.36,0,0,0,1.38,0,.6.6,0,0,1,.36.08v0a2.78,2.78,0,0,1-.64.07H14a6.54,6.54,0,0,0-.7,0l-.31,0-.06,0,.1-.11A1.77,1.77,0,0,1,13.62,10.54Zm-.84.74-.08.1h-.09l-.21,0a.36.36,0,0,1-.25-.06l0-.06,0-.06a1,1,0,0,1,.56,0ZM12.51,10l0,0,0,0Zm-.22.58.06.11-.14,0-.06-.11ZM9.65,10v.06l-.08,0ZM7.3,10l.07.1-.13.1H6.69l0-.06L6.73,10A2.58,2.58,0,0,1,7.3,10Zm-.65.81-.07,0,0-.12h.15l0,.11ZM4.9,10.62l0,0-.07,0-.06,0ZM5.07,12,5,12l.06,0Zm0-.59H4.73a1,1,0,0,1-.32,0l-.07,0-.07,0,.07-.05a2.91,2.91,0,0,1,.73-.1.64.64,0,0,1,.38.06l0,.06-.1.09ZM6.21,9.94l0,0-.07.11L6.09,10Zm-.14.69,0,0,0,0,0,0ZM5.72,12l0-.07.14-.07.1.07V12L5.85,12Zm.61-.65,0-.06a.4.4,0,0,1,.24,0c.24,0,.34,0,.3.1s-.16.07-.39.07l-.15,0Zm0,1.14.14,0,0,.06-.14,0Zm.11-.53.06,0h.2l-.2.12ZM7,12l-.18-.06A.34.34,0,0,1,7,11.83l0,.1Zm.57-.62,0,0,0,0Zm.37-.6-.12-.05c0-.07,0-.1.18-.1h.16l.05,0-.1.1Zm.21-.55L8,10.07,8.15,10l.16,0c.12,0,.16,0,.13.13l-.12.1-.15,0Zm.14,1,.08.08,0,.06-.14,0-.05-.1Zm-.17.66,0-.05.09.07L8.1,12Zm.19.6.06,0a1.37,1.37,0,0,1,.84.05l.05,0-.12.11H9l-.55,0-.16,0ZM9.75,12H9.39L9,12l0,0,0-.06.09,0a1.78,1.78,0,0,0,.38-.06,2.21,2.21,0,0,1,.37,0,1.1,1.1,0,0,1,.24,0,2.71,2.71,0,0,1,.55.09l.06.11-.08,0a1.05,1.05,0,0,1-.33,0Zm0,3.53-.05,0v0ZM10,13.79l-.06,0,0,0,0,0Zm-.17-1.15-.07,0,0-.12.07-.05h.34l0,.07c0,.06-.09.09-.21.11Zm-.22,1.72.12-.08,0,0-.07.11Zm-.11-.62v0l0,0Zm-.8.74-.12-.07.15-.06c.15,0,.19,0,.13.09Zm-.09,1.1H8.52l.06,0Zm.12-1.76-.14-.05c0-.06,0-.08.22-.08l.07.09Zm.3-.74.06,0-.06,0Zm.54-1.7-.24,0H9.15l-.06,0v0a3.06,3.06,0,0,1,.58-.07l.09.09-.15.08ZM8.16,16.2l0,.05H8.09l0-.05,0,0Zm-.6,2.43h.08l0,.06-.08,0,0,0Zm-.22,1.19.11-.09.11.07-.08.13-.13,0Zm0,.64.06,0h.07l0,0-.1.08Zm.62-2.4,0,0L8,18,8,18Zm.16-.56,0-.06.08-.12.08,0,.1.08-.08.13ZM9,14.87h.25l.25,0,.09.09-.1.09a3.68,3.68,0,0,0-.5,0L8.92,15Zm.25.7h0l0,0ZM7.87,21.12l-.09,0,0-.06ZM7.34,23v0l.05,0Zm.16-.66,0-.06c.11,0,.17,0,.18.07v.06l-.13.07C7.48,22.42,7.45,22.38,7.5,22.3Zm1.39-6.09L9,16.16h.17l.15,0-.13.08-.24,0Zm-.79,5.6v-.06h.06v.05ZM8,23l0,0,0,0Zm.78-3.68,0-.08.06,0,0,.06Zm-.58,3.1v-.05h.06Zm1-4.88,0-.07.11-.1.11.07,0,.06Zm.55-.57H9.37l-.06-.11.08,0a.52.52,0,0,1,.37,0v.05Zm.27-.78H10l.05.11-.14,0Zm-.1,1.3,0,0,0-.05.06,0ZM8.78,22.32v-.06l.06,0Zm.44-1.88h.06l0,0-.05.05H9.18Zm-.39,2.47.05,0-.07,0C8.72,22.93,8.73,22.92,8.83,22.91ZM11.2,12.48l.07,0,.07,0-.09.1Zm.4-.52h-.07c-.1,0-.16,0-.18-.1l.22-.09.11.05Zm0-1.36,0,.05-.06.06h-.07l0-.1Zm-.49,2.51-.13.06h-.08l-.1-.09.06,0H11Zm-.41-1.88.34,0h.15l.09.07-.09,0a3.7,3.7,0,0,1-.57,0l0,0,0-.06Zm-.08-.6-.11.1-.4,0-.41,0-.64,0,0-.06.1-.09h.85a2.84,2.84,0,0,1,.6,0Z"/><path class="cls-3" d="M50.92,23.79c.21-1,.45-2.14.7-3.34a1.3,1.3,0,0,0,0-.16c0-.17-.06-.25-.24-.26L51,20H47.82l-.22.12-.1.15,0,.16c-.17.78-.4,1.89-.71,3.34V24a.17.17,0,0,0,.18.21l.41,0h2.94l.32,0a.32.32,0,0,0,.28-.22Zm-1.66-2.51-.07,0,.06-.09Zm-.35,1.18.05,0-.07,0Zm-.93.05,0,0,0,0,.07,0Zm.64-.6h-.14l-.1-.1.14-.07.32,0,.11.07-.16.07Zm.18,1.27-.08-.1.11-.12.16,0,0,.1-.06.09Zm.92-1.27-.09,0v-.06l.1-.05.1,0v.07Zm.07,1.17.05,0-.05.07Z"/><path class="cls-2" d="M86.6,9a.6.6,0,0,0-.25,0l-1.21,0H74.49a3.91,3.91,0,0,0-.58,0,.39.39,0,0,0-.32.26l0,.08-.09.33-.14.66c0,.3-.1.52-.12.65L71.92,17c-.66,3-1.07,4.94-1.24,5.74-.05.24-.11.57-.19,1V24l.13.17.23.05h12l.25,0,.17,0a.29.29,0,0,0,.25-.22l.06-.25c.24-1.09.46-2.13.67-3.11,0,0,0-.05,0-.24s0-.2-.17-.23l-.22,0H76l-.24,0a.23.23,0,0,1-.23-.27v-.07a9.75,9.75,0,0,1,.22-1.07l.08-.16a.28.28,0,0,1,.27-.19l.18,0h4.92a3.87,3.87,0,0,0,.48,0l.16-.05.12-.14a1.25,1.25,0,0,0,.12-.31c.15-.65.28-1.25.39-1.81,0-.2.08-.36.1-.49a2.11,2.11,0,0,0,0-.24.2.2,0,0,0-.17-.22l-.15,0H77l-.25,0c-.11,0-.16-.09-.16-.22v-.09a6.46,6.46,0,0,1,.25-1.14l0-.07c.08-.1.14-.16.19-.17l.17,0h7.62c.17,0,.38,0,.66,0a.36.36,0,0,0,.38-.3c0-.2.09-.34.1-.41.18-.84.37-1.74.58-2.7,0-.13,0-.27.08-.41V9.12ZM76,23v0l0,0Zm.5.65v-.06l.06,0Zm2,0h-.06v-.05l.16,0H79l.07,0-.09.07Zm1.41,0,0-.06H80l-.06.09Zm.66,0,0-.06.07,0,.08.09-.07,0Zm1.25-1.26v.06l-.07,0v-.06Zm-.13-.54-.06,0a9,9,0,0,1-1,0l-.06,0,.07,0a3.13,3.13,0,0,1,.41,0h.56Zm-.61.59,0,0,0-.05,0,0Zm-.61-1.3h.39l0,.05,0,.06a.8.8,0,0,1-.46,0l0-.05Zm.73,1.79c.08,0,.44,0,1.07,0a.89.89,0,0,1,.32.05l0,.05-.08.06-.33,0h-.57a1.75,1.75,0,0,0-.42,0,4.46,4.46,0,0,1-.64,0l-.33,0H80l-.08-.11.15-.06C80.74,22.85,81.14,22.85,81.23,22.86Zm-1.49-.46.06,0-.09,0Zm-.25-.7.06,0-.08.09h-.18a1.21,1.21,0,0,1-.28,0l-.05,0,.07-.05A.9.9,0,0,1,79.49,21.7ZM79,21.1l.08,0,0,.05,0,.06Zm-.29,1.13h.23l.06.1-.14.09h-.16l-.1,0v-.1Zm.11.64.08.08-.14.07h-.17a1,1,0,0,1-.28,0l-.07,0,.12-.07A1.58,1.58,0,0,1,78.8,22.87Zm-.75-.57,0,.13-.09,0-.09-.09.1-.11Zm-.26-1.24,0,.08-.15.06-.14,0v-.07c0-.08.1-.11.21-.11Zm-.5,1.88-.07.06L77,23a.55.55,0,0,1-.24,0v-.07l0-.05a1.22,1.22,0,0,1,.47,0ZM77,22.43l-.12,0H77Zm-.78-.2a.77.77,0,0,1,.4,0l.13.07.07.1a3,3,0,0,1-.61,0l0-.1Zm4.66-6.06,0,.06,0,0,0-.06h0Zm-.88,0-.07,0h-.15l-.07,0,.16,0Zm-1.09-.06,0,.06-.14.07-.12-.05,0-.07Zm-.81,0v.05h-.14l0-.1Zm-.3,1.14,0,.06-.13.05,0,0,0-.06Zm-.1-.52v.06h-.13l0-.06Zm-1.05,0v.05h0Zm.5-6.77-.07.11L77,10.05l.09-.07Zm-.76,0-.1.08-.2,0a.24.24,0,0,1,.26-.09ZM75,15.75,75,15.66c0-.09,0-.15.17-.15h.07l.14,0,.17.1A.65.65,0,0,1,75,15.75Zm.83-2,0,.06h-.08l0-.09Zm-2,5,0,0,.09-.08a1.42,1.42,0,0,1,.45,0l.33,0,0,.07-.08,0-.16,0-.16,0A1.25,1.25,0,0,1,73.84,18.73Zm.54.58,0,0,0,0ZM74,17.38h.08l0,.05-.13,0-.12,0Zm-.18.63,0,0V18ZM75,12.59l-.06-.13.12-.09.14,0,0,.05-.09.1Zm-.17,1.8,0-.06.06,0,0,.05Zm-.46,1.82v0h-.07V16.2l.07,0Zm.06-.68,0,0h0l-.07,0ZM75,13.76l.08,0,0,0Zm-.47,3,.14,0v.05l-.16,0,0-.08Zm.51-.63,0,0-.06,0,0,0ZM74.84,18l0,.06h-.13l0-.06Zm1.09-8,.12.05-.13.09h-.07v-.12Zm-.68.54h.28l.35,0,.05,0,0,0-.07,0a4.69,4.69,0,0,1-.74,0L75,10.65l.06,0,.14,0Zm-.15.64.59,0,.06,0,0,0-.72,0H74.5l-.12-.06c0-.05,0-.07.11-.08Zm-1.19,3.88c-.11,0-.16,0-.15-.1s.07-.12.18-.13h.15l0,.12,0,.06Zm-.06,1.11,0,0,0,.05.06,0v0h0Zm-.11.61-.08.11a1.24,1.24,0,0,1-.27,0h-.06l-.1-.08.14-.08a.74.74,0,0,1,.32,0ZM74,13.2l-.06-.11.07,0,.37,0h.11l.1.09-.13.09A1.78,1.78,0,0,1,74,13.2Zm.31-1.36.2,0,.1.09-.13.11H74.1l-.1-.08.13-.08Zm-.37.65v.1l0,0v-.05ZM71.68,23v0l0,0Zm1.21-6.72,0-.07h.21v.06l-.07,0C73,16.3,72.89,16.29,72.89,16.23Zm.78-1.89v.06l-.08,0v-.09Zm-.88,4.39-.11-.06.16-.07h.08l.09.08-.14.05Zm-.47,3,0-.06.06,0,0,.06ZM72.85,20l-.06,0-.11-.08a.58.58,0,0,1,.22-.08l.07,0,0,.13Zm.46-1.86h-.08l0-.11.15,0,0,.11Zm-.56,3,.09-.09h.06l0,.06-.13.05Zm1.6-6.73,0,0,.06,0Zm-.95,4.82.1-.09.11.06-.08.13h-.15ZM73,21.72l0,0v.06Zm.42-1.85.07,0v.06l-.06,0ZM72.89,23l0-.06,0-.05H73V23Zm.84-1.84,0,0,.07,0Zm.1-.56a.29.29,0,0,0,.29,0l.16-.05.14-.08-.09-.07-.31,0-.15,0-.06,0Zm-.06,2.3,0,.05-.06.05,0-.09Zm.07-.57h0l0,0Zm-.21,1.26.07,0,0,.06ZM74,21.75l0-.05.13-.07.1.07v.07C74.16,21.83,74.09,21.82,74,21.75Zm.28-.6,0,0h0l0,0Zm1-4.33,0-.06.08.07,0,.05Zm.27-.58,0,0,.07,0ZM76,12l-.09-.11.11-.11.26,0,.19,0h.19l.34,0,.06,0,0,.13L77,12l-.15,0h-.28a2.4,2.4,0,0,1-.46,0Zm.15,4.25,0-.06-.06,0,0,.06h0Zm.38-3.73,0,0,.07,0,.18.06-.26.07Zm-.89,4.87.08,0,0,0-.11.07ZM75.26,23a3.56,3.56,0,0,1-.65.1L74.48,23V23l.07,0a1.84,1.84,0,0,1,.64,0h.07l0,0Zm.11-1.22,0,0-.07,0Zm-.32.49.24,0,.07.11-.11.12H75l0-.13Zm.15-1.08-.14,0-.08,0,0-.06.16,0,0,0ZM77.5,10l.12-.08,0,.07-.12.07Zm-.07.64,0-.06h.13v.06l-.13.06Zm0,.57,0-.05h0v.05Zm7.29.06,0,.06-.12,0,0-.07Zm-3.33-.69v.05h-.06v-.07ZM81,10.05l0,0,0,0Zm-1.77,0,0,.06h-.07l.06-.09Zm-1,1.29,0-.07,0,.05Zm.5,0,0,0,0,0Zm.25.49h.12l0,.07-.12.06Zm.33-.48,0-.07.15,0,.1.1-.15.07Zm.33-.57h-.28l-.29,0h-.28a.37.37,0,0,1-.28-.06.53.53,0,0,1,.3-.15H80l.11.07-.12.11ZM81.4,12v0l0,0Zm.45-.6c-.1,0-.36,0-.77,0h-.32l-.34,0,0,0,.1-.1,1-.06a1.16,1.16,0,0,1,.48.05l0,.12Zm.78-1.45.05.11-.12.09-.1,0,0-.09Zm-.19.75v0h.07v.05ZM82.12,12v-.13l.15-.08.1,0,0,.1-.13.09Zm.57.54-.07-.09.06-.05a.36.36,0,0,1,.29,0l0,.06Zm.28-.69.1.06L83,12,82.85,12Zm.33-.51a1.68,1.68,0,0,1-.47,0l0,0,0-.07.09,0h.38l.07.09Zm-.14-.78.1.08-.12.11H83v-.14Zm.48-.43h-.47l0-.11.06,0a2.15,2.15,0,0,1,.56,0l.06.05-.09.13Zm-.22,1.75.08,0,0,0-.1,0Zm.56-.57.06,0v0Zm.29-.58-.43,0,.2-.11a.58.58,0,0,1,.39,0l0,.05,0,.06Zm.15-.68.12-.11h.16l.14,0,0,.06-.1.13a.51.51,0,0,1-.32,0Zm0,1.91,0-.11.09,0,.07.08,0,.06Zm1-1.26-.07-.08.07,0,.06.07ZM56.14,9l.25,0h3l.31,0,.13.07.12.18c0,.07.26.5.64,1.27.83,1.7,1.42,2.93,1.79,3.69l.12.19.16.07.19-.09.13-.12a2.19,2.19,0,0,1,.25-.27q3.1-3.42,4.17-4.56a2.92,2.92,0,0,1,.31-.33L68,9l.26,0h3.11a1.32,1.32,0,0,1,.32,0c.09,0,.14.07.14.15v.16c0,.24-.07.43-.1.57l-2,9.58c-.42,1.95-.7,3.28-.86,4a3.13,3.13,0,0,1-.13.49.4.4,0,0,1-.27.22H65.29a3.1,3.1,0,0,1-.49,0,.23.23,0,0,1-.2-.28c0-.13,0-.18,0-.17,0-.15.06-.29.08-.4L65,22.08l.59-2.79c.07-.38.2-1,.37-1.79.06-.27.09-.46.11-.58l0-.14-.15,0a1.37,1.37,0,0,0-.27.24l-1.08,1.18-1.06,1.17-.86.94-.86.94a4,4,0,0,1-.43.45c-.13.11-.22.11-.29,0s-.11-.16-.08-.13L60.65,21c-.11-.22-.34-.69-.68-1.41s-.51-1.05-.69-1.41q-.37-.77-.6-1.2l-.12-.19-.14-.05-.13.11q-.06.18-.06.15-.16.72-.24,1.08l-.92,4.34c-.14.63-.23,1.07-.28,1.31l-.1.23a.29.29,0,0,1-.2.16l-.17,0-.32,0H53.21l-.33,0c-.18,0-.25-.13-.22-.34a1.11,1.11,0,0,1,0-.23c0-.08,0-.25.09-.5L54,17.29c.58-2.71,1-4.89,1.4-6.55.1-.5.19-.91.26-1.24a3,3,0,0,1,.11-.32A.32.32,0,0,1,56.05,9h.09Zm11,5.33.06,0,0,.06-.08.06Zm0-.5a.54.54,0,0,0,.51-.16h0l-.48.07-.11.07Zm1.51-1.41h.36l.33,0,0,.12-.06.05H69a2.81,2.81,0,0,0-.65.05,1,1,0,0,1-.49,0c-.09,0-.09-.09,0-.18l.15-.1.4,0Zm.1-.52.06,0-.09,0-.09-.08ZM67.9,18l.15-.05.13.05-.13.09-.15,0Zm-.16.65.06,0,0,.05,0,0Zm.06-1.07-.11-.09.1-.13a1.65,1.65,0,0,1,.56-.08h.09c.12,0,.17.06.14.14l-.13.1a2.91,2.91,0,0,1-.42.08Zm.8-.84.14-.06.19.09,0,0-.12.09-.21,0Zm-.13-.45h-.25a3.73,3.73,0,0,1-.87-.06l-.06,0,0-.06.33-.05.24,0,.57,0h.28a1.29,1.29,0,0,1,.28,0l.14,0,0,.06-.08.05-.16,0Zm-2,5.46,0,0,0,0Zm.22-1.84,0-.05,0,.09Zm.38-1.87H67l0-.05h.07ZM67.37,15l.14-.09h.56l0,.07L68,15a3,3,0,0,0-.56.06ZM68,13.64h.3a1.88,1.88,0,0,1,.77.07l0,.07-.07,0H68.3A.31.31,0,0,1,68,13.64Zm.45.78-.08-.06.07-.11h.14v.13Zm-.53,1.23h-.07l-.15,0-.06,0,.1-.07H68l.09.06ZM69,15.52l.07,0,0,.07-.17,0,0-.11Zm.32-1.06-.07-.05,0-.05c.19-.07.28-.07.28,0l0,.05Zm.27-1.26.08-.07-.08-.1h-.49l-.38,0-.07,0-.11.12.1.09.41,0a1,1,0,0,1,.23,0h.28Zm-1.57,0-.15,0-.32,0-.16,0,0-.06,0,0,.09,0a1.23,1.23,0,0,1,.47,0Zm-1.85,7.9h.16l.06.09-.07,0h-.15L66,21.15Zm.14,2a.63.63,0,0,1-.37-.06l0-.08.08,0a.94.94,0,0,1,.55,0l0,.05-.11.11ZM67,21.79l0,0,.06,0,0,.08Zm.41-1.24h-.19l-.21,0,0-.05,0,0a.76.76,0,0,1,.4,0l.07.08Zm-.29,1.82,0-.06.06,0-.05.06Zm.67-3h-.08l-.1-.07.14-.1.13,0Zm.06,3.59c0-.06,0-.08-.16-.08a1.85,1.85,0,0,0-.39,0l-.06,0,.07.09h.47Zm1.59-8,0-.05.06-.06,0,0ZM70,12.53l-.1,0,0-.06.1,0Zm.07-1.25v.05l-.06,0v-.1Zm0,.58v.06L69.9,12l-.09-.07.12-.1Zm.06-1.9.06.11,0,.06a.26.26,0,0,1-.29,0l0-.06.09-.11A.3.3,0,0,1,70.11,10Zm-.51.64.16,0c.15,0,.2,0,.16.09a.24.24,0,0,1-.23.08l-.14,0,0-.07Zm-.78.77h-.24l-.31,0,0-.06.07-.06a4,4,0,0,1,.57,0l.12,0,.06.05A.57.57,0,0,1,68.82,11.37Zm-.42-.76.12,0,.08.05,0,.08-.07,0-.14,0Zm.14-.63a2.28,2.28,0,0,1,.56,0l0,.07,0,.06-.09,0h-.55l0-.07.06-.06Zm-.32,1.86.23,0a.35.35,0,0,1-.28.15h-.56l-.07-.11.06-.07.16,0A1.25,1.25,0,0,0,68.22,11.84ZM67.92,10,68,10l-.07,0Zm0,.65-.07.09,0,0,0-.05ZM63.35,18l0,0,0,0Zm3.35-4.9-.08,0h-.15l-.09,0v-.07l.15,0,.16,0Zm.07-1.2h.06l0,0ZM65.93,15l0-.06H66V15Zm.17-.68h0ZM66,15.66l0-.07.1-.09h.24l.09.08-.1.12A.28.28,0,0,1,66,15.66Zm1.06-3.18-.12,0,0,0,.1-.1Zm-.41,2-.11-.06.11-.07,0,.08Zm.1-3.23a1,1,0,0,1,.56,0l0,.06,0,.06-.07,0h-.27l-.2,0-.08-.07ZM65.67,14.3a1.42,1.42,0,0,1,.28,0,.32.32,0,0,1-.34.12l0,0,0-.06Zm-.2.7,0,.06V15Zm-.46.54.15,0,0,.07-.07,0-.14,0Zm-.19-1.8,0,0,0,0Zm-.77,3.68-.13,0-.05,0,.06-.07H64ZM64,15l0,0L64,15Zm0,1.14.12.08,0,.05-.16,0H63.9l-.09,0h-.29l-.07,0,0-.05Zm-.67,1.26v.06l-.06,0a.85.85,0,0,1-.33.07l-.14,0-.12-.09.05,0a.61.61,0,0,1,.54-.08ZM63,16.84l0,.06-.12,0,0-.05Zm.25-1.9,0,.06-.07,0,0-.06Zm-.27.59.06,0,.05.08-.07,0Zm-.82,3.71,0,.1h-.07l.05-.12ZM62.24,18l0,0-.09.09h-.06l0-.11Zm-.09-1.12.06,0h-.06Zm-.71,2.43,0,.09-.06,0,0-.06Zm-1.77-3,0,0,0-.06,0,0Zm.18.59H60l.07,0-.15,0Zm.46-.6,0-.06,0,0ZM60.12,18l0,0,0,0Zm1,.64.14-.07.11.06-.14.06Zm.31-.58H61.3L61.2,18l.11-.12h.08l.1.09Zm.28-1.92.05,0-.07,0c-.1,0-.12,0-.06-.07Zm-.6,1.21v.06L61,17.5l-.12,0,.07-.1Zm-.34-.52,0-.06.07,0,0,.06Zm.12-.63v-.06l.06,0Zm.43-1.85-.05,0v0Zm-.49,1.16a1,1,0,0,0-.23,0h-.4l-.13.06,0,.05.28.11a.56.56,0,0,0,.38,0l.09-.05Zm-.3-.63-.14.06-.11,0,.13-.06Zm-.07-1.18,0,0h0Zm-.33.67c-.11.08-.18.08-.23,0v-.05l.18,0,.06,0Zm.23-2,.07,0v.06l-.07,0,0-.09Zm-1.38,2-.07,0,.09-.08.11,0-.06,0Zm.1,1.12,0,.1L59,15.57Zm.34-.49-.08,0-.07,0-.13,0,0-.11.1-.08h.16c.13,0,.17.05.14.11Zm-.2,1.17v0l0,0Zm.69-3h-.27l-.3,0,0-.12.08,0a1.22,1.22,0,0,1,.55,0l.06.11Zm-.17-2v.05h0Zm-.3.55h.07a1.33,1.33,0,0,0,.39,0l.1.1-.12.11h-.24l-.23,0,0-.12Zm-.17.73,0,.06-.08-.08,0,0Zm-3.8,3.64,0,.05-.08,0ZM54.2,23l0,0,0,0Zm.5-2.38h-.08l-.11-.08.13-.08h.24l.08.07-.1.08Zm.38-1.95h.16v.07h-.16l0,0ZM55,21.17H55l-.05,0,.12-.07,0,.05Zm.77-3.71,0,0,0,0Zm.31-1.22v-.06l.06,0Zm-.54,3.06,0-.05,0,0,0,.05Zm1.15-2.58a.58.58,0,0,1,.36.08l0,.05-.06,0h-.4l-.06-.08Zm-.13,3.19c-.14.07-.2.07-.19,0l.07,0Zm-.08-2.5.13-.05v.06l-.13.06Zm-.32,3.2-.16,0-.09-.1.13-.08a.46.46,0,0,1,.24,0l0,.13Zm.4-1.3v-.06l.06-.06.13.06,0,.06Zm.23-.59,0,0,0-.06.14,0-.07.08Zm.1-.72L57,18l-.06,0ZM58,16.29h-.3l-.06,0,.09-.08.33,0,.08.09Zm.26-2h.06v.06l-.06,0ZM58,15l-.07.05h-.08L57.55,15a.82.82,0,0,1,.35-.18l.13.07Zm0-2H58l.07.07-.15.05-.05-.08Zm.21.77a.63.63,0,0,1-.23,0l-.07,0-.07,0,.1-.06h.31l0,.07Zm.18-1.8-.11-.08.15-.07.1.08Zm.16-.69h-.14v-.12l.14-.06h.06v.13Zm.24-1.2,0,0,0,0Zm-.12.54-.12.05-.13-.05v0l.16,0ZM57.7,12l-.07,0,.07-.07ZM58,10l0,.07c0,.08,0,.13-.15.16s-.19,0-.2-.08l.08-.14Zm-.36,1.39-.11,0,0-.06.11,0Zm-.8,1.12.65-.05h.41l.06.05-.06.15-.16,0a1.39,1.39,0,0,0-.55,0,.89.89,0,0,1-.41,0l0-.06,0-.06Zm.27,2.59L57,15l0-.07h.14l.07.1Zm-.48-.64h-.06l0-.05Zm-.06-.63c-.07,0-.05-.06,0-.06l0,0ZM58,15.52l.08.08-.16.05h-.4a3.41,3.41,0,0,1-.71,0l-.5,0h-.49l-.07,0,.06-.05.08,0h.89A8.58,8.58,0,0,1,58,15.52Zm-1.43-4.17-.12-.06.15-.07.12.07Zm0-.74v.05l-.07,0v-.09Zm-.25,1.28,0,.07-.11,0,0-.06Zm.4-1.83-.11,0h.15Zm-.95,4.22,0,.13-.06.05h-.08l0-.11Z"/></symbol></defs><title>Logo</title><g id="Слой_2" data-name="Слой 2"><g id="Слой_1-2" data-name="Слой 1"><use id="Logo-3" data-name="Logo" width="87" height="32" transform="scale(1.01 1)" xlink:href="#Logo"/></g></g></svg>