<svg xmlns="http://www.w3.org/2000/svg" xmlns:xlink="http://www.w3.org/1999/xlink" viewBox="0 0 60 60"><defs><style>.cls-1,.cls-2,.cls-3{fill:#a0a4a8;}.cls-1{opacity:0;}.cls-2{opacity:0.15;}</style><symbol id="Rating_Man" data-name="Rating_Man" viewBox="0 0 60 60"><g id="Rating_Man_Pressed"><rect class="cls-1" width="60" height="60"/><circle class="cls-2" cx="30" cy="30" r="23"/><circle class="cls-2" cx="30" cy="30" r="16"/><path class="cls-3" d="M53.76,45.2A18.2,18.2,0,0,0,40.41,30h-.14A3.59,3.59,0,0,1,39,29.35a3.14,3.14,0,0,1-1.28-2.14l0-.28.19-.21A10.48,10.48,0,0,0,40.61,21l0-.18.11-.13A6,6,0,0,0,42,16.51v-.17A2.82,2.82,0,0,0,41.68,15l-.16-.3.18-.28a5,5,0,0,0,.72-2.81c0-.16,0-.33,0-.5l0-.26.19-.18A14.59,14.59,0,0,0,46,4.5l0-.17a.7.7,0,0,0-.72-.72.69.69,0,0,0-.47.18,2.23,2.23,0,0,1-1.53.66,3.28,3.28,0,0,1-1.38-.37c-.5-.22-1.08-.55-1.81-1a17.58,17.58,0,0,0-9.45-3c-4.54,0-7.14,1.29-8.69,2.73a7.34,7.34,0,0,0-2.2,3.93l0,.18-.13.13a6.94,6.94,0,0,0-1.19,1.53,4.86,4.86,0,0,0-.68,2.42v.16h0a5.09,5.09,0,0,0,1.47,3.26l.25.28-.15.35A2.79,2.79,0,0,0,19,16.33v-.15h0a10.37,10.37,0,0,0,.23,2.23,4.71,4.71,0,0,0,1.25,2.23l.14.14,0,.19a10.69,10.69,0,0,0,2.75,5.58l.2.22-.05.3a3.32,3.32,0,0,1-1.39,2.15,4.35,4.35,0,0,1-1.19.62h0l-.09,0A18.5,18.5,0,0,0,7.25,45.42c0,.4-.08.81-.11,1.21C7.07,48.16,7,49.71,7,51.25V51a7.63,7.63,0,0,0,6.34,7.55A102.39,102.39,0,0,0,30.5,60a102.39,102.39,0,0,0,17.16-1.47l.11,0A7.74,7.74,0,0,0,54,50.88v0h0c0-1.51-.07-3-.14-4.53l.59,0-.59,0C53.84,46,53.8,45.6,53.76,45.2ZM21.48,21l.59-.07-.59.07a.74.74,0,0,0-.26-.48,3.31,3.31,0,0,1-1-1.52,6.31,6.31,0,0,1-.25-1.77l0-.87.82.28.24.05a.76.76,0,0,0,.43-.14.74.74,0,0,0,.31-.61l0-.19a6.1,6.1,0,0,1-.19-1.53,3.39,3.39,0,0,1,.06-.72,1.54,1.54,0,0,1,.29-.68h0a.93.93,0,0,1,.48-.29,1.73,1.73,0,0,1,.37,0h.22a.74.74,0,0,0,.61-.32h0a2.57,2.57,0,0,1,1.37-.92A6.5,6.5,0,0,1,26.77,11a38.56,38.56,0,0,1,9.07,1.72,7.58,7.58,0,0,0,2,.3h.37l.16.32a3.9,3.9,0,0,1,.42,1.7,3.22,3.22,0,0,1,0,.43v.1a.74.74,0,0,0,.2.51.76.76,0,0,0,.55.23h.06a2.22,2.22,0,0,0,.43-.08l.76-.2,0,.79a8.34,8.34,0,0,1-.16,1.79,3.3,3.3,0,0,1-1,1.7.74.74,0,0,0-.22.44,9.17,9.17,0,0,1-2.77,5.75h0l-.11.11h0a8.86,8.86,0,0,1-6,2.39h-.2A9.08,9.08,0,0,1,21.48,21Zm1.17,9.49a5,5,0,0,0,1.48-1.77l.29-.58.56.35A10,10,0,0,0,30.31,30l.11,1h.12c1.93-1,3.75-1.56,5.3-2.52l.57-.36.27.61a4.56,4.56,0,0,0,1.48,1.79l.45.33-.32.47c-.9,1.36-3.15,3.4-7.85,3.39A11,11,0,0,1,25,33.48a6.86,6.86,0,0,1-2.48-2.25l-.3-.46Zm21.88,25-.1-.58.1.58A86.27,86.27,0,0,1,30,56.67a86.48,86.48,0,0,1-14.53-1.25A5.36,5.36,0,0,1,11,50.1V50h0c0-1.27.06-2.55.12-3.81,0-.31,0-.63.08-.94A14.5,14.5,0,0,1,21.42,33.36l.45-.14.23.4A7,7,0,0,0,24.44,36,10.26,10.26,0,0,0,30,37.36,10.26,10.26,0,0,0,35.56,36a7,7,0,0,0,2.34-2.35l.23-.4.45.14A14.5,14.5,0,0,1,48.8,45.27c0,.31.06.63.08.94.06,1.27.11,2.55.12,3.83v.06A5.36,5.36,0,0,1,44.53,55.42Z"/></g></symbol></defs><title>Ресурс 276</title><g id="Слой_2" data-name="Слой 2"><g id="Слой_1-2" data-name="Слой 1"><use width="60" height="60" xlink:href="#Rating_Man"/></g></g></svg>