<svg xmlns="http://www.w3.org/2000/svg" xmlns:xlink="http://www.w3.org/1999/xlink" viewBox="0 0 13 12"><defs><style>.cls-1{fill:url(#Безымянный_градиент_107);}</style><linearGradient id="Безымянный_градиент_107" x1="1.89" y1="96.44" x2="10.68" y2="87.65" gradientTransform="translate(0 -85.06)" gradientUnits="userSpaceOnUse"><stop offset="0" stop-color="#fc0"/><stop offset="1" stop-color="#f80"/></linearGradient><symbol id="Rating_Star" data-name="Rating_Star" viewBox="0 0 12.57 12.02"><path class="cls-1" d="M6.84.4,7.93,3.74a.57.57,0,0,0,.55.4H12a.59.59,0,0,1,.34,1.06L9.5,7.26a.57.57,0,0,0-.22.65l1.09,3.34a.58.58,0,0,1-.9.65L6.63,9.84a.59.59,0,0,0-.69,0L3.11,11.9a.58.58,0,0,1-.9-.65L3.29,7.91a.58.58,0,0,0-.21-.65L.24,5.2A.59.59,0,0,1,.59,4.14h3.5a.58.58,0,0,0,.56-.4L5.73.4A.59.59,0,0,1,6.84.4Z"/></symbol></defs><title>Rating_Star</title><g id="Слой_2" data-name="Слой 2"><g id="Слой_1-2" data-name="Слой 1"><use width="12.57" height="12.02" transform="scale(1.03 1)" xlink:href="#Rating_Star"/></g></g></svg>