<svg xmlns="http://www.w3.org/2000/svg" viewBox="0 0 16 17.28"><defs><style>.cls-1{fill:#a0a4a8;}.cls-2{fill:none;stroke:#999;stroke-miterlimit:10;}</style></defs><title>Ресурс 14</title><g id="Слой_2" data-name="Слой 2"><g id="Слой_1-2" data-name="Слой 1"><path class="cls-1" d="M13,1a2,2,0,1,1-2,2,2,2,0,0,1,2-2m0-1a3,3,0,1,0,3,3,3,3,0,0,0-3-3"/><path class="cls-1" d="M3,6.28a2,2,0,1,1-2,2,2,2,0,0,1,2-2m0-1a3,3,0,1,0,3,3,3,3,0,0,0-3-3"/><line class="cls-2" x1="10.5" y1="3.78" x2="4.5" y2="6.78"/><path class="cls-1" d="M13,12.28a2,2,0,1,1-2,2,2,2,0,0,1,2-2m0-1a3,3,0,1,0,3,3,3,3,0,0,0-3-3"/><line class="cls-2" x1="10.5" y1="13.28" x2="4.5" y2="10.28"/></g></g></svg>