<svg xmlns="http://www.w3.org/2000/svg" xmlns:xlink="http://www.w3.org/1999/xlink" viewBox="0 0 1600 120"><defs><style>.cls-1{fill:none;}.cls-2{opacity:0.06;fill:url(#Новый_узор_18);}</style><pattern id="Новый_узор_18" data-name="Новый узор 18" width="65" height="400" patternTransform="translate(168.19 444.84) scale(0.62 0.62)" patternUnits="userSpaceOnUse" viewBox="0 0 65 400"><rect class="cls-1" width="65" height="400"/><path d="M68.54,342.2a3.82,3.82,0,1,0-3.82-3.81A3.82,3.82,0,0,0,68.54,342.2Z"/><path d="M68.54,365.11a4.19,4.19,0,1,0-4.19-4.19A4.19,4.19,0,0,0,68.54,365.11Z"/><path d="M64,383.46a4.57,4.57,0,1,0,4.57-4.56A4.56,4.56,0,0,0,64,383.46"/><path d="M55.54.59a.25.25,0,0,0,0-.49.25.25,0,0,0-.26.24A.26.26,0,0,0,55.54.59Z"/><path d="M61.17,11.86a.25.25,0,1,0-.25-.25A.25.25,0,0,0,61.17,11.86Z"/><path d="M55.54,23.19a.31.31,0,1,0-.32-.31A.31.31,0,0,0,55.54,23.19Z"/><path d="M61.17,34.55a.41.41,0,1,0,0-.81.41.41,0,1,0,0,.81Z"/><path d="M55.54,45.88a.46.46,0,0,0,.46-.46.47.47,0,1,0-.93,0A.46.46,0,0,0,55.54,45.88Z"/><path d="M61.17,57.22a.54.54,0,1,0-.53-.54A.54.54,0,0,0,61.17,57.22Z"/><path d="M55.54,68.58a.63.63,0,1,0-.63-.63A.63.63,0,0,0,55.54,68.58Z"/><path d="M61.17,79.94a.72.72,0,1,0-.72-.72A.72.72,0,0,0,61.17,79.94Z"/><path d="M55.54,91.3a.81.81,0,1,0-.82-.81A.81.81,0,0,0,55.54,91.3Z"/><path d="M61.17,102.66a.91.91,0,0,0,0-1.81.91.91,0,1,0,0,1.81Z"/><path d="M55.54,114a1,1,0,1,0-1-1A1,1,0,0,0,55.54,114Z"/><path d="M61.17,125.42A1.13,1.13,0,1,0,60,124.29,1.13,1.13,0,0,0,61.17,125.42Z"/><path d="M55.54,136.78a1.22,1.22,0,1,0-1.22-1.22A1.22,1.22,0,0,0,55.54,136.78Z"/><path d="M61.17,148.17a1.34,1.34,0,1,0-1.35-1.34A1.34,1.34,0,0,0,61.17,148.17Z"/><path d="M55.54,159.53a1.44,1.44,0,1,0-1.44-1.43A1.43,1.43,0,0,0,55.54,159.53Z"/><path d="M61.17,170.93a1.57,1.57,0,1,0-1.56-1.56A1.56,1.56,0,0,0,61.17,170.93Z"/><path d="M55.54,182.32a1.69,1.69,0,1,0-1.69-1.69A1.69,1.69,0,0,0,55.54,182.32Z"/><path d="M61.17,193.71a1.81,1.81,0,1,0-1.81-1.81A1.81,1.81,0,0,0,61.17,193.71Z"/><path d="M55.54,205.11a1.94,1.94,0,1,0-1.94-1.94A1.94,1.94,0,0,0,55.54,205.11Z"/><path d="M61.17,216.5a2.07,2.07,0,1,0-2.06-2.06A2.06,2.06,0,0,0,61.17,216.5Z"/><path d="M55.54,227.89a2.19,2.19,0,1,0-2.19-2.18A2.19,2.19,0,0,0,55.54,227.89Z"/><path d="M61.17,239.32A2.35,2.35,0,1,0,58.82,237,2.35,2.35,0,0,0,61.17,239.32Z"/><path d="M55.54,250.74a2.5,2.5,0,1,0-2.51-2.5A2.5,2.5,0,0,0,55.54,250.74Z"/><path d="M61.17,262.13a2.63,2.63,0,1,0-2.63-2.62A2.62,2.62,0,0,0,61.17,262.13Z"/><path d="M55.54,273.56a2.78,2.78,0,1,0-2.79-2.78A2.79,2.79,0,0,0,55.54,273.56Z"/><path d="M61.17,285a3,3,0,1,0-3-3A3,3,0,0,0,61.17,285Z"/><path d="M55.54,296.44a3.13,3.13,0,1,0-3.13-3.13A3.13,3.13,0,0,0,55.54,296.44Z"/><path d="M61.17,307.86a3.28,3.28,0,1,0-3.28-3.28A3.28,3.28,0,0,0,61.17,307.86Z"/><path d="M55.54,319.32a3.47,3.47,0,1,0-3.47-3.47A3.46,3.46,0,0,0,55.54,319.32Z"/><path d="M61.17,330.74a3.63,3.63,0,1,0-3.63-3.62A3.62,3.62,0,0,0,61.17,330.74Z"/><path d="M55.54,342.2a3.82,3.82,0,1,0-3.82-3.81A3.82,3.82,0,0,0,55.54,342.2Z"/><path d="M61.17,353.65a4,4,0,1,0-4-4A4,4,0,0,0,61.17,353.65Z"/><path d="M55.54,365.11a4.19,4.19,0,1,0-4.19-4.19A4.19,4.19,0,0,0,55.54,365.11Z"/><path d="M61.17,376.56a4.38,4.38,0,1,0-4.37-4.37A4.36,4.36,0,0,0,61.17,376.56Z"/><path d="M51,383.46a4.57,4.57,0,1,0,4.57-4.56A4.56,4.56,0,0,0,51,383.46"/><path d="M61,389.81A5.05,5.05,0,1,0,66,394.86,5,5,0,0,0,61,389.81Z"/><path d="M42.54.59a.25.25,0,0,0,0-.49.25.25,0,0,0-.26.24A.26.26,0,0,0,42.54.59Z"/><path d="M48.17,11.86a.25.25,0,1,0-.25-.25A.25.25,0,0,0,48.17,11.86Z"/><path d="M42.54,23.19a.31.31,0,1,0-.32-.31A.31.31,0,0,0,42.54,23.19Z"/><path d="M48.17,34.55a.41.41,0,1,0,0-.81.41.41,0,1,0,0,.81Z"/><path d="M42.54,45.88a.46.46,0,0,0,.46-.46.47.47,0,1,0-.93,0A.46.46,0,0,0,42.54,45.88Z"/><path d="M48.17,57.22a.54.54,0,1,0-.53-.54A.54.54,0,0,0,48.17,57.22Z"/><path d="M42.54,68.58a.63.63,0,1,0-.63-.63A.63.63,0,0,0,42.54,68.58Z"/><path d="M48.17,79.94a.72.72,0,1,0-.72-.72A.72.72,0,0,0,48.17,79.94Z"/><path d="M42.54,91.3a.81.81,0,1,0-.82-.81A.81.81,0,0,0,42.54,91.3Z"/><path d="M48.17,102.66a.91.91,0,0,0,0-1.81.91.91,0,1,0,0,1.81Z"/><path d="M42.54,114a1,1,0,1,0-1-1A1,1,0,0,0,42.54,114Z"/><path d="M48.17,125.42A1.13,1.13,0,1,0,47,124.29,1.13,1.13,0,0,0,48.17,125.42Z"/><path d="M42.54,136.78a1.22,1.22,0,1,0-1.22-1.22A1.22,1.22,0,0,0,42.54,136.78Z"/><path d="M48.17,148.17a1.34,1.34,0,1,0-1.35-1.34A1.34,1.34,0,0,0,48.17,148.17Z"/><path d="M42.54,159.53a1.44,1.44,0,1,0-1.44-1.43A1.43,1.43,0,0,0,42.54,159.53Z"/><path d="M48.17,170.93a1.57,1.57,0,1,0-1.56-1.56A1.56,1.56,0,0,0,48.17,170.93Z"/><path d="M42.54,182.32a1.69,1.69,0,1,0-1.69-1.69A1.69,1.69,0,0,0,42.54,182.32Z"/><path d="M48.17,193.71a1.81,1.81,0,1,0-1.81-1.81A1.81,1.81,0,0,0,48.17,193.71Z"/><path d="M42.54,205.11a1.94,1.94,0,1,0-1.94-1.94A1.94,1.94,0,0,0,42.54,205.11Z"/><path d="M48.17,216.5a2.07,2.07,0,1,0-2.06-2.06A2.06,2.06,0,0,0,48.17,216.5Z"/><path d="M42.54,227.89a2.19,2.19,0,1,0-2.19-2.18A2.19,2.19,0,0,0,42.54,227.89Z"/><path d="M48.17,239.32A2.35,2.35,0,1,0,45.82,237,2.35,2.35,0,0,0,48.17,239.32Z"/><path d="M42.54,250.74a2.5,2.5,0,1,0-2.51-2.5A2.5,2.5,0,0,0,42.54,250.74Z"/><path d="M48.17,262.13a2.63,2.63,0,1,0-2.63-2.62A2.62,2.62,0,0,0,48.17,262.13Z"/><path d="M42.54,273.56a2.78,2.78,0,1,0-2.79-2.78A2.79,2.79,0,0,0,42.54,273.56Z"/><path d="M48.17,285a3,3,0,1,0-3-3A3,3,0,0,0,48.17,285Z"/><path d="M42.54,296.44a3.13,3.13,0,1,0-3.13-3.13A3.13,3.13,0,0,0,42.54,296.44Z"/><path d="M48.17,307.86a3.28,3.28,0,1,0-3.28-3.28A3.28,3.28,0,0,0,48.17,307.86Z"/><path d="M42.54,319.32a3.47,3.47,0,1,0-3.47-3.47A3.46,3.46,0,0,0,42.54,319.32Z"/><path d="M48.17,330.74a3.63,3.63,0,1,0-3.63-3.62A3.62,3.62,0,0,0,48.17,330.74Z"/><path d="M42.54,342.2a3.82,3.82,0,1,0-3.82-3.81A3.82,3.82,0,0,0,42.54,342.2Z"/><path d="M48.17,353.65a4,4,0,1,0-4-4A4,4,0,0,0,48.17,353.65Z"/><path d="M42.54,365.11a4.19,4.19,0,1,0-4.19-4.19A4.19,4.19,0,0,0,42.54,365.11Z"/><path d="M48.17,376.56a4.38,4.38,0,1,0-4.37-4.37A4.36,4.36,0,0,0,48.17,376.56Z"/><path d="M38,383.46a4.57,4.57,0,1,0,4.57-4.56A4.56,4.56,0,0,0,38,383.46"/><path d="M48,389.81A5.05,5.05,0,1,0,53,394.86,5,5,0,0,0,48,389.81Z"/><path d="M29.54.59a.25.25,0,0,0,0-.49.25.25,0,0,0-.26.24A.26.26,0,0,0,29.54.59Z"/><path d="M35.17,11.86a.25.25,0,1,0-.25-.25A.25.25,0,0,0,35.17,11.86Z"/><path d="M29.54,23.19a.31.31,0,1,0-.32-.31A.31.31,0,0,0,29.54,23.19Z"/><path d="M35.17,34.55a.41.41,0,1,0,0-.81.41.41,0,1,0,0,.81Z"/><path d="M29.54,45.88a.46.46,0,0,0,.46-.46.47.47,0,1,0-.93,0A.46.46,0,0,0,29.54,45.88Z"/><path d="M35.17,57.22a.54.54,0,1,0-.53-.54A.54.54,0,0,0,35.17,57.22Z"/><path d="M29.54,68.58a.63.63,0,1,0-.63-.63A.63.63,0,0,0,29.54,68.58Z"/><path d="M35.17,79.94a.72.72,0,1,0-.72-.72A.72.72,0,0,0,35.17,79.94Z"/><path d="M29.54,91.3a.81.81,0,1,0-.82-.81A.81.81,0,0,0,29.54,91.3Z"/><path d="M35.17,102.66a.91.91,0,0,0,0-1.81.91.91,0,1,0,0,1.81Z"/><path d="M29.54,114a1,1,0,1,0-1-1A1,1,0,0,0,29.54,114Z"/><path d="M35.17,125.42A1.13,1.13,0,1,0,34,124.29,1.13,1.13,0,0,0,35.17,125.42Z"/><path d="M29.54,136.78a1.22,1.22,0,1,0-1.22-1.22A1.22,1.22,0,0,0,29.54,136.78Z"/><path d="M35.17,148.17a1.34,1.34,0,1,0-1.35-1.34A1.34,1.34,0,0,0,35.17,148.17Z"/><path d="M29.54,159.53a1.44,1.44,0,1,0-1.44-1.43A1.43,1.43,0,0,0,29.54,159.53Z"/><path d="M35.17,170.93a1.57,1.57,0,1,0-1.56-1.56A1.56,1.56,0,0,0,35.17,170.93Z"/><path d="M29.54,182.32a1.69,1.69,0,1,0-1.69-1.69A1.69,1.69,0,0,0,29.54,182.32Z"/><path d="M35.17,193.71a1.81,1.81,0,1,0-1.81-1.81A1.81,1.81,0,0,0,35.17,193.71Z"/><path d="M29.54,205.11a1.94,1.94,0,1,0-1.94-1.94A1.94,1.94,0,0,0,29.54,205.11Z"/><path d="M35.17,216.5a2.07,2.07,0,1,0-2.06-2.06A2.06,2.06,0,0,0,35.17,216.5Z"/><path d="M29.54,227.89a2.19,2.19,0,1,0-2.19-2.18A2.19,2.19,0,0,0,29.54,227.89Z"/><path d="M35.17,239.32A2.35,2.35,0,1,0,32.82,237,2.35,2.35,0,0,0,35.17,239.32Z"/><path d="M29.54,250.74a2.5,2.5,0,1,0-2.51-2.5A2.5,2.5,0,0,0,29.54,250.74Z"/><path d="M35.17,262.13a2.63,2.63,0,1,0-2.63-2.62A2.62,2.62,0,0,0,35.17,262.13Z"/><path d="M29.54,273.56a2.78,2.78,0,1,0-2.79-2.78A2.79,2.79,0,0,0,29.54,273.56Z"/><path d="M35.17,285a3,3,0,1,0-3-3A3,3,0,0,0,35.17,285Z"/><path d="M29.54,296.44a3.13,3.13,0,1,0-3.13-3.13A3.13,3.13,0,0,0,29.54,296.44Z"/><path d="M35.17,307.86a3.28,3.28,0,1,0-3.28-3.28A3.28,3.28,0,0,0,35.17,307.86Z"/><path d="M29.54,319.32a3.47,3.47,0,1,0-3.47-3.47A3.46,3.46,0,0,0,29.54,319.32Z"/><path d="M35.17,330.74a3.63,3.63,0,1,0-3.63-3.62A3.62,3.62,0,0,0,35.17,330.74Z"/><path d="M29.54,342.2a3.82,3.82,0,1,0-3.82-3.81A3.82,3.82,0,0,0,29.54,342.2Z"/><path d="M35.17,353.65a4,4,0,1,0-4-4A4,4,0,0,0,35.17,353.65Z"/><path d="M29.54,365.11a4.19,4.19,0,1,0-4.19-4.19A4.19,4.19,0,0,0,29.54,365.11Z"/><path d="M35.17,376.56a4.38,4.38,0,1,0-4.37-4.37A4.36,4.36,0,0,0,35.17,376.56Z"/><path d="M25,383.46a4.57,4.57,0,1,0,4.57-4.56A4.56,4.56,0,0,0,25,383.46"/><path d="M35,389.81A5.05,5.05,0,1,0,40,394.86,5,5,0,0,0,35,389.81Z"/><path d="M16.54.59a.25.25,0,0,0,0-.49.25.25,0,0,0-.26.24A.26.26,0,0,0,16.54.59Z"/><path d="M22.17,11.86a.25.25,0,1,0-.25-.25A.25.25,0,0,0,22.17,11.86Z"/><path d="M16.54,23.19a.31.31,0,1,0-.32-.31A.31.31,0,0,0,16.54,23.19Z"/><path d="M22.17,34.55a.41.41,0,1,0,0-.81.41.41,0,1,0,0,.81Z"/><path d="M16.54,45.88a.46.46,0,0,0,.46-.46.47.47,0,1,0-.93,0A.46.46,0,0,0,16.54,45.88Z"/><path d="M22.17,57.22a.54.54,0,1,0-.53-.54A.54.54,0,0,0,22.17,57.22Z"/><path d="M16.54,68.58a.63.63,0,1,0-.63-.63A.63.63,0,0,0,16.54,68.58Z"/><path d="M22.17,79.94a.72.72,0,1,0-.72-.72A.72.72,0,0,0,22.17,79.94Z"/><path d="M16.54,91.3a.81.81,0,1,0-.82-.81A.81.81,0,0,0,16.54,91.3Z"/><path d="M22.17,102.66a.91.91,0,0,0,0-1.81.91.91,0,1,0,0,1.81Z"/><path d="M16.54,114a1,1,0,1,0-1-1A1,1,0,0,0,16.54,114Z"/><path d="M22.17,125.42A1.13,1.13,0,1,0,21,124.29,1.13,1.13,0,0,0,22.17,125.42Z"/><path d="M16.54,136.78a1.22,1.22,0,1,0-1.22-1.22A1.22,1.22,0,0,0,16.54,136.78Z"/><path d="M22.17,148.17a1.34,1.34,0,1,0-1.35-1.34A1.34,1.34,0,0,0,22.17,148.17Z"/><path d="M16.54,159.53a1.44,1.44,0,1,0-1.44-1.43A1.43,1.43,0,0,0,16.54,159.53Z"/><path d="M22.17,170.93a1.57,1.57,0,1,0-1.56-1.56A1.56,1.56,0,0,0,22.17,170.93Z"/><path d="M16.54,182.32a1.69,1.69,0,1,0-1.69-1.69A1.69,1.69,0,0,0,16.54,182.32Z"/><path d="M22.17,193.71a1.81,1.81,0,1,0-1.81-1.81A1.81,1.81,0,0,0,22.17,193.71Z"/><path d="M16.54,205.11a1.94,1.94,0,1,0-1.94-1.94A1.94,1.94,0,0,0,16.54,205.11Z"/><path d="M22.17,216.5a2.07,2.07,0,1,0-2.06-2.06A2.06,2.06,0,0,0,22.17,216.5Z"/><path d="M16.54,227.89a2.19,2.19,0,1,0-2.19-2.18A2.19,2.19,0,0,0,16.54,227.89Z"/><path d="M22.17,239.32A2.35,2.35,0,1,0,19.82,237,2.35,2.35,0,0,0,22.17,239.32Z"/><path d="M16.54,250.74a2.5,2.5,0,1,0-2.51-2.5A2.5,2.5,0,0,0,16.54,250.74Z"/><path d="M22.17,262.13a2.63,2.63,0,1,0-2.63-2.62A2.62,2.62,0,0,0,22.17,262.13Z"/><path d="M16.54,273.56a2.78,2.78,0,1,0-2.79-2.78A2.79,2.79,0,0,0,16.54,273.56Z"/><path d="M22.17,285a3,3,0,1,0-3-3A3,3,0,0,0,22.17,285Z"/><path d="M16.54,296.44a3.13,3.13,0,1,0-3.13-3.13A3.13,3.13,0,0,0,16.54,296.44Z"/><path d="M22.17,307.86a3.28,3.28,0,1,0-3.28-3.28A3.28,3.28,0,0,0,22.17,307.86Z"/><path d="M16.54,319.32a3.47,3.47,0,1,0-3.47-3.47A3.46,3.46,0,0,0,16.54,319.32Z"/><path d="M22.17,330.74a3.63,3.63,0,1,0-3.63-3.62A3.62,3.62,0,0,0,22.17,330.74Z"/><path d="M16.54,342.2a3.82,3.82,0,1,0-3.82-3.81A3.82,3.82,0,0,0,16.54,342.2Z"/><path d="M22.17,353.65a4,4,0,1,0-4-4A4,4,0,0,0,22.17,353.65Z"/><path d="M16.54,365.11a4.19,4.19,0,1,0-4.19-4.19A4.19,4.19,0,0,0,16.54,365.11Z"/><path d="M22.17,376.56a4.38,4.38,0,1,0-4.37-4.37A4.36,4.36,0,0,0,22.17,376.56Z"/><path d="M12,383.46a4.57,4.57,0,1,0,4.57-4.56A4.56,4.56,0,0,0,12,383.46"/><path d="M22,389.81A5.05,5.05,0,1,0,27,394.86,5,5,0,0,0,22,389.81Z"/><path d="M3.54.59a.25.25,0,0,0,0-.49.25.25,0,0,0-.26.24A.26.26,0,0,0,3.54.59Z"/><path d="M9.17,11.86a.25.25,0,1,0-.25-.25A.25.25,0,0,0,9.17,11.86Z"/><path d="M3.54,23.19a.31.31,0,1,0-.32-.31A.31.31,0,0,0,3.54,23.19Z"/><path d="M9.17,34.55a.41.41,0,1,0,0-.81.41.41,0,1,0,0,.81Z"/><path d="M3.54,45.88A.46.46,0,0,0,4,45.42a.47.47,0,1,0-.93,0A.46.46,0,0,0,3.54,45.88Z"/><path d="M9.17,57.22a.54.54,0,1,0-.53-.54A.54.54,0,0,0,9.17,57.22Z"/><path d="M3.54,68.58A.63.63,0,1,0,2.91,68,.63.63,0,0,0,3.54,68.58Z"/><path d="M9.17,79.94a.72.72,0,1,0-.72-.72A.72.72,0,0,0,9.17,79.94Z"/><path d="M3.54,91.3a.81.81,0,1,0-.82-.81A.81.81,0,0,0,3.54,91.3Z"/><path d="M9.17,102.66a.91.91,0,0,0,0-1.81.91.91,0,1,0,0,1.81Z"/><path d="M3.54,114a1,1,0,1,0-1-1A1,1,0,0,0,3.54,114Z"/><path d="M9.17,125.42A1.13,1.13,0,1,0,8,124.29,1.13,1.13,0,0,0,9.17,125.42Z"/><path d="M3.54,136.78a1.22,1.22,0,1,0-1.22-1.22A1.22,1.22,0,0,0,3.54,136.78Z"/><path d="M9.17,148.17a1.34,1.34,0,1,0-1.35-1.34A1.34,1.34,0,0,0,9.17,148.17Z"/><path d="M3.54,159.53A1.44,1.44,0,1,0,2.1,158.1,1.43,1.43,0,0,0,3.54,159.53Z"/><path d="M9.17,170.93a1.57,1.57,0,1,0-1.56-1.56A1.56,1.56,0,0,0,9.17,170.93Z"/><path d="M3.54,182.32a1.69,1.69,0,1,0-1.69-1.69A1.69,1.69,0,0,0,3.54,182.32Z"/><path d="M9.17,193.71a1.81,1.81,0,1,0-1.81-1.81A1.81,1.81,0,0,0,9.17,193.71Z"/><path d="M3.54,205.11a1.94,1.94,0,1,0-1.94-1.94A1.94,1.94,0,0,0,3.54,205.11Z"/><path d="M9.17,216.5a2.07,2.07,0,1,0-2.06-2.06A2.06,2.06,0,0,0,9.17,216.5Z"/><path d="M3.54,227.89a2.19,2.19,0,1,0-2.19-2.18A2.19,2.19,0,0,0,3.54,227.89Z"/><path d="M9.17,239.32A2.35,2.35,0,1,0,6.82,237,2.35,2.35,0,0,0,9.17,239.32Z"/><path d="M3.54,250.74A2.5,2.5,0,1,0,1,248.24,2.5,2.5,0,0,0,3.54,250.74Z"/><path d="M9.17,262.13a2.63,2.63,0,1,0-2.63-2.62A2.62,2.62,0,0,0,9.17,262.13Z"/><path d="M3.54,273.56a2.78,2.78,0,1,0-2.79-2.78A2.79,2.79,0,0,0,3.54,273.56Z"/><path d="M9.17,285a3,3,0,1,0-3-3A3,3,0,0,0,9.17,285Z"/><path d="M3.54,296.44a3.13,3.13,0,1,0-3.13-3.13A3.13,3.13,0,0,0,3.54,296.44Z"/><path d="M9.17,307.86a3.28,3.28,0,1,0-3.28-3.28A3.28,3.28,0,0,0,9.17,307.86Z"/><path d="M3.54,319.32a3.47,3.47,0,1,0-3.47-3.47A3.46,3.46,0,0,0,3.54,319.32Z"/><path d="M9.17,330.74a3.63,3.63,0,1,0-3.63-3.62A3.62,3.62,0,0,0,9.17,330.74Z"/><path d="M3.54,342.2a3.82,3.82,0,1,0-3.82-3.81A3.82,3.82,0,0,0,3.54,342.2Z"/><path d="M9.17,353.65a4,4,0,1,0-4-4A4,4,0,0,0,9.17,353.65Z"/><path d="M3.54,365.11a4.19,4.19,0,1,0-4.19-4.19A4.19,4.19,0,0,0,3.54,365.11Z"/><path d="M9.17,376.56a4.38,4.38,0,1,0-4.37-4.37A4.36,4.36,0,0,0,9.17,376.56Z"/><path d="M-1,383.46a4.57,4.57,0,1,0,4.57-4.56A4.56,4.56,0,0,0-1,383.46"/><path d="M9,389.81a5.05,5.05,0,1,0,5,5.05A5,5,0,0,0,9,389.81Z"/><path d="M-3.83,353.65a4,4,0,0,0,4-4,4,4,0,0,0-4-4,4,4,0,0,0-4,4A4,4,0,0,0-3.83,353.65Z"/><path d="M-3.83,376.56a4.36,4.36,0,0,0,4.37-4.37,4.37,4.37,0,0,0-4.37-4.38,4.37,4.37,0,0,0-4.37,4.38A4.36,4.36,0,0,0-3.83,376.56Z"/><path d="M-4,389.81a5,5,0,0,0-5.05,5.05A5,5,0,0,0-4,399.91,5,5,0,0,0,1,394.86,5,5,0,0,0-4,389.81Z"/></pattern></defs><title>Ресурс 6</title><g id="Слой_2" data-name="Слой 2"><g id="Слой_1-2" data-name="Слой 1"><rect class="cls-2" width="1600" height="120"/></g></g></svg>