<svg xmlns="http://www.w3.org/2000/svg" xmlns:xlink="http://www.w3.org/1999/xlink" viewBox="0 0 24 24"><defs><style>.cls-1{fill:#d0d2d4;}</style><symbol id="Новый_символ_49" data-name="Новый символ 49" viewBox="0 0 24 24"><path class="cls-1" d="M14.35,4.42a8.14,8.14,0,0,0-2,.26,7.94,7.94,0,0,1,1.86.74h.12a7,7,0,0,1,0,14h-.11l-.31,0-.35,0-.23,0a8.07,8.07,0,0,0,1.3-.93l.4,0,.21,0,.48-.1.11,0h0a6,6,0,0,0,0-11.6l-.13,0a3.73,3.73,0,0,0-.46-.09l-.22,0H15l-.32,0a7.55,7.55,0,0,0-1.3-.94l.23,0c.11,0,.23,0,.34,0h.31a7.94,7.94,0,0,0-1.86-.74h0l-.22.07-.27.08h0a8.15,8.15,0,0,0-2-.37c-.16,0-.33,0-.5,0a8,8,0,0,0,0,16l.5,0a8.14,8.14,0,0,0,2-.38h0l.27.08.22.07h0a8.14,8.14,0,0,0,2,.25,8,8,0,0,0,0-16ZM11.85,19h0a6.24,6.24,0,0,1-1.5.39h0a6.63,6.63,0,0,1-1,.08,7,7,0,0,1,0-14,6.4,6.4,0,0,1,1,.08h0a7.51,7.51,0,0,1,1.5.39h0a6.5,6.5,0,0,1,1.29.65,6.06,6.06,0,0,1,1.21-.12h0a6.6,6.6,0,0,0-1.2.12,7,7,0,0,1,0,11.76A6.87,6.87,0,0,1,11.85,19Z"/><path class="cls-1" d="M11.85,7A6.05,6.05,0,0,0,10,8.32h.24l2.45,7h-1.6l-.53-1.68H8.06l-.32,1h0l-.22.68H6L6.51,14h0l.94-2.7h0L8.25,9l-.06.1L8.25,9l.24-.68H10A5.94,5.94,0,0,1,11.84,7a5.67,5.67,0,0,0-1.28-.43h0a6,6,0,0,0-1.21-.12l-.29,0-.26.23.25-.23H9a6,6,0,0,0,0,12h.3a6,6,0,0,0,1.21-.12h0a5.75,5.75,0,0,0,1.29-.43A6,6,0,0,0,11.85,7Z"/><polygon class="cls-1" points="9.26 9.79 8.38 12.55 9.38 12.55 10.22 12.55 9.9 11.54 9.35 9.79 9.26 9.79"/><path class="cls-1" d="M14.35,4.42a8.14,8.14,0,0,0-2,.26,7.94,7.94,0,0,1,1.86.74h.12a7,7,0,0,1,0,14h-.11l-.31,0-.35,0-.23,0a8.07,8.07,0,0,0,1.3-.93l.4,0,.21,0,.48-.1.11,0h0a6,6,0,0,0,0-11.6l-.13,0a3.73,3.73,0,0,0-.46-.09l-.22,0H15l-.32,0a7.55,7.55,0,0,0-1.3-.94l.23,0c.11,0,.23,0,.34,0h.31a7.94,7.94,0,0,0-1.86-.74h0l-.22.07-.27.08h0a8.15,8.15,0,0,0-2-.37c-.16,0-.33,0-.5,0a8,8,0,0,0,0,16l.5,0a8.14,8.14,0,0,0,2-.38h0l.27.08.22.07h0a8.14,8.14,0,0,0,2,.25,8,8,0,0,0,0-16ZM11.85,19h0a6.24,6.24,0,0,1-1.5.39h0a6.63,6.63,0,0,1-1,.08,7,7,0,0,1,0-14,6.4,6.4,0,0,1,1,.08h0a7.51,7.51,0,0,1,1.5.39h0a6.5,6.5,0,0,1,1.29.65,6.06,6.06,0,0,1,1.21-.12h0a6.6,6.6,0,0,0-1.2.12,7,7,0,0,1,0,11.76A6.87,6.87,0,0,1,11.85,19Z"/><path class="cls-1" d="M11.85,7A6.05,6.05,0,0,0,10,8.32h.24l2.45,7h-1.6l-.53-1.68H8.06l-.32,1h0l-.22.68H6L6.51,14h0l.94-2.7h0L8.25,9l-.06.1L8.25,9l.24-.68H10A5.94,5.94,0,0,1,11.84,7a5.67,5.67,0,0,0-1.28-.43h0a6,6,0,0,0-1.21-.12l-.29,0-.26.23.25-.23H9a6,6,0,0,0,0,12h.3a6,6,0,0,0,1.21-.12h0a5.75,5.75,0,0,0,1.29-.43A6,6,0,0,0,11.85,7Z"/><polygon class="cls-1" points="9.26 9.79 8.38 12.55 9.38 12.55 10.22 12.55 9.9 11.54 9.35 9.79 9.26 9.79"/></symbol></defs><title>Ресурс 16</title><g id="Слой_2" data-name="Слой 2"><g id="Слой_1-2" data-name="Слой 1"><use id="Новый_символ_49-3" data-name="Новый символ 49" width="24" height="24" xlink:href="#Новый_символ_49"/></g></g></svg>