<svg xmlns="http://www.w3.org/2000/svg" xmlns:xlink="http://www.w3.org/1999/xlink" viewBox="0 0 24 24"><defs><style>.cls-1,.cls-2{fill:#d0d2d4;}.cls-1{opacity:0;}</style><symbol id="Новый_символ_50" data-name="Новый символ 50" viewBox="0 0 24 24"><path class="cls-2" d="M18.65,6h-1.4a1.4,1.4,0,0,0-1.4-1H8.71a1.4,1.4,0,0,0-1.4,1H5.92a.64.64,0,0,0-.64.64V9.28a.64.64,0,0,0,.19.45l1.59,1.59.23.23a2.36,2.36,0,0,0,.83,1.7,8,8,0,0,0,3.16,2.56V18h-1v1H9.74a1,1,0,0,0-1.28,1H16.1a1,1,0,0,0-1.27-1h-.55V18h-1V15.81a8,8,0,0,0,3.16-2.56,2.36,2.36,0,0,0,.83-1.7L19.1,9.73a.67.67,0,0,0,.18-.45V6.64A.64.64,0,0,0,18.65,6Zm-.37,3.13-.8.8-.2.2V7h1ZM6.28,7h1v3.1h0v0l-1-1Z"/><path class="cls-2" d="M18.65,6h-1.4a1.4,1.4,0,0,0-1.4-1H8.71a1.4,1.4,0,0,0-1.4,1H5.92a.64.64,0,0,0-.64.64V9.28a.64.64,0,0,0,.19.45l1.59,1.59.23.23a2.36,2.36,0,0,0,.83,1.7,8,8,0,0,0,3.16,2.56V18h-1v1H9.74a1,1,0,0,0-1.28,1H16.1a1,1,0,0,0-1.27-1h-.55V18h-1V15.81a8,8,0,0,0,3.16-2.56,2.36,2.36,0,0,0,.83-1.7L19.1,9.73a.67.67,0,0,0,.18-.45V6.64A.64.64,0,0,0,18.65,6Zm-.37,3.13-.8.8-.2.2V7h1ZM6.28,7h1v3.1h0v0l-1-1Z"/></symbol></defs><title>Ресурс 17</title><g id="Слой_2" data-name="Слой 2"><g id="Слой_1-2" data-name="Слой 1"><use id="Новый_символ_50-3" data-name="Новый символ 50" width="24" height="24" xlink:href="#Новый_символ_50"/></g></g></svg>