<svg xmlns="http://www.w3.org/2000/svg" xmlns:xlink="http://www.w3.org/1999/xlink" viewBox="0 0 60 60"><defs><style>.cls-1,.cls-2,.cls-3{fill:#c35ccc;}.cls-1{opacity:0;}.cls-2{opacity:0.15;}</style><symbol id="Новый_символ_74" data-name="Новый символ 74" viewBox="0 0 60 60"><rect class="cls-1" width="60" height="60"/><circle class="cls-2" cx="30" cy="30" r="23"/><circle class="cls-2" cx="30" cy="30" r="16"/><polygon class="cls-3" points="12.45 25.15 12.45 25.15 12.45 25.15 12.45 25.15 12.45 25.15"/><path class="cls-3" d="M18,14.38A20.37,20.37,0,0,1,16,24a7.93,7.93,0,0,1-2.3,2.85l0,0,0,0a.42.42,0,0,0-.21.32v.06a.43.43,0,0,0,.13.3,11,11,0,0,0,3.32,2.27l1.81.8-1.72,1A17,17,0,0,0,8.23,44.45q-.06.57-.09,1.14C8.06,47.06,8,48.53,8,50v0a7.22,7.22,0,0,0,6.05,7.14,101.56,101.56,0,0,0,17,1.44,101.56,101.56,0,0,0,17-1.44A7.22,7.22,0,0,0,54,50v-.1h0c0-1.45-.07-2.93-.14-4.41,0-.39,0-.77-.1-1.15a17.15,17.15,0,0,0-8.84-13l-1.75-1L45,29.61a11.29,11.29,0,0,0,3.39-2.29.43.43,0,0,0,.12-.31V27a.45.45,0,0,0-.22-.32h0l-.06,0-.06-.05L48,26.41a6.89,6.89,0,0,1-.54-.5,10.06,10.06,0,0,1-1.52-2.11c-1.07-2-2.08-5.1-2.08-9.89A13,13,0,0,0,40.2,4.79,12.55,12.55,0,0,0,31.28,1h-.91C23.49,1.29,17.91,7,17,14v.07l1,.1ZM22.51,16A14.28,14.28,0,0,0,26.3,12.5l.54-.7.76.44a35.39,35.39,0,0,0,10.88,4l.83.17-.16,4.38A8.52,8.52,0,0,1,30.67,29h-.11a8.4,8.4,0,0,1-8.39-8.1L22,16.35Zm.76,14.08A8.78,8.78,0,0,0,25.12,29l.51-.4.57.31A9.39,9.39,0,0,0,30.56,30h.1a9.35,9.35,0,0,0,4.42-1.12l.58-.31.51.41a8.77,8.77,0,0,0,1.9,1.14l1.33.59-8.67,8.81-8.8-8.81Zm-1.2,2.64.6-.2L30.9,40.8l.17.07c.11,0,.08,0,.16-.07l8.18-8.31.65.33a18.81,18.81,0,0,1,8.07,7.43,14.13,14.13,0,0,1,1.67,4.32v0c0,.31.07.63.08.94.07,1.27.11,2.54.12,3.77h0v.06a5.6,5.6,0,0,1-4.65,5.54A85.76,85.76,0,0,1,31,56.16a85.76,85.76,0,0,1-14.35-1.23A5.6,5.6,0,0,1,12,49.39v-.07h0c0-1.23.06-2.49.12-3.75,0-.31,0-.63.08-.94h0A14.56,14.56,0,0,1,22.07,32.76Z"/></symbol></defs><title>womenwta</title><g id="Слой_2" data-name="Слой 2"><g id="Слой_1-2" data-name="Слой 1"><use id="Новый_символ_74-3" data-name="Новый символ 74" width="60" height="60" xlink:href="#Новый_символ_74"/></g></g></svg>